<?xml version="1.0" encoding="utf-8"?>
<svg xmlns="http://www.w3.org/2000/svg" xmlns:xlink="http://www.w3.org/1999/xlink" width="600" height="400" viewBox="0 0 2400 1600">
<defs>
  <clipPath id="clip300">
    <rect x="0" y="0" width="2400" height="1600"/>
  </clipPath>
</defs>
<path clip-path="url(#clip300)" d="
M0 1600 L2400 1600 L2400 0 L0 0  Z
  " fill="#ffffff" fill-rule="evenodd" fill-opacity="1"/>
<defs>
  <clipPath id="clip301">
    <rect x="480" y="0" width="1681" height="1600"/>
  </clipPath>
</defs>
<defs>
  <clipPath id="clip302">
    <rect x="163" y="47" width="2191" height="1359"/>
  </clipPath>
</defs>
<path clip-path="url(#clip300)" d="
M163.22 1405.14 L2352.76 1405.14 L2352.76 47.2441 L163.22 47.2441  Z
  " fill="#ffffff" fill-rule="evenodd" fill-opacity="1"/>
<polyline clip-path="url(#clip300)" style="stroke:#000000; stroke-width:4; stroke-opacity:1; fill:none" points="
  163.22,1405.14 2352.76,1405.14 
  "/>
<polyline clip-path="url(#clip300)" style="stroke:#000000; stroke-width:4; stroke-opacity:1; fill:none" points="
  163.22,1405.14 163.22,47.2441 
  "/>
<polyline clip-path="url(#clip300)" style="stroke:#000000; stroke-width:4; stroke-opacity:1; fill:none" points="
  225.188,1405.14 225.188,1388.85 
  "/>
<polyline clip-path="url(#clip300)" style="stroke:#000000; stroke-width:4; stroke-opacity:1; fill:none" points="
  638.722,1405.14 638.722,1388.85 
  "/>
<polyline clip-path="url(#clip300)" style="stroke:#000000; stroke-width:4; stroke-opacity:1; fill:none" points="
  1052.26,1405.14 1052.26,1388.85 
  "/>
<polyline clip-path="url(#clip300)" style="stroke:#000000; stroke-width:4; stroke-opacity:1; fill:none" points="
  1465.79,1405.14 1465.79,1388.85 
  "/>
<polyline clip-path="url(#clip300)" style="stroke:#000000; stroke-width:4; stroke-opacity:1; fill:none" points="
  1879.32,1405.14 1879.32,1388.85 
  "/>
<polyline clip-path="url(#clip300)" style="stroke:#000000; stroke-width:4; stroke-opacity:1; fill:none" points="
  2292.86,1405.14 2292.86,1388.85 
  "/>
<path clip-path="url(#clip300)" d="M 0 0 M192.842 1434.63 Q186.522 1434.63 183.322 1440.87 Q180.162 1447.06 180.162 1459.54 Q180.162 1471.98 183.322 1478.22 Q186.522 1484.41 192.842 1484.41 Q199.202 1484.41 202.361 1478.22 Q205.562 1471.98 205.562 1459.54 Q205.562 1447.06 202.361 1440.87 Q199.202 1434.63 192.842 1434.63 M192.842 1428.15 Q203.009 1428.15 208.357 1436.21 Q213.744 1444.23 213.744 1459.54 Q213.744 1474.81 208.357 1482.87 Q203.009 1490.9 192.842 1490.9 Q182.674 1490.9 177.286 1482.87 Q171.939 1474.81 171.939 1459.54 Q171.939 1444.23 177.286 1436.21 Q182.674 1428.15 192.842 1428.15 Z" fill="#000000" fill-rule="evenodd" fill-opacity="1" /><path clip-path="url(#clip300)" d="M 0 0 M222.616 1479.43 L231.163 1479.43 L231.163 1489.72 L222.616 1489.72 L222.616 1479.43 Z" fill="#000000" fill-rule="evenodd" fill-opacity="1" /><path clip-path="url(#clip300)" d="M 0 0 M257.535 1434.63 Q251.215 1434.63 248.015 1440.87 Q244.855 1447.06 244.855 1459.54 Q244.855 1471.98 248.015 1478.22 Q251.215 1484.41 257.535 1484.41 Q263.895 1484.41 267.054 1478.22 Q270.254 1471.98 270.254 1459.54 Q270.254 1447.06 267.054 1440.87 Q263.895 1434.63 257.535 1434.63 M257.535 1428.15 Q267.702 1428.15 273.05 1436.21 Q278.437 1444.23 278.437 1459.54 Q278.437 1474.81 273.05 1482.87 Q267.702 1490.9 257.535 1490.9 Q247.367 1490.9 241.979 1482.87 Q236.632 1474.81 236.632 1459.54 Q236.632 1444.23 241.979 1436.21 Q247.367 1428.15 257.535 1428.15 Z" fill="#000000" fill-rule="evenodd" fill-opacity="1" /><path clip-path="url(#clip300)" d="M 0 0 M607.773 1434.63 Q601.453 1434.63 598.253 1440.87 Q595.093 1447.06 595.093 1459.54 Q595.093 1471.98 598.253 1478.22 Q601.453 1484.41 607.773 1484.41 Q614.133 1484.41 617.292 1478.22 Q620.493 1471.98 620.493 1459.54 Q620.493 1447.06 617.292 1440.87 Q614.133 1434.63 607.773 1434.63 M607.773 1428.15 Q617.94 1428.15 623.288 1436.21 Q628.675 1444.23 628.675 1459.54 Q628.675 1474.81 623.288 1482.87 Q617.94 1490.9 607.773 1490.9 Q597.605 1490.9 592.217 1482.87 Q586.87 1474.81 586.87 1459.54 Q586.87 1444.23 592.217 1436.21 Q597.605 1428.15 607.773 1428.15 Z" fill="#000000" fill-rule="evenodd" fill-opacity="1" /><path clip-path="url(#clip300)" d="M 0 0 M637.547 1479.43 L646.094 1479.43 L646.094 1489.72 L637.547 1489.72 L637.547 1479.43 Z" fill="#000000" fill-rule="evenodd" fill-opacity="1" /><path clip-path="url(#clip300)" d="M 0 0 M662.014 1482.83 L690.573 1482.83 L690.573 1489.72 L652.171 1489.72 L652.171 1482.83 Q656.829 1478.01 664.85 1469.91 Q672.911 1461.77 674.977 1459.42 Q678.907 1455 680.446 1451.97 Q682.026 1448.89 682.026 1445.93 Q682.026 1441.11 678.623 1438.07 Q675.261 1435.03 669.833 1435.03 Q665.984 1435.03 661.69 1436.37 Q657.437 1437.71 652.576 1440.42 L652.576 1432.16 Q657.518 1430.17 661.812 1429.16 Q666.106 1428.15 669.671 1428.15 Q679.069 1428.15 684.659 1432.85 Q690.249 1437.54 690.249 1445.4 Q690.249 1449.13 688.831 1452.49 Q687.454 1455.81 683.768 1460.35 Q682.755 1461.53 677.327 1467.16 Q671.899 1472.75 662.014 1482.83 Z" fill="#000000" fill-rule="evenodd" fill-opacity="1" /><path clip-path="url(#clip300)" d="M 0 0 M1019.48 1434.63 Q1013.16 1434.63 1009.96 1440.87 Q1006.8 1447.06 1006.8 1459.54 Q1006.8 1471.98 1009.96 1478.22 Q1013.16 1484.41 1019.48 1484.41 Q1025.84 1484.41 1029 1478.22 Q1032.2 1471.98 1032.2 1459.54 Q1032.2 1447.06 1029 1440.87 Q1025.84 1434.63 1019.48 1434.63 M1019.48 1428.15 Q1029.65 1428.15 1035 1436.21 Q1040.39 1444.23 1040.39 1459.54 Q1040.39 1474.81 1035 1482.87 Q1029.65 1490.9 1019.48 1490.9 Q1009.32 1490.9 1003.93 1482.87 Q998.581 1474.81 998.581 1459.54 Q998.581 1444.23 1003.93 1436.21 Q1009.32 1428.15 1019.48 1428.15 Z" fill="#000000" fill-rule="evenodd" fill-opacity="1" /><path clip-path="url(#clip300)" d="M 0 0 M1049.26 1479.43 L1057.8 1479.43 L1057.8 1489.72 L1049.26 1489.72 L1049.26 1479.43 Z" fill="#000000" fill-rule="evenodd" fill-opacity="1" /><path clip-path="url(#clip300)" d="M 0 0 M1089.16 1436.37 L1068.5 1468.66 L1089.16 1468.66 L1089.16 1436.37 M1087.01 1429.24 L1097.3 1429.24 L1097.3 1468.66 L1105.93 1468.66 L1105.93 1475.46 L1097.3 1475.46 L1097.3 1489.72 L1089.16 1489.72 L1089.16 1475.46 L1061.86 1475.46 L1061.86 1467.56 L1087.01 1429.24 Z" fill="#000000" fill-rule="evenodd" fill-opacity="1" /><path clip-path="url(#clip300)" d="M 0 0 M1433.3 1434.63 Q1426.98 1434.63 1423.78 1440.87 Q1420.62 1447.06 1420.62 1459.54 Q1420.62 1471.98 1423.78 1478.22 Q1426.98 1484.41 1433.3 1484.41 Q1439.66 1484.41 1442.82 1478.22 Q1446.02 1471.98 1446.02 1459.54 Q1446.02 1447.06 1442.82 1440.87 Q1439.66 1434.63 1433.3 1434.63 M1433.3 1428.15 Q1443.47 1428.15 1448.82 1436.21 Q1454.2 1444.23 1454.2 1459.54 Q1454.2 1474.81 1448.82 1482.87 Q1443.47 1490.9 1433.3 1490.9 Q1423.13 1490.9 1417.74 1482.87 Q1412.4 1474.81 1412.4 1459.54 Q1412.4 1444.23 1417.74 1436.21 Q1423.13 1428.15 1433.3 1428.15 Z" fill="#000000" fill-rule="evenodd" fill-opacity="1" /><path clip-path="url(#clip300)" d="M 0 0 M1463.07 1479.43 L1471.62 1479.43 L1471.62 1489.72 L1463.07 1489.72 L1463.07 1479.43 Z" fill="#000000" fill-rule="evenodd" fill-opacity="1" /><path clip-path="url(#clip300)" d="M 0 0 M1499.01 1456.22 Q1493.5 1456.22 1490.26 1459.99 Q1487.06 1463.75 1487.06 1470.32 Q1487.06 1476.84 1490.26 1480.65 Q1493.5 1484.41 1499.01 1484.41 Q1504.52 1484.41 1507.72 1480.65 Q1510.96 1476.84 1510.96 1470.32 Q1510.96 1463.75 1507.72 1459.99 Q1504.52 1456.22 1499.01 1456.22 M1515.25 1430.58 L1515.25 1438.03 Q1512.17 1436.57 1509.01 1435.8 Q1505.89 1435.03 1502.81 1435.03 Q1494.71 1435.03 1490.42 1440.5 Q1486.16 1445.97 1485.56 1457.03 Q1487.95 1453.51 1491.55 1451.64 Q1495.16 1449.74 1499.49 1449.74 Q1508.61 1449.74 1513.87 1455.29 Q1519.18 1460.8 1519.18 1470.32 Q1519.18 1479.63 1513.67 1485.26 Q1508.16 1490.9 1499.01 1490.9 Q1488.51 1490.9 1482.96 1482.87 Q1477.41 1474.81 1477.41 1459.54 Q1477.41 1445.2 1484.22 1436.69 Q1491.03 1428.15 1502.49 1428.15 Q1505.57 1428.15 1508.69 1428.75 Q1511.85 1429.36 1515.25 1430.58 Z" fill="#000000" fill-rule="evenodd" fill-opacity="1" /><path clip-path="url(#clip300)" d="M 0 0 M1847.06 1434.63 Q1840.74 1434.63 1837.54 1440.87 Q1834.38 1447.06 1834.38 1459.54 Q1834.38 1471.98 1837.54 1478.22 Q1840.74 1484.41 1847.06 1484.41 Q1853.42 1484.41 1856.58 1478.22 Q1859.78 1471.98 1859.78 1459.54 Q1859.78 1447.06 1856.58 1440.87 Q1853.42 1434.63 1847.06 1434.63 M1847.06 1428.15 Q1857.22 1428.15 1862.57 1436.21 Q1867.96 1444.23 1867.96 1459.54 Q1867.96 1474.81 1862.57 1482.87 Q1857.22 1490.9 1847.06 1490.9 Q1836.89 1490.9 1831.5 1482.87 Q1826.15 1474.81 1826.15 1459.54 Q1826.15 1444.23 1831.5 1436.21 Q1836.89 1428.15 1847.06 1428.15 Z" fill="#000000" fill-rule="evenodd" fill-opacity="1" /><path clip-path="url(#clip300)" d="M 0 0 M1876.83 1479.43 L1885.38 1479.43 L1885.38 1489.72 L1876.83 1489.72 L1876.83 1479.43 Z" fill="#000000" fill-rule="evenodd" fill-opacity="1" /><path clip-path="url(#clip300)" d="M 0 0 M1911.75 1461 Q1905.92 1461 1902.55 1464.12 Q1899.23 1467.24 1899.23 1472.71 Q1899.23 1478.18 1902.55 1481.29 Q1905.92 1484.41 1911.75 1484.41 Q1917.58 1484.41 1920.95 1481.29 Q1924.31 1478.13 1924.31 1472.71 Q1924.31 1467.24 1920.95 1464.12 Q1917.62 1461 1911.75 1461 M1903.57 1457.52 Q1898.3 1456.22 1895.34 1452.61 Q1892.43 1449.01 1892.43 1443.82 Q1892.43 1436.57 1897.57 1432.36 Q1902.76 1428.15 1911.75 1428.15 Q1920.78 1428.15 1925.93 1432.36 Q1931.07 1436.57 1931.07 1443.82 Q1931.07 1449.01 1928.12 1452.61 Q1925.2 1456.22 1919.97 1457.52 Q1925.89 1458.89 1929.17 1462.9 Q1932.49 1466.91 1932.49 1472.71 Q1932.49 1481.5 1927.1 1486.2 Q1921.76 1490.9 1911.75 1490.9 Q1901.74 1490.9 1896.36 1486.2 Q1891.01 1481.5 1891.01 1472.71 Q1891.01 1466.91 1894.33 1462.9 Q1897.65 1458.89 1903.57 1457.52 M1900.57 1444.59 Q1900.57 1449.29 1903.49 1451.93 Q1906.44 1454.56 1911.75 1454.56 Q1917.02 1454.56 1919.97 1451.93 Q1922.97 1449.29 1922.97 1444.59 Q1922.97 1439.89 1919.97 1437.26 Q1917.02 1434.63 1911.75 1434.63 Q1906.44 1434.63 1903.49 1437.26 Q1900.57 1439.89 1900.57 1444.59 Z" fill="#000000" fill-rule="evenodd" fill-opacity="1" /><path clip-path="url(#clip300)" d="M 0 0 M2243.68 1482.83 L2257.05 1482.83 L2257.05 1436.69 L2242.5 1439.61 L2242.5 1432.16 L2256.96 1429.24 L2265.15 1429.24 L2265.15 1482.83 L2278.52 1482.83 L2278.52 1489.72 L2243.68 1489.72 L2243.68 1482.83 Z" fill="#000000" fill-rule="evenodd" fill-opacity="1" /><path clip-path="url(#clip300)" d="M 0 0 M2287.39 1479.43 L2295.93 1479.43 L2295.93 1489.72 L2287.39 1489.72 L2287.39 1479.43 Z" fill="#000000" fill-rule="evenodd" fill-opacity="1" /><path clip-path="url(#clip300)" d="M 0 0 M2322.31 1434.63 Q2315.99 1434.63 2312.79 1440.87 Q2309.63 1447.06 2309.63 1459.54 Q2309.63 1471.98 2312.79 1478.22 Q2315.99 1484.41 2322.31 1484.41 Q2328.67 1484.41 2331.83 1478.22 Q2335.03 1471.98 2335.03 1459.54 Q2335.03 1447.06 2331.83 1440.87 Q2328.67 1434.63 2322.31 1434.63 M2322.31 1428.15 Q2332.47 1428.15 2337.82 1436.21 Q2343.21 1444.23 2343.21 1459.54 Q2343.21 1474.81 2337.82 1482.87 Q2332.47 1490.9 2322.31 1490.9 Q2312.14 1490.9 2306.75 1482.87 Q2301.4 1474.81 2301.4 1459.54 Q2301.4 1444.23 2306.75 1436.21 Q2312.14 1428.15 2322.31 1428.15 Z" fill="#000000" fill-rule="evenodd" fill-opacity="1" /><path clip-path="url(#clip300)" d="M 0 0 M1273.18 1536.41 Q1273.18 1543.29 1270.97 1551.04 Q1268.8 1558.75 1265.35 1564.98 Q1261.91 1571.17 1257.4 1575.26 Q1252.89 1579.32 1248.59 1579.32 Q1245.84 1579.32 1243.79 1577.81 Q1241.78 1576.25 1240.68 1573.67 Q1239.57 1571.04 1239.04 1568.17 Q1238.51 1565.26 1238.51 1562.11 Q1238.51 1557.39 1239.53 1552.27 Q1240.56 1547.11 1242.28 1542.43 Q1244 1537.72 1246.42 1533.46 Q1248.83 1529.15 1251.5 1526.04 Q1254.2 1522.88 1257.24 1521.04 Q1260.27 1519.19 1263.1 1519.19 Q1265.15 1519.19 1266.79 1520.09 Q1268.47 1520.95 1269.53 1522.47 Q1270.6 1523.95 1271.34 1525.71 Q1272.12 1527.47 1272.49 1529.52 Q1272.85 1531.53 1273.02 1533.21 Q1273.18 1534.85 1273.18 1536.41 M1267.65 1531.2 Q1267.65 1529.11 1267.49 1527.55 Q1267.32 1525.95 1266.87 1524.36 Q1266.42 1522.76 1265.44 1521.9 Q1264.49 1521.04 1263.02 1521.04 Q1258.71 1521.04 1253.88 1529.85 Q1252.32 1532.6 1250.93 1536.33 Q1249.53 1540.06 1249.04 1541.82 Q1248.55 1543.58 1247.4 1547.93 L1264.94 1547.93 Q1267.65 1536.73 1267.65 1531.2 M1264.21 1550.59 L1246.74 1550.59 Q1244.04 1560.84 1244.04 1567.23 Q1244.04 1572.81 1245.19 1575.14 Q1246.38 1577.44 1248.59 1577.44 Q1251.13 1577.44 1253.51 1574.9 Q1255.89 1572.31 1258.3 1567.64 Q1261.5 1561.57 1264.21 1550.59 Z" fill="#000000" fill-rule="evenodd" fill-opacity="1" /><path clip-path="url(#clip300)" d="M 0 0 M36.5962 905.204 L36.5962 897.021 L90.1896 897.021 L90.1896 867.571 L97.0762 867.571 L97.0762 905.204 L36.5962 905.204 Z" fill="#000000" fill-rule="evenodd" fill-opacity="1" /><path clip-path="url(#clip300)" d="M 0 0 M51.706 859.753 L51.706 852.299 L97.0762 852.299 L97.0762 859.753 L51.706 859.753 M34.0441 859.753 L34.0441 852.299 L43.4827 852.299 L43.4827 859.753 L34.0441 859.753 Z" fill="#000000" fill-rule="evenodd" fill-opacity="1" /><path clip-path="url(#clip300)" d="M 0 0 M34.0441 844.764 L34.0441 837.27 L71.2719 837.27 L51.706 815.031 L51.706 805.511 L72.9328 829.573 L97.0762 804.498 L97.0762 814.22 L74.9177 837.27 L97.0762 837.27 L97.0762 844.764 L34.0441 844.764 Z" fill="#000000" fill-rule="evenodd" fill-opacity="1" /><path clip-path="url(#clip300)" d="M 0 0 M72.5277 760.829 L76.1735 760.829 L76.1735 795.1 Q83.8702 794.614 87.9211 790.482 Q91.9315 786.31 91.9315 778.897 Q91.9315 774.603 90.8783 770.592 Q89.825 766.541 87.7186 762.571 L94.7671 762.571 Q96.4685 766.582 97.3597 770.795 Q98.2509 775.008 98.2509 779.342 Q98.2509 790.199 91.9315 796.558 Q85.6121 802.878 74.8367 802.878 Q63.6967 802.878 57.1748 796.883 Q50.6123 790.847 50.6123 780.638 Q50.6123 771.483 56.5266 766.177 Q62.4004 760.829 72.5277 760.829 M70.3402 768.283 Q64.2233 768.364 60.5775 771.726 Q56.9317 775.048 56.9317 780.557 Q56.9317 786.796 60.456 790.563 Q63.9803 794.29 70.3807 794.857 L70.3402 768.283 Z" fill="#000000" fill-rule="evenodd" fill-opacity="1" /><path clip-path="url(#clip300)" d="M 0 0 M34.0441 753.011 L34.0441 745.558 L97.0762 745.558 L97.0762 753.011 L34.0441 753.011 Z" fill="#000000" fill-rule="evenodd" fill-opacity="1" /><path clip-path="url(#clip300)" d="M 0 0 M51.706 737.739 L51.706 730.286 L97.0762 730.286 L97.0762 737.739 L51.706 737.739 M34.0441 737.739 L34.0441 730.286 L43.4827 730.286 L43.4827 737.739 L34.0441 737.739 Z" fill="#000000" fill-rule="evenodd" fill-opacity="1" /><path clip-path="url(#clip300)" d="M 0 0 M69.692 684.754 L97.0762 684.754 L97.0762 692.207 L69.9351 692.207 Q63.4942 692.207 60.2939 694.719 Q57.0937 697.23 57.0937 702.253 Q57.0937 708.289 60.9421 711.773 Q64.7905 715.257 71.4339 715.257 L97.0762 715.257 L97.0762 722.751 L34.0441 722.751 L34.0441 715.257 L58.7546 715.257 Q54.6632 712.583 52.6377 708.978 Q50.6123 705.332 50.6123 700.593 Q50.6123 692.774 55.4734 688.764 Q60.2939 684.754 69.692 684.754 Z" fill="#000000" fill-rule="evenodd" fill-opacity="1" /><path clip-path="url(#clip300)" d="M 0 0 M56.9317 659.354 Q56.9317 665.35 61.6307 668.833 Q66.2893 672.317 74.4316 672.317 Q82.5739 672.317 87.273 668.874 Q91.9315 665.39 91.9315 659.354 Q91.9315 653.4 87.2325 649.916 Q82.5334 646.432 74.4316 646.432 Q66.3703 646.432 61.6713 649.916 Q56.9317 653.4 56.9317 659.354 M50.6123 659.354 Q50.6123 649.632 56.9317 644.082 Q63.2511 638.533 74.4316 638.533 Q85.5716 638.533 91.9315 644.082 Q98.2509 649.632 98.2509 659.354 Q98.2509 669.117 91.9315 674.667 Q85.5716 680.176 74.4316 680.176 Q63.2511 680.176 56.9317 674.667 Q50.6123 669.117 50.6123 659.354 Z" fill="#000000" fill-rule="evenodd" fill-opacity="1" /><path clip-path="url(#clip300)" d="M 0 0 M56.9317 613.134 Q56.9317 619.129 61.6307 622.613 Q66.2893 626.096 74.4316 626.096 Q82.5739 626.096 87.273 622.653 Q91.9315 619.169 91.9315 613.134 Q91.9315 607.179 87.2325 603.695 Q82.5334 600.211 74.4316 600.211 Q66.3703 600.211 61.6713 603.695 Q56.9317 607.179 56.9317 613.134 M50.6123 613.134 Q50.6123 603.411 56.9317 597.862 Q63.2511 592.312 74.4316 592.312 Q85.5716 592.312 91.9315 597.862 Q98.2509 603.411 98.2509 613.134 Q98.2509 622.896 91.9315 628.446 Q85.5716 633.955 74.4316 633.955 Q63.2511 633.955 56.9317 628.446 Q50.6123 622.896 50.6123 613.134 Z" fill="#000000" fill-rule="evenodd" fill-opacity="1" /><path clip-path="url(#clip300)" d="M 0 0 M58.5926 554.638 L34.0441 554.638 L34.0441 547.185 L97.0762 547.185 L97.0762 554.638 L90.2706 554.638 Q94.3215 556.988 96.3065 560.593 Q98.2509 564.158 98.2509 569.181 Q98.2509 577.405 91.6885 582.59 Q85.126 587.734 74.4316 587.734 Q63.7372 587.734 57.1748 582.59 Q50.6123 577.405 50.6123 569.181 Q50.6123 564.158 52.5972 560.593 Q54.5417 556.988 58.5926 554.638 M74.4316 580.038 Q82.6549 580.038 87.354 576.675 Q92.0125 573.273 92.0125 567.358 Q92.0125 561.444 87.354 558.041 Q82.6549 554.638 74.4316 554.638 Q66.2083 554.638 61.5497 558.041 Q56.8507 561.444 56.8507 567.358 Q56.8507 573.273 61.5497 576.675 Q66.2083 580.038 74.4316 580.038 Z" fill="#000000" fill-rule="evenodd" fill-opacity="1" /><path clip-path="url(#clip302)" d="
M225.188 1366.71 L227.256 1366.71 L229.323 1366.71 L231.391 1366.71 L233.459 1366.71 L235.526 1366.71 L237.594 1366.71 L239.662 1366.71 L241.729 1366.71 L243.797 1366.71 
  L245.865 1366.71 L247.932 1366.71 L250 1366.71 L252.068 1366.71 L254.135 1366.71 L256.203 1366.71 L258.271 1366.71 L260.338 1366.71 L262.406 1366.71 L264.474 1366.71 
  L266.541 1366.71 L268.609 1366.71 L270.677 1366.71 L272.745 1366.71 L274.812 1366.71 L276.88 1366.71 L278.948 1366.71 L281.015 1366.71 L283.083 1366.71 L285.151 1366.71 
  L287.218 1366.71 L289.286 1366.71 L291.354 1366.71 L293.421 1366.71 L295.489 1366.71 L297.557 1366.71 L299.624 1366.71 L301.692 1366.71 L303.76 1366.71 L305.827 1366.71 
  L307.895 1366.71 L309.963 1366.71 L312.03 1366.71 L314.098 1366.71 L316.166 1366.71 L318.233 1366.71 L320.301 1366.71 L322.369 1366.71 L324.436 1366.71 L326.504 1366.71 
  L328.572 1366.71 L330.639 1366.71 L332.707 1366.71 L334.775 1366.71 L336.842 1366.71 L338.91 1366.71 L340.978 1366.71 L343.045 1366.71 L345.113 1366.71 L347.181 1366.71 
  L349.248 1366.71 L351.316 1366.71 L353.384 1366.71 L355.451 1366.71 L357.519 1366.71 L359.587 1366.71 L361.654 1366.71 L363.722 1366.71 L365.79 1366.71 L367.857 1366.71 
  L369.925 1366.71 L371.993 1366.71 L374.06 1366.71 L376.128 1366.71 L378.196 1366.71 L380.263 1366.71 L382.331 1366.71 L384.399 1366.71 L386.466 1366.71 L388.534 1366.71 
  L390.602 1366.71 L392.669 1366.71 L394.737 1366.71 L396.805 1366.71 L398.872 1366.71 L400.94 1366.71 L403.008 1366.71 L405.075 1366.71 L407.143 1366.71 L409.211 1366.71 
  L411.278 1366.71 L413.346 1366.71 L415.414 1366.71 L417.481 1366.71 L419.549 1366.71 L421.617 1366.71 L423.684 1366.71 L425.752 1366.71 L427.82 1366.71 L429.887 1366.71 
  L431.955 1366.71 L434.023 1366.71 L436.09 1366.71 L438.158 1366.71 L440.226 1366.71 L442.293 1366.71 L444.361 1366.71 L446.429 1366.71 L448.496 1366.71 L450.564 1366.71 
  L452.632 1366.71 L454.699 1366.71 L456.767 1366.71 L458.835 1366.71 L460.902 1366.71 L462.97 1366.71 L465.038 1366.71 L467.105 1366.71 L469.173 1366.71 L471.241 1366.71 
  L473.308 1366.71 L475.376 1366.71 L477.444 1366.71 L479.511 1366.71 L481.579 1366.71 L483.647 1366.71 L485.714 1366.71 L487.782 1366.71 L489.85 1366.71 L491.917 1366.71 
  L493.985 1366.71 L496.053 1366.71 L498.12 1366.71 L500.188 1366.71 L502.256 1366.71 L504.323 1366.71 L506.391 1366.71 L508.459 1366.71 L510.526 1366.71 L512.594 1366.71 
  L514.662 1366.71 L516.729 1366.71 L518.797 1366.71 L520.865 1366.71 L522.932 1366.71 L525 1366.71 L527.068 1366.71 L529.135 1366.71 L531.203 1366.71 L533.271 1366.71 
  L535.338 1366.71 L537.406 1366.71 L539.474 1366.71 L541.541 1366.71 L543.609 1366.71 L545.677 1366.71 L547.744 1366.71 L549.812 1366.71 L551.88 1366.71 L553.947 1366.71 
  L556.015 1366.71 L558.083 1366.71 L560.15 1366.71 L562.218 1366.71 L564.286 1366.71 L566.353 1366.71 L568.421 1366.71 L570.489 1366.71 L572.556 1366.71 L574.624 1366.71 
  L576.692 1366.71 L578.759 1366.71 L580.827 1366.71 L582.895 1366.71 L584.962 1366.71 L587.03 1366.71 L589.098 1366.71 L591.165 1366.71 L593.233 1366.71 L595.301 1366.71 
  L597.368 1366.71 L599.436 1366.71 L601.504 1366.71 L603.571 1366.71 L605.639 1366.71 L607.707 1366.71 L609.774 1366.71 L611.842 1366.71 L613.91 1366.71 L615.977 1366.71 
  L618.045 1366.7 L620.113 1366.7 L622.18 1366.7 L624.248 1366.7 L626.316 1366.7 L628.383 1366.7 L630.451 1366.7 L632.519 1366.7 L634.586 1366.7 L636.654 1366.7 
  L638.722 1366.7 L640.789 1366.7 L642.857 1366.7 L644.925 1366.7 L646.992 1366.7 L649.06 1366.7 L651.128 1366.7 L653.195 1366.69 L655.263 1366.69 L657.331 1366.69 
  L659.398 1366.69 L661.466 1366.69 L663.534 1366.69 L665.601 1366.69 L667.669 1366.69 L669.737 1366.69 L671.804 1366.69 L673.872 1366.69 L675.94 1366.68 L678.007 1366.68 
  L680.075 1366.68 L682.143 1366.68 L684.21 1366.68 L686.278 1366.68 L688.346 1366.68 L690.413 1366.68 L692.481 1366.67 L694.549 1366.67 L696.616 1366.67 L698.684 1366.67 
  L700.752 1366.67 L702.819 1366.67 L704.887 1366.66 L706.955 1366.66 L709.022 1366.66 L711.09 1366.66 L713.158 1366.66 L715.225 1366.65 L717.293 1366.65 L719.361 1366.65 
  L721.428 1366.65 L723.496 1366.64 L725.564 1366.64 L727.631 1366.64 L729.699 1366.64 L731.767 1366.63 L733.834 1366.63 L735.902 1366.63 L737.97 1366.63 L740.037 1366.62 
  L742.105 1366.62 L744.173 1366.62 L746.24 1366.61 L748.308 1366.61 L750.376 1366.6 L752.443 1366.6 L754.511 1366.6 L756.579 1366.59 L758.646 1366.59 L760.714 1366.58 
  L762.782 1366.58 L764.849 1366.58 L766.917 1366.57 L768.985 1366.57 L771.052 1366.56 L773.12 1366.56 L775.188 1366.55 L777.255 1366.55 L779.323 1366.54 L781.391 1366.54 
  L783.458 1366.53 L785.526 1366.52 L787.594 1366.52 L789.661 1366.51 L791.729 1366.5 L793.797 1366.5 L795.864 1366.49 L797.932 1366.48 L800 1366.48 L802.067 1366.47 
  L804.135 1366.46 L806.203 1366.45 L808.27 1366.45 L810.338 1366.44 L812.406 1366.43 L814.473 1366.42 L816.541 1366.41 L818.609 1366.4 L820.676 1366.39 L822.744 1366.38 
  L824.812 1366.37 L826.879 1366.36 L828.947 1366.35 L831.015 1366.34 L833.082 1366.33 L835.15 1366.32 L837.218 1366.31 L839.285 1366.3 L841.353 1366.28 L843.421 1366.27 
  L845.488 1366.26 L847.556 1366.24 L849.624 1366.23 L851.691 1366.22 L853.759 1366.2 L855.827 1366.19 L857.894 1366.17 L859.962 1366.16 L862.03 1366.14 L864.097 1366.13 
  L866.165 1366.11 L868.233 1366.09 L870.3 1366.08 L872.368 1366.06 L874.436 1366.04 L876.503 1366.02 L878.571 1366 L880.639 1365.98 L882.706 1365.96 L884.774 1365.94 
  L886.842 1365.92 L888.909 1365.9 L890.977 1365.88 L893.045 1365.86 L895.112 1365.83 L897.18 1365.81 L899.248 1365.79 L901.315 1365.76 L903.383 1365.74 L905.451 1365.71 
  L907.518 1365.69 L909.586 1365.66 L911.654 1365.63 L913.721 1365.6 L915.789 1365.57 L917.857 1365.54 L919.924 1365.51 L921.992 1365.48 L924.06 1365.45 L926.127 1365.42 
  L928.195 1365.39 L930.263 1365.35 L932.33 1365.32 L934.398 1365.29 L936.466 1365.25 L938.533 1365.21 L940.601 1365.18 L942.669 1365.14 L944.736 1365.1 L946.804 1365.06 
  L948.872 1365.02 L950.939 1364.98 L953.007 1364.94 L955.075 1364.89 L957.142 1364.85 L959.21 1364.8 L961.278 1364.76 L963.345 1364.71 L965.413 1364.66 L967.481 1364.61 
  L969.548 1364.56 L971.616 1364.51 L973.684 1364.46 L975.751 1364.41 L977.819 1364.35 L979.887 1364.3 L981.954 1364.24 L984.022 1364.19 L986.09 1364.13 L988.157 1364.07 
  L990.225 1364.01 L992.293 1363.94 L994.36 1363.88 L996.428 1363.82 L998.496 1363.75 L1000.56 1363.68 L1002.63 1363.61 L1004.7 1363.54 L1006.77 1363.47 L1008.83 1363.4 
  L1010.9 1363.33 L1012.97 1363.25 L1015.04 1363.17 L1017.1 1363.1 L1019.17 1363.02 L1021.24 1362.93 L1023.31 1362.85 L1025.38 1362.77 L1027.44 1362.68 L1029.51 1362.59 
  L1031.58 1362.5 L1033.65 1362.41 L1035.71 1362.32 L1037.78 1362.22 L1039.85 1362.13 L1041.92 1362.03 L1043.98 1361.93 L1046.05 1361.83 L1048.12 1361.73 L1050.19 1361.62 
  L1052.26 1361.51 L1054.32 1361.4 L1056.39 1361.29 L1058.46 1361.18 L1060.53 1361.06 L1062.59 1360.95 L1064.66 1360.83 L1066.73 1360.7 L1068.8 1360.58 L1070.86 1360.45 
  L1072.93 1360.33 L1075 1360.2 L1077.07 1360.06 L1079.13 1359.93 L1081.2 1359.79 L1083.27 1359.65 L1085.34 1359.51 L1087.41 1359.36 L1089.47 1359.22 L1091.54 1359.07 
  L1093.61 1358.91 L1095.68 1358.76 L1097.74 1358.6 L1099.81 1358.44 L1101.88 1358.28 L1103.95 1358.11 L1106.01 1357.94 L1108.08 1357.77 L1110.15 1357.6 L1112.22 1357.42 
  L1114.29 1357.24 L1116.35 1357.06 L1118.42 1356.87 L1120.49 1356.68 L1122.56 1356.49 L1124.62 1356.29 L1126.69 1356.1 L1128.76 1355.89 L1130.83 1355.69 L1132.89 1355.48 
  L1134.96 1355.27 L1137.03 1355.05 L1139.1 1354.83 L1141.16 1354.61 L1143.23 1354.39 L1145.3 1354.16 L1147.37 1353.92 L1149.44 1353.69 L1151.5 1353.44 L1153.57 1353.2 
  L1155.64 1352.95 L1157.71 1352.7 L1159.77 1352.44 L1161.84 1352.18 L1163.91 1351.92 L1165.98 1351.65 L1168.04 1351.38 L1170.11 1351.1 L1172.18 1350.82 L1174.25 1350.54 
  L1176.32 1350.25 L1178.38 1349.95 L1180.45 1349.65 L1182.52 1349.35 L1184.59 1349.04 L1186.65 1348.73 L1188.72 1348.42 L1190.79 1348.09 L1192.86 1347.77 L1194.92 1347.44 
  L1196.99 1347.1 L1199.06 1346.76 L1201.13 1346.41 L1203.19 1346.06 L1205.26 1345.71 L1207.33 1345.34 L1209.4 1344.98 L1211.47 1344.61 L1213.53 1344.23 L1215.6 1343.84 
  L1217.67 1343.46 L1219.74 1343.06 L1221.8 1342.66 L1223.87 1342.26 L1225.94 1341.85 L1228.01 1341.43 L1230.07 1341.01 L1232.14 1340.58 L1234.21 1340.14 L1236.28 1339.7 
  L1238.35 1339.25 L1240.41 1338.8 L1242.48 1338.34 L1244.55 1337.87 L1246.62 1337.4 L1248.68 1336.92 L1250.75 1336.43 L1252.82 1335.94 L1254.89 1335.44 L1256.95 1334.94 
  L1259.02 1334.42 L1261.09 1333.9 L1263.16 1333.38 L1265.22 1332.84 L1267.29 1332.3 L1269.36 1331.75 L1271.43 1331.19 L1273.5 1330.63 L1275.56 1330.06 L1277.63 1329.48 
  L1279.7 1328.89 L1281.77 1328.3 L1283.83 1327.7 L1285.9 1327.09 L1287.97 1326.47 L1290.04 1325.85 L1292.1 1325.21 L1294.17 1324.57 L1296.24 1323.92 L1298.31 1323.26 
  L1300.38 1322.59 L1302.44 1321.92 L1304.51 1321.23 L1306.58 1320.54 L1308.65 1319.84 L1310.71 1319.12 L1312.78 1318.4 L1314.85 1317.67 L1316.92 1316.94 L1318.98 1316.19 
  L1321.05 1315.43 L1323.12 1314.67 L1325.19 1313.89 L1327.25 1313.1 L1329.32 1312.31 L1331.39 1311.5 L1333.46 1310.69 L1335.53 1309.86 L1337.59 1309.03 L1339.66 1308.18 
  L1341.73 1307.33 L1343.8 1306.46 L1345.86 1305.59 L1347.93 1304.7 L1350 1303.8 L1352.07 1302.89 L1354.13 1301.97 L1356.2 1301.04 L1358.27 1300.1 L1360.34 1299.15 
  L1362.41 1298.19 L1364.47 1297.21 L1366.54 1296.23 L1368.61 1295.23 L1370.68 1294.22 L1372.74 1293.2 L1374.81 1292.17 L1376.88 1291.12 L1378.95 1290.06 L1381.01 1288.99 
  L1383.08 1287.91 L1385.15 1286.82 L1387.22 1285.71 L1389.28 1284.6 L1391.35 1283.46 L1393.42 1282.32 L1395.49 1281.16 L1397.56 1279.99 L1399.62 1278.81 L1401.69 1277.62 
  L1403.76 1276.41 L1405.83 1275.18 L1407.89 1273.95 L1409.96 1272.7 L1412.03 1271.43 L1414.1 1270.16 L1416.16 1268.87 L1418.23 1267.56 L1420.3 1266.24 L1422.37 1264.91 
  L1424.44 1263.56 L1426.5 1262.2 L1428.57 1260.82 L1430.64 1259.43 L1432.71 1258.02 L1434.77 1256.6 L1436.84 1255.17 L1438.91 1253.71 L1440.98 1252.25 L1443.04 1250.77 
  L1445.11 1249.27 L1447.18 1247.76 L1449.25 1246.23 L1451.31 1244.68 L1453.38 1243.12 L1455.45 1241.55 L1457.52 1239.95 L1459.59 1238.35 L1461.65 1236.72 L1463.72 1235.08 
  L1465.79 1233.42 L1467.86 1231.75 L1469.92 1230.06 L1471.99 1228.35 L1474.06 1226.62 L1476.13 1224.88 L1478.19 1223.12 L1480.26 1221.34 L1482.33 1219.55 L1484.4 1217.74 
  L1486.47 1215.91 L1488.53 1214.06 L1490.6 1212.2 L1492.67 1210.31 L1494.74 1208.41 L1496.8 1206.49 L1498.87 1204.56 L1500.94 1202.6 L1503.01 1200.62 L1505.07 1198.63 
  L1507.14 1196.62 L1509.21 1194.59 L1511.28 1192.54 L1513.34 1190.47 L1515.41 1188.38 L1517.48 1186.27 L1519.55 1184.15 L1521.62 1182 L1523.68 1179.83 L1525.75 1177.65 
  L1527.82 1175.44 L1529.89 1173.22 L1531.95 1170.97 L1534.02 1168.71 L1536.09 1166.42 L1538.16 1164.11 L1540.22 1161.79 L1542.29 1159.44 L1544.36 1157.07 L1546.43 1154.68 
  L1548.5 1152.28 L1550.56 1149.84 L1552.63 1147.39 L1554.7 1144.92 L1556.77 1142.43 L1558.83 1139.91 L1560.9 1137.38 L1562.97 1134.82 L1565.04 1132.24 L1567.1 1129.64 
  L1569.17 1127.01 L1571.24 1124.37 L1573.31 1121.7 L1575.37 1119.01 L1577.44 1116.3 L1579.51 1113.57 L1581.58 1110.81 L1583.65 1108.03 L1585.71 1105.23 L1587.78 1102.41 
  L1589.85 1099.56 L1591.92 1096.7 L1593.98 1093.8 L1596.05 1090.89 L1598.12 1087.95 L1600.19 1084.99 L1602.25 1082.01 L1604.32 1079 L1606.39 1075.97 L1608.46 1072.92 
  L1610.53 1069.84 L1612.59 1066.74 L1614.66 1063.62 L1616.73 1060.47 L1618.8 1057.3 L1620.86 1054.11 L1622.93 1050.89 L1625 1047.65 L1627.07 1044.38 L1629.13 1041.09 
  L1631.2 1037.78 L1633.27 1034.44 L1635.34 1031.08 L1637.41 1027.69 L1639.47 1024.28 L1641.54 1020.85 L1643.61 1017.39 L1645.68 1013.91 L1647.74 1010.4 L1649.81 1006.87 
  L1651.88 1003.31 L1653.95 999.735 L1656.01 996.131 L1658.08 992.502 L1660.15 988.849 L1662.22 985.171 L1664.28 981.469 L1666.35 977.742 L1668.42 973.991 L1670.49 970.216 
  L1670.49 1366.71 L1668.42 1366.71 L1666.35 1366.71 L1664.28 1366.71 L1662.22 1366.71 L1660.15 1366.71 L1658.08 1366.71 L1656.01 1366.71 L1653.95 1366.71 L1651.88 1366.71 
  L1649.81 1366.71 L1647.74 1366.71 L1645.68 1366.71 L1643.61 1366.71 L1641.54 1366.71 L1639.47 1366.71 L1637.41 1366.71 L1635.34 1366.71 L1633.27 1366.71 L1631.2 1366.71 
  L1629.13 1366.71 L1627.07 1366.71 L1625 1366.71 L1622.93 1366.71 L1620.86 1366.71 L1618.8 1366.71 L1616.73 1366.71 L1614.66 1366.71 L1612.59 1366.71 L1610.53 1366.71 
  L1608.46 1366.71 L1606.39 1366.71 L1604.32 1366.71 L1602.25 1366.71 L1600.19 1366.71 L1598.12 1366.71 L1596.05 1366.71 L1593.98 1366.71 L1591.92 1366.71 L1589.85 1366.71 
  L1587.78 1366.71 L1585.71 1366.71 L1583.65 1366.71 L1581.58 1366.71 L1579.51 1366.71 L1577.44 1366.71 L1575.37 1366.71 L1573.31 1366.71 L1571.24 1366.71 L1569.17 1366.71 
  L1567.1 1366.71 L1565.04 1366.71 L1562.97 1366.71 L1560.9 1366.71 L1558.83 1366.71 L1556.77 1366.71 L1554.7 1366.71 L1552.63 1366.71 L1550.56 1366.71 L1548.5 1366.71 
  L1546.43 1366.71 L1544.36 1366.71 L1542.29 1366.71 L1540.22 1366.71 L1538.16 1366.71 L1536.09 1366.71 L1534.02 1366.71 L1531.95 1366.71 L1529.89 1366.71 L1527.82 1366.71 
  L1525.75 1366.71 L1523.68 1366.71 L1521.62 1366.71 L1519.55 1366.71 L1517.48 1366.71 L1515.41 1366.71 L1513.34 1366.71 L1511.28 1366.71 L1509.21 1366.71 L1507.14 1366.71 
  L1505.07 1366.71 L1503.01 1366.71 L1500.94 1366.71 L1498.87 1366.71 L1496.8 1366.71 L1494.74 1366.71 L1492.67 1366.71 L1490.6 1366.71 L1488.53 1366.71 L1486.47 1366.71 
  L1484.4 1366.71 L1482.33 1366.71 L1480.26 1366.71 L1478.19 1366.71 L1476.13 1366.71 L1474.06 1366.71 L1471.99 1366.71 L1469.92 1366.71 L1467.86 1366.71 L1465.79 1366.71 
  L1463.72 1366.71 L1461.65 1366.71 L1459.59 1366.71 L1457.52 1366.71 L1455.45 1366.71 L1453.38 1366.71 L1451.31 1366.71 L1449.25 1366.71 L1447.18 1366.71 L1445.11 1366.71 
  L1443.04 1366.71 L1440.98 1366.71 L1438.91 1366.71 L1436.84 1366.71 L1434.77 1366.71 L1432.71 1366.71 L1430.64 1366.71 L1428.57 1366.71 L1426.5 1366.71 L1424.44 1366.71 
  L1422.37 1366.71 L1420.3 1366.71 L1418.23 1366.71 L1416.16 1366.71 L1414.1 1366.71 L1412.03 1366.71 L1409.96 1366.71 L1407.89 1366.71 L1405.83 1366.71 L1403.76 1366.71 
  L1401.69 1366.71 L1399.62 1366.71 L1397.56 1366.71 L1395.49 1366.71 L1393.42 1366.71 L1391.35 1366.71 L1389.28 1366.71 L1387.22 1366.71 L1385.15 1366.71 L1383.08 1366.71 
  L1381.01 1366.71 L1378.95 1366.71 L1376.88 1366.71 L1374.81 1366.71 L1372.74 1366.71 L1370.68 1366.71 L1368.61 1366.71 L1366.54 1366.71 L1364.47 1366.71 L1362.41 1366.71 
  L1360.34 1366.71 L1358.27 1366.71 L1356.2 1366.71 L1354.13 1366.71 L1352.07 1366.71 L1350 1366.71 L1347.93 1366.71 L1345.86 1366.71 L1343.8 1366.71 L1341.73 1366.71 
  L1339.66 1366.71 L1337.59 1366.71 L1335.53 1366.71 L1333.46 1366.71 L1331.39 1366.71 L1329.32 1366.71 L1327.25 1366.71 L1325.19 1366.71 L1323.12 1366.71 L1321.05 1366.71 
  L1318.98 1366.71 L1316.92 1366.71 L1314.85 1366.71 L1312.78 1366.71 L1310.71 1366.71 L1308.65 1366.71 L1306.58 1366.71 L1304.51 1366.71 L1302.44 1366.71 L1300.38 1366.71 
  L1298.31 1366.71 L1296.24 1366.71 L1294.17 1366.71 L1292.1 1366.71 L1290.04 1366.71 L1287.97 1366.71 L1285.9 1366.71 L1283.83 1366.71 L1281.77 1366.71 L1279.7 1366.71 
  L1277.63 1366.71 L1275.56 1366.71 L1273.5 1366.71 L1271.43 1366.71 L1269.36 1366.71 L1267.29 1366.71 L1265.22 1366.71 L1263.16 1366.71 L1261.09 1366.71 L1259.02 1366.71 
  L1256.95 1366.71 L1254.89 1366.71 L1252.82 1366.71 L1250.75 1366.71 L1248.68 1366.71 L1246.62 1366.71 L1244.55 1366.71 L1242.48 1366.71 L1240.41 1366.71 L1238.35 1366.71 
  L1236.28 1366.71 L1234.21 1366.71 L1232.14 1366.71 L1230.07 1366.71 L1228.01 1366.71 L1225.94 1366.71 L1223.87 1366.71 L1221.8 1366.71 L1219.74 1366.71 L1217.67 1366.71 
  L1215.6 1366.71 L1213.53 1366.71 L1211.47 1366.71 L1209.4 1366.71 L1207.33 1366.71 L1205.26 1366.71 L1203.19 1366.71 L1201.13 1366.71 L1199.06 1366.71 L1196.99 1366.71 
  L1194.92 1366.71 L1192.86 1366.71 L1190.79 1366.71 L1188.72 1366.71 L1186.65 1366.71 L1184.59 1366.71 L1182.52 1366.71 L1180.45 1366.71 L1178.38 1366.71 L1176.32 1366.71 
  L1174.25 1366.71 L1172.18 1366.71 L1170.11 1366.71 L1168.04 1366.71 L1165.98 1366.71 L1163.91 1366.71 L1161.84 1366.71 L1159.77 1366.71 L1157.71 1366.71 L1155.64 1366.71 
  L1153.57 1366.71 L1151.5 1366.71 L1149.44 1366.71 L1147.37 1366.71 L1145.3 1366.71 L1143.23 1366.71 L1141.16 1366.71 L1139.1 1366.71 L1137.03 1366.71 L1134.96 1366.71 
  L1132.89 1366.71 L1130.83 1366.71 L1128.76 1366.71 L1126.69 1366.71 L1124.62 1366.71 L1122.56 1366.71 L1120.49 1366.71 L1118.42 1366.71 L1116.35 1366.71 L1114.29 1366.71 
  L1112.22 1366.71 L1110.15 1366.71 L1108.08 1366.71 L1106.01 1366.71 L1103.95 1366.71 L1101.88 1366.71 L1099.81 1366.71 L1097.74 1366.71 L1095.68 1366.71 L1093.61 1366.71 
  L1091.54 1366.71 L1089.47 1366.71 L1087.41 1366.71 L1085.34 1366.71 L1083.27 1366.71 L1081.2 1366.71 L1079.13 1366.71 L1077.07 1366.71 L1075 1366.71 L1072.93 1366.71 
  L1070.86 1366.71 L1068.8 1366.71 L1066.73 1366.71 L1064.66 1366.71 L1062.59 1366.71 L1060.53 1366.71 L1058.46 1366.71 L1056.39 1366.71 L1054.32 1366.71 L1052.26 1366.71 
  L1050.19 1366.71 L1048.12 1366.71 L1046.05 1366.71 L1043.98 1366.71 L1041.92 1366.71 L1039.85 1366.71 L1037.78 1366.71 L1035.71 1366.71 L1033.65 1366.71 L1031.58 1366.71 
  L1029.51 1366.71 L1027.44 1366.71 L1025.38 1366.71 L1023.31 1366.71 L1021.24 1366.71 L1019.17 1366.71 L1017.1 1366.71 L1015.04 1366.71 L1012.97 1366.71 L1010.9 1366.71 
  L1008.83 1366.71 L1006.77 1366.71 L1004.7 1366.71 L1002.63 1366.71 L1000.56 1366.71 L998.496 1366.71 L996.428 1366.71 L994.36 1366.71 L992.293 1366.71 L990.225 1366.71 
  L988.157 1366.71 L986.09 1366.71 L984.022 1366.71 L981.954 1366.71 L979.887 1366.71 L977.819 1366.71 L975.751 1366.71 L973.684 1366.71 L971.616 1366.71 L969.548 1366.71 
  L967.481 1366.71 L965.413 1366.71 L963.345 1366.71 L961.278 1366.71 L959.21 1366.71 L957.142 1366.71 L955.075 1366.71 L953.007 1366.71 L950.939 1366.71 L948.872 1366.71 
  L946.804 1366.71 L944.736 1366.71 L942.669 1366.71 L940.601 1366.71 L938.533 1366.71 L936.466 1366.71 L934.398 1366.71 L932.33 1366.71 L930.263 1366.71 L928.195 1366.71 
  L926.127 1366.71 L924.06 1366.71 L921.992 1366.71 L919.924 1366.71 L917.857 1366.71 L915.789 1366.71 L913.721 1366.71 L911.654 1366.71 L909.586 1366.71 L907.518 1366.71 
  L905.451 1366.71 L903.383 1366.71 L901.315 1366.71 L899.248 1366.71 L897.18 1366.71 L895.112 1366.71 L893.045 1366.71 L890.977 1366.71 L888.909 1366.71 L886.842 1366.71 
  L884.774 1366.71 L882.706 1366.71 L880.639 1366.71 L878.571 1366.71 L876.503 1366.71 L874.436 1366.71 L872.368 1366.71 L870.3 1366.71 L868.233 1366.71 L866.165 1366.71 
  L864.097 1366.71 L862.03 1366.71 L859.962 1366.71 L857.894 1366.71 L855.827 1366.71 L853.759 1366.71 L851.691 1366.71 L849.624 1366.71 L847.556 1366.71 L845.488 1366.71 
  L843.421 1366.71 L841.353 1366.71 L839.285 1366.71 L837.218 1366.71 L835.15 1366.71 L833.082 1366.71 L831.015 1366.71 L828.947 1366.71 L826.879 1366.71 L824.812 1366.71 
  L822.744 1366.71 L820.676 1366.71 L818.609 1366.71 L816.541 1366.71 L814.473 1366.71 L812.406 1366.71 L810.338 1366.71 L808.27 1366.71 L806.203 1366.71 L804.135 1366.71 
  L802.067 1366.71 L800 1366.71 L797.932 1366.71 L795.864 1366.71 L793.797 1366.71 L791.729 1366.71 L789.661 1366.71 L787.594 1366.71 L785.526 1366.71 L783.458 1366.71 
  L781.391 1366.71 L779.323 1366.71 L777.255 1366.71 L775.188 1366.71 L773.12 1366.71 L771.052 1366.71 L768.985 1366.71 L766.917 1366.71 L764.849 1366.71 L762.782 1366.71 
  L760.714 1366.71 L758.646 1366.71 L756.579 1366.71 L754.511 1366.71 L752.443 1366.71 L750.376 1366.71 L748.308 1366.71 L746.24 1366.71 L744.173 1366.71 L742.105 1366.71 
  L740.037 1366.71 L737.97 1366.71 L735.902 1366.71 L733.834 1366.71 L731.767 1366.71 L729.699 1366.71 L727.631 1366.71 L725.564 1366.71 L723.496 1366.71 L721.428 1366.71 
  L719.361 1366.71 L717.293 1366.71 L715.225 1366.71 L713.158 1366.71 L711.09 1366.71 L709.022 1366.71 L706.955 1366.71 L704.887 1366.71 L702.819 1366.71 L700.752 1366.71 
  L698.684 1366.71 L696.616 1366.71 L694.549 1366.71 L692.481 1366.71 L690.413 1366.71 L688.346 1366.71 L686.278 1366.71 L684.21 1366.71 L682.143 1366.71 L680.075 1366.71 
  L678.007 1366.71 L675.94 1366.71 L673.872 1366.71 L671.804 1366.71 L669.737 1366.71 L667.669 1366.71 L665.601 1366.71 L663.534 1366.71 L661.466 1366.71 L659.398 1366.71 
  L657.331 1366.71 L655.263 1366.71 L653.195 1366.71 L651.128 1366.71 L649.06 1366.71 L646.992 1366.71 L644.925 1366.71 L642.857 1366.71 L640.789 1366.71 L638.722 1366.71 
  L636.654 1366.71 L634.586 1366.71 L632.519 1366.71 L630.451 1366.71 L628.383 1366.71 L626.316 1366.71 L624.248 1366.71 L622.18 1366.71 L620.113 1366.71 L618.045 1366.71 
  L615.977 1366.71 L613.91 1366.71 L611.842 1366.71 L609.774 1366.71 L607.707 1366.71 L605.639 1366.71 L603.571 1366.71 L601.504 1366.71 L599.436 1366.71 L597.368 1366.71 
  L595.301 1366.71 L593.233 1366.71 L591.165 1366.71 L589.098 1366.71 L587.03 1366.71 L584.962 1366.71 L582.895 1366.71 L580.827 1366.71 L578.759 1366.71 L576.692 1366.71 
  L574.624 1366.71 L572.556 1366.71 L570.489 1366.71 L568.421 1366.71 L566.353 1366.71 L564.286 1366.71 L562.218 1366.71 L560.15 1366.71 L558.083 1366.71 L556.015 1366.71 
  L553.947 1366.71 L551.88 1366.71 L549.812 1366.71 L547.744 1366.71 L545.677 1366.71 L543.609 1366.71 L541.541 1366.71 L539.474 1366.71 L537.406 1366.71 L535.338 1366.71 
  L533.271 1366.71 L531.203 1366.71 L529.135 1366.71 L527.068 1366.71 L525 1366.71 L522.932 1366.71 L520.865 1366.71 L518.797 1366.71 L516.729 1366.71 L514.662 1366.71 
  L512.594 1366.71 L510.526 1366.71 L508.459 1366.71 L506.391 1366.71 L504.323 1366.71 L502.256 1366.71 L500.188 1366.71 L498.12 1366.71 L496.053 1366.71 L493.985 1366.71 
  L491.917 1366.71 L489.85 1366.71 L487.782 1366.71 L485.714 1366.71 L483.647 1366.71 L481.579 1366.71 L479.511 1366.71 L477.444 1366.71 L475.376 1366.71 L473.308 1366.71 
  L471.241 1366.71 L469.173 1366.71 L467.105 1366.71 L465.038 1366.71 L462.97 1366.71 L460.902 1366.71 L458.835 1366.71 L456.767 1366.71 L454.699 1366.71 L452.632 1366.71 
  L450.564 1366.71 L448.496 1366.71 L446.429 1366.71 L444.361 1366.71 L442.293 1366.71 L440.226 1366.71 L438.158 1366.71 L436.09 1366.71 L434.023 1366.71 L431.955 1366.71 
  L429.887 1366.71 L427.82 1366.71 L425.752 1366.71 L423.684 1366.71 L421.617 1366.71 L419.549 1366.71 L417.481 1366.71 L415.414 1366.71 L413.346 1366.71 L411.278 1366.71 
  L409.211 1366.71 L407.143 1366.71 L405.075 1366.71 L403.008 1366.71 L400.94 1366.71 L398.872 1366.71 L396.805 1366.71 L394.737 1366.71 L392.669 1366.71 L390.602 1366.71 
  L388.534 1366.71 L386.466 1366.71 L384.399 1366.71 L382.331 1366.71 L380.263 1366.71 L378.196 1366.71 L376.128 1366.71 L374.06 1366.71 L371.993 1366.71 L369.925 1366.71 
  L367.857 1366.71 L365.79 1366.71 L363.722 1366.71 L361.654 1366.71 L359.587 1366.71 L357.519 1366.71 L355.451 1366.71 L353.384 1366.71 L351.316 1366.71 L349.248 1366.71 
  L347.181 1366.71 L345.113 1366.71 L343.045 1366.71 L340.978 1366.71 L338.91 1366.71 L336.842 1366.71 L334.775 1366.71 L332.707 1366.71 L330.639 1366.71 L328.572 1366.71 
  L326.504 1366.71 L324.436 1366.71 L322.369 1366.71 L320.301 1366.71 L318.233 1366.71 L316.166 1366.71 L314.098 1366.71 L312.03 1366.71 L309.963 1366.71 L307.895 1366.71 
  L305.827 1366.71 L303.76 1366.71 L301.692 1366.71 L299.624 1366.71 L297.557 1366.71 L295.489 1366.71 L293.421 1366.71 L291.354 1366.71 L289.286 1366.71 L287.218 1366.71 
  L285.151 1366.71 L283.083 1366.71 L281.015 1366.71 L278.948 1366.71 L276.88 1366.71 L274.812 1366.71 L272.745 1366.71 L270.677 1366.71 L268.609 1366.71 L266.541 1366.71 
  L264.474 1366.71 L262.406 1366.71 L260.338 1366.71 L258.271 1366.71 L256.203 1366.71 L254.135 1366.71 L252.068 1366.71 L250 1366.71 L247.932 1366.71 L245.865 1366.71 
  L243.797 1366.71 L241.729 1366.71 L239.662 1366.71 L237.594 1366.71 L235.526 1366.71 L233.459 1366.71 L231.391 1366.71 L229.323 1366.71 L227.256 1366.71 L225.188 1366.71 
   Z
  " fill="#ff7e00" fill-rule="evenodd" fill-opacity="0.5"/>
<polyline clip-path="url(#clip302)" style="stroke:#ffa500; stroke-width:16; stroke-opacity:1; fill:none" points="
  225.188,1366.71 227.256,1366.71 229.323,1366.71 231.391,1366.71 233.459,1366.71 235.526,1366.71 237.594,1366.71 239.662,1366.71 241.729,1366.71 243.797,1366.71 
  245.865,1366.71 247.932,1366.71 250,1366.71 252.068,1366.71 254.135,1366.71 256.203,1366.71 258.271,1366.71 260.338,1366.71 262.406,1366.71 264.474,1366.71 
  266.541,1366.71 268.609,1366.71 270.677,1366.71 272.745,1366.71 274.812,1366.71 276.88,1366.71 278.948,1366.71 281.015,1366.71 283.083,1366.71 285.151,1366.71 
  287.218,1366.71 289.286,1366.71 291.354,1366.71 293.421,1366.71 295.489,1366.71 297.557,1366.71 299.624,1366.71 301.692,1366.71 303.76,1366.71 305.827,1366.71 
  307.895,1366.71 309.963,1366.71 312.03,1366.71 314.098,1366.71 316.166,1366.71 318.233,1366.71 320.301,1366.71 322.369,1366.71 324.436,1366.71 326.504,1366.71 
  328.572,1366.71 330.639,1366.71 332.707,1366.71 334.775,1366.71 336.842,1366.71 338.91,1366.71 340.978,1366.71 343.045,1366.71 345.113,1366.71 347.181,1366.71 
  349.248,1366.71 351.316,1366.71 353.384,1366.71 355.451,1366.71 357.519,1366.71 359.587,1366.71 361.654,1366.71 363.722,1366.71 365.79,1366.71 367.857,1366.71 
  369.925,1366.71 371.993,1366.71 374.06,1366.71 376.128,1366.71 378.196,1366.71 380.263,1366.71 382.331,1366.71 384.399,1366.71 386.466,1366.71 388.534,1366.71 
  390.602,1366.71 392.669,1366.71 394.737,1366.71 396.805,1366.71 398.872,1366.71 400.94,1366.71 403.008,1366.71 405.075,1366.71 407.143,1366.71 409.211,1366.71 
  411.278,1366.71 413.346,1366.71 415.414,1366.71 417.481,1366.71 419.549,1366.71 421.617,1366.71 423.684,1366.71 425.752,1366.71 427.82,1366.71 429.887,1366.71 
  431.955,1366.71 434.023,1366.71 436.09,1366.71 438.158,1366.71 440.226,1366.71 442.293,1366.71 444.361,1366.71 446.429,1366.71 448.496,1366.71 450.564,1366.71 
  452.632,1366.71 454.699,1366.71 456.767,1366.71 458.835,1366.71 460.902,1366.71 462.97,1366.71 465.038,1366.71 467.105,1366.71 469.173,1366.71 471.241,1366.71 
  473.308,1366.71 475.376,1366.71 477.444,1366.71 479.511,1366.71 481.579,1366.71 483.647,1366.71 485.714,1366.71 487.782,1366.71 489.85,1366.71 491.917,1366.71 
  493.985,1366.71 496.053,1366.71 498.12,1366.71 500.188,1366.71 502.256,1366.71 504.323,1366.71 506.391,1366.71 508.459,1366.71 510.526,1366.71 512.594,1366.71 
  514.662,1366.71 516.729,1366.71 518.797,1366.71 520.865,1366.71 522.932,1366.71 525,1366.71 527.068,1366.71 529.135,1366.71 531.203,1366.71 533.271,1366.71 
  535.338,1366.71 537.406,1366.71 539.474,1366.71 541.541,1366.71 543.609,1366.71 545.677,1366.71 547.744,1366.71 549.812,1366.71 551.88,1366.71 553.947,1366.71 
  556.015,1366.71 558.083,1366.71 560.15,1366.71 562.218,1366.71 564.286,1366.71 566.353,1366.71 568.421,1366.71 570.489,1366.71 572.556,1366.71 574.624,1366.71 
  576.692,1366.71 578.759,1366.71 580.827,1366.71 582.895,1366.71 584.962,1366.71 587.03,1366.71 589.098,1366.71 591.165,1366.71 593.233,1366.71 595.301,1366.71 
  597.368,1366.71 599.436,1366.71 601.504,1366.71 603.571,1366.71 605.639,1366.71 607.707,1366.71 609.774,1366.71 611.842,1366.71 613.91,1366.71 615.977,1366.71 
  618.045,1366.7 620.113,1366.7 622.18,1366.7 624.248,1366.7 626.316,1366.7 628.383,1366.7 630.451,1366.7 632.519,1366.7 634.586,1366.7 636.654,1366.7 
  638.722,1366.7 640.789,1366.7 642.857,1366.7 644.925,1366.7 646.992,1366.7 649.06,1366.7 651.128,1366.7 653.195,1366.69 655.263,1366.69 657.331,1366.69 
  659.398,1366.69 661.466,1366.69 663.534,1366.69 665.601,1366.69 667.669,1366.69 669.737,1366.69 671.804,1366.69 673.872,1366.69 675.94,1366.68 678.007,1366.68 
  680.075,1366.68 682.143,1366.68 684.21,1366.68 686.278,1366.68 688.346,1366.68 690.413,1366.68 692.481,1366.67 694.549,1366.67 696.616,1366.67 698.684,1366.67 
  700.752,1366.67 702.819,1366.67 704.887,1366.66 706.955,1366.66 709.022,1366.66 711.09,1366.66 713.158,1366.66 715.225,1366.65 717.293,1366.65 719.361,1366.65 
  721.428,1366.65 723.496,1366.64 725.564,1366.64 727.631,1366.64 729.699,1366.64 731.767,1366.63 733.834,1366.63 735.902,1366.63 737.97,1366.63 740.037,1366.62 
  742.105,1366.62 744.173,1366.62 746.24,1366.61 748.308,1366.61 750.376,1366.6 752.443,1366.6 754.511,1366.6 756.579,1366.59 758.646,1366.59 760.714,1366.58 
  762.782,1366.58 764.849,1366.58 766.917,1366.57 768.985,1366.57 771.052,1366.56 773.12,1366.56 775.188,1366.55 777.255,1366.55 779.323,1366.54 781.391,1366.54 
  783.458,1366.53 785.526,1366.52 787.594,1366.52 789.661,1366.51 791.729,1366.5 793.797,1366.5 795.864,1366.49 797.932,1366.48 800,1366.48 802.067,1366.47 
  804.135,1366.46 806.203,1366.45 808.27,1366.45 810.338,1366.44 812.406,1366.43 814.473,1366.42 816.541,1366.41 818.609,1366.4 820.676,1366.39 822.744,1366.38 
  824.812,1366.37 826.879,1366.36 828.947,1366.35 831.015,1366.34 833.082,1366.33 835.15,1366.32 837.218,1366.31 839.285,1366.3 841.353,1366.28 843.421,1366.27 
  845.488,1366.26 847.556,1366.24 849.624,1366.23 851.691,1366.22 853.759,1366.2 855.827,1366.19 857.894,1366.17 859.962,1366.16 862.03,1366.14 864.097,1366.13 
  866.165,1366.11 868.233,1366.09 870.3,1366.08 872.368,1366.06 874.436,1366.04 876.503,1366.02 878.571,1366 880.639,1365.98 882.706,1365.96 884.774,1365.94 
  886.842,1365.92 888.909,1365.9 890.977,1365.88 893.045,1365.86 895.112,1365.83 897.18,1365.81 899.248,1365.79 901.315,1365.76 903.383,1365.74 905.451,1365.71 
  907.518,1365.69 909.586,1365.66 911.654,1365.63 913.721,1365.6 915.789,1365.57 917.857,1365.54 919.924,1365.51 921.992,1365.48 924.06,1365.45 926.127,1365.42 
  928.195,1365.39 930.263,1365.35 932.33,1365.32 934.398,1365.29 936.466,1365.25 938.533,1365.21 940.601,1365.18 942.669,1365.14 944.736,1365.1 946.804,1365.06 
  948.872,1365.02 950.939,1364.98 953.007,1364.94 955.075,1364.89 957.142,1364.85 959.21,1364.8 961.278,1364.76 963.345,1364.71 965.413,1364.66 967.481,1364.61 
  969.548,1364.56 971.616,1364.51 973.684,1364.46 975.751,1364.41 977.819,1364.35 979.887,1364.3 981.954,1364.24 984.022,1364.19 986.09,1364.13 988.157,1364.07 
  990.225,1364.01 992.293,1363.94 994.36,1363.88 996.428,1363.82 998.496,1363.75 1000.56,1363.68 1002.63,1363.61 1004.7,1363.54 1006.77,1363.47 1008.83,1363.4 
  1010.9,1363.33 1012.97,1363.25 1015.04,1363.17 1017.1,1363.1 1019.17,1363.02 1021.24,1362.93 1023.31,1362.85 1025.38,1362.77 1027.44,1362.68 1029.51,1362.59 
  1031.58,1362.5 1033.65,1362.41 1035.71,1362.32 1037.78,1362.22 1039.85,1362.13 1041.92,1362.03 1043.98,1361.93 1046.05,1361.83 1048.12,1361.73 1050.19,1361.62 
  1052.26,1361.51 1054.32,1361.4 1056.39,1361.29 1058.46,1361.18 1060.53,1361.06 1062.59,1360.95 1064.66,1360.83 1066.73,1360.7 1068.8,1360.58 1070.86,1360.45 
  1072.93,1360.33 1075,1360.2 1077.07,1360.06 1079.13,1359.93 1081.2,1359.79 1083.27,1359.65 1085.34,1359.51 1087.41,1359.36 1089.47,1359.22 1091.54,1359.07 
  1093.61,1358.91 1095.68,1358.76 1097.74,1358.6 1099.81,1358.44 1101.88,1358.28 1103.95,1358.11 1106.01,1357.94 1108.08,1357.77 1110.15,1357.6 1112.22,1357.42 
  1114.29,1357.24 1116.35,1357.06 1118.42,1356.87 1120.49,1356.68 1122.56,1356.49 1124.62,1356.29 1126.69,1356.1 1128.76,1355.89 1130.83,1355.69 1132.89,1355.48 
  1134.96,1355.27 1137.03,1355.05 1139.1,1354.83 1141.16,1354.61 1143.23,1354.39 1145.3,1354.16 1147.37,1353.92 1149.44,1353.69 1151.5,1353.44 1153.57,1353.2 
  1155.64,1352.95 1157.71,1352.7 1159.77,1352.44 1161.84,1352.18 1163.91,1351.92 1165.98,1351.65 1168.04,1351.38 1170.11,1351.1 1172.18,1350.82 1174.25,1350.54 
  1176.32,1350.25 1178.38,1349.95 1180.45,1349.65 1182.52,1349.35 1184.59,1349.04 1186.65,1348.73 1188.72,1348.42 1190.79,1348.09 1192.86,1347.77 1194.92,1347.44 
  1196.99,1347.1 1199.06,1346.76 1201.13,1346.41 1203.19,1346.06 1205.26,1345.71 1207.33,1345.34 1209.4,1344.98 1211.47,1344.61 1213.53,1344.23 1215.6,1343.84 
  1217.67,1343.46 1219.74,1343.06 1221.8,1342.66 1223.87,1342.26 1225.94,1341.85 1228.01,1341.43 1230.07,1341.01 1232.14,1340.58 1234.21,1340.14 1236.28,1339.7 
  1238.35,1339.25 1240.41,1338.8 1242.48,1338.34 1244.55,1337.87 1246.62,1337.4 1248.68,1336.92 1250.75,1336.43 1252.82,1335.94 1254.89,1335.44 1256.95,1334.94 
  1259.02,1334.42 1261.09,1333.9 1263.16,1333.38 1265.22,1332.84 1267.29,1332.3 1269.36,1331.75 1271.43,1331.19 1273.5,1330.63 1275.56,1330.06 1277.63,1329.48 
  1279.7,1328.89 1281.77,1328.3 1283.83,1327.7 1285.9,1327.09 1287.97,1326.47 1290.04,1325.85 1292.1,1325.21 1294.17,1324.57 1296.24,1323.92 1298.31,1323.26 
  1300.38,1322.59 1302.44,1321.92 1304.51,1321.23 1306.58,1320.54 1308.65,1319.84 1310.71,1319.12 1312.78,1318.4 1314.85,1317.67 1316.92,1316.94 1318.98,1316.19 
  1321.05,1315.43 1323.12,1314.67 1325.19,1313.89 1327.25,1313.1 1329.32,1312.31 1331.39,1311.5 1333.46,1310.69 1335.53,1309.86 1337.59,1309.03 1339.66,1308.18 
  1341.73,1307.33 1343.8,1306.46 1345.86,1305.59 1347.93,1304.7 1350,1303.8 1352.07,1302.89 1354.13,1301.97 1356.2,1301.04 1358.27,1300.1 1360.34,1299.15 
  1362.41,1298.19 1364.47,1297.21 1366.54,1296.23 1368.61,1295.23 1370.68,1294.22 1372.74,1293.2 1374.81,1292.17 1376.88,1291.12 1378.95,1290.06 1381.01,1288.99 
  1383.08,1287.91 1385.15,1286.82 1387.22,1285.71 1389.28,1284.6 1391.35,1283.46 1393.42,1282.32 1395.49,1281.16 1397.56,1279.99 1399.62,1278.81 1401.69,1277.62 
  1403.76,1276.41 1405.83,1275.18 1407.89,1273.95 1409.96,1272.7 1412.03,1271.43 1414.1,1270.16 1416.16,1268.87 1418.23,1267.56 1420.3,1266.24 1422.37,1264.91 
  1424.44,1263.56 1426.5,1262.2 1428.57,1260.82 1430.64,1259.43 1432.71,1258.02 1434.77,1256.6 1436.84,1255.17 1438.91,1253.71 1440.98,1252.25 1443.04,1250.77 
  1445.11,1249.27 1447.18,1247.76 1449.25,1246.23 1451.31,1244.68 1453.38,1243.12 1455.45,1241.55 1457.52,1239.95 1459.59,1238.35 1461.65,1236.72 1463.72,1235.08 
  1465.79,1233.42 1467.86,1231.75 1469.92,1230.06 1471.99,1228.35 1474.06,1226.62 1476.13,1224.88 1478.19,1223.12 1480.26,1221.34 1482.33,1219.55 1484.4,1217.74 
  1486.47,1215.91 1488.53,1214.06 1490.6,1212.2 1492.67,1210.31 1494.74,1208.41 1496.8,1206.49 1498.87,1204.56 1500.94,1202.6 1503.01,1200.62 1505.07,1198.63 
  1507.14,1196.62 1509.21,1194.59 1511.28,1192.54 1513.34,1190.47 1515.41,1188.38 1517.48,1186.27 1519.55,1184.15 1521.62,1182 1523.68,1179.83 1525.75,1177.65 
  1527.82,1175.44 1529.89,1173.22 1531.95,1170.97 1534.02,1168.71 1536.09,1166.42 1538.16,1164.11 1540.22,1161.79 1542.29,1159.44 1544.36,1157.07 1546.43,1154.68 
  1548.5,1152.28 1550.56,1149.84 1552.63,1147.39 1554.7,1144.92 1556.77,1142.43 1558.83,1139.91 1560.9,1137.38 1562.97,1134.82 1565.04,1132.24 1567.1,1129.64 
  1569.17,1127.01 1571.24,1124.37 1573.31,1121.7 1575.37,1119.01 1577.44,1116.3 1579.51,1113.57 1581.58,1110.81 1583.65,1108.03 1585.71,1105.23 1587.78,1102.41 
  1589.85,1099.56 1591.92,1096.7 1593.98,1093.8 1596.05,1090.89 1598.12,1087.95 1600.19,1084.99 1602.25,1082.01 1604.32,1079 1606.39,1075.97 1608.46,1072.92 
  1610.53,1069.84 1612.59,1066.74 1614.66,1063.62 1616.73,1060.47 1618.8,1057.3 1620.86,1054.11 1622.93,1050.89 1625,1047.65 1627.07,1044.38 1629.13,1041.09 
  1631.2,1037.78 1633.27,1034.44 1635.34,1031.08 1637.41,1027.69 1639.47,1024.28 1641.54,1020.85 1643.61,1017.39 1645.68,1013.91 1647.74,1010.4 1649.81,1006.87 
  1651.88,1003.31 1653.95,999.735 1656.01,996.131 1658.08,992.502 1660.15,988.849 1662.22,985.171 1664.28,981.469 1666.35,977.742 1668.42,973.991 1670.49,970.216 
  
  "/>
<polyline clip-path="url(#clip302)" style="stroke:#ff7e00; stroke-width:16; stroke-opacity:1; fill:none" points="
  225.188,1366.71 227.256,1366.71 229.323,1366.71 231.391,1366.71 233.459,1366.71 235.526,1366.71 237.594,1366.71 239.662,1366.71 241.729,1366.71 243.797,1366.71 
  245.865,1366.71 247.932,1366.71 250,1366.71 252.068,1366.71 254.135,1366.71 256.203,1366.71 258.271,1366.71 260.338,1366.71 262.406,1366.71 264.474,1366.71 
  266.541,1366.71 268.609,1366.71 270.677,1366.71 272.745,1366.71 274.812,1366.71 276.88,1366.71 278.948,1366.71 281.015,1366.71 283.083,1366.71 285.151,1366.71 
  287.218,1366.71 289.286,1366.71 291.354,1366.71 293.421,1366.71 295.489,1366.71 297.557,1366.71 299.624,1366.71 301.692,1366.71 303.76,1366.71 305.827,1366.71 
  307.895,1366.71 309.963,1366.71 312.03,1366.71 314.098,1366.71 316.166,1366.71 318.233,1366.71 320.301,1366.71 322.369,1366.71 324.436,1366.71 326.504,1366.71 
  328.572,1366.71 330.639,1366.71 332.707,1366.71 334.775,1366.71 336.842,1366.71 338.91,1366.71 340.978,1366.71 343.045,1366.71 345.113,1366.71 347.181,1366.71 
  349.248,1366.71 351.316,1366.71 353.384,1366.71 355.451,1366.71 357.519,1366.71 359.587,1366.71 361.654,1366.71 363.722,1366.71 365.79,1366.71 367.857,1366.71 
  369.925,1366.71 371.993,1366.71 374.06,1366.71 376.128,1366.71 378.196,1366.71 380.263,1366.71 382.331,1366.71 384.399,1366.71 386.466,1366.71 388.534,1366.71 
  390.602,1366.71 392.669,1366.71 394.737,1366.71 396.805,1366.71 398.872,1366.71 400.94,1366.71 403.008,1366.71 405.075,1366.71 407.143,1366.71 409.211,1366.71 
  411.278,1366.71 413.346,1366.71 415.414,1366.71 417.481,1366.71 419.549,1366.71 421.617,1366.71 423.684,1366.71 425.752,1366.71 427.82,1366.71 429.887,1366.71 
  431.955,1366.71 434.023,1366.71 436.09,1366.71 438.158,1366.71 440.226,1366.71 442.293,1366.71 444.361,1366.71 446.429,1366.71 448.496,1366.71 450.564,1366.71 
  452.632,1366.71 454.699,1366.71 456.767,1366.71 458.835,1366.71 460.902,1366.71 462.97,1366.71 465.038,1366.71 467.105,1366.71 469.173,1366.71 471.241,1366.71 
  473.308,1366.71 475.376,1366.71 477.444,1366.71 479.511,1366.71 481.579,1366.71 483.647,1366.71 485.714,1366.71 487.782,1366.71 489.85,1366.71 491.917,1366.71 
  493.985,1366.71 496.053,1366.71 498.12,1366.71 500.188,1366.71 502.256,1366.71 504.323,1366.71 506.391,1366.71 508.459,1366.71 510.526,1366.71 512.594,1366.71 
  514.662,1366.71 516.729,1366.71 518.797,1366.71 520.865,1366.71 522.932,1366.71 525,1366.71 527.068,1366.71 529.135,1366.71 531.203,1366.71 533.271,1366.71 
  535.338,1366.71 537.406,1366.71 539.474,1366.71 541.541,1366.71 543.609,1366.71 545.677,1366.71 547.744,1366.71 549.812,1366.71 551.88,1366.71 553.947,1366.71 
  556.015,1366.71 558.083,1366.71 560.15,1366.71 562.218,1366.71 564.286,1366.71 566.353,1366.71 568.421,1366.71 570.489,1366.71 572.556,1366.71 574.624,1366.71 
  576.692,1366.71 578.759,1366.71 580.827,1366.71 582.895,1366.71 584.962,1366.71 587.03,1366.71 589.098,1366.71 591.165,1366.71 593.233,1366.71 595.301,1366.71 
  597.368,1366.71 599.436,1366.71 601.504,1366.71 603.571,1366.71 605.639,1366.71 607.707,1366.71 609.774,1366.71 611.842,1366.71 613.91,1366.71 615.977,1366.71 
  618.045,1366.7 620.113,1366.7 622.18,1366.7 624.248,1366.7 626.316,1366.7 628.383,1366.7 630.451,1366.7 632.519,1366.7 634.586,1366.7 636.654,1366.7 
  638.722,1366.7 640.789,1366.7 642.857,1366.7 644.925,1366.7 646.992,1366.7 649.06,1366.7 651.128,1366.7 653.195,1366.69 655.263,1366.69 657.331,1366.69 
  659.398,1366.69 661.466,1366.69 663.534,1366.69 665.601,1366.69 667.669,1366.69 669.737,1366.69 671.804,1366.69 673.872,1366.69 675.94,1366.68 678.007,1366.68 
  680.075,1366.68 682.143,1366.68 684.21,1366.68 686.278,1366.68 688.346,1366.68 690.413,1366.68 692.481,1366.67 694.549,1366.67 696.616,1366.67 698.684,1366.67 
  700.752,1366.67 702.819,1366.67 704.887,1366.66 706.955,1366.66 709.022,1366.66 711.09,1366.66 713.158,1366.66 715.225,1366.65 717.293,1366.65 719.361,1366.65 
  721.428,1366.65 723.496,1366.64 725.564,1366.64 727.631,1366.64 729.699,1366.64 731.767,1366.63 733.834,1366.63 735.902,1366.63 737.97,1366.63 740.037,1366.62 
  742.105,1366.62 744.173,1366.62 746.24,1366.61 748.308,1366.61 750.376,1366.6 752.443,1366.6 754.511,1366.6 756.579,1366.59 758.646,1366.59 760.714,1366.58 
  762.782,1366.58 764.849,1366.58 766.917,1366.57 768.985,1366.57 771.052,1366.56 773.12,1366.56 775.188,1366.55 777.255,1366.55 779.323,1366.54 781.391,1366.54 
  783.458,1366.53 785.526,1366.52 787.594,1366.52 789.661,1366.51 791.729,1366.5 793.797,1366.5 795.864,1366.49 797.932,1366.48 800,1366.48 802.067,1366.47 
  804.135,1366.46 806.203,1366.45 808.27,1366.45 810.338,1366.44 812.406,1366.43 814.473,1366.42 816.541,1366.41 818.609,1366.4 820.676,1366.39 822.744,1366.38 
  824.812,1366.37 826.879,1366.36 828.947,1366.35 831.015,1366.34 833.082,1366.33 835.15,1366.32 837.218,1366.31 839.285,1366.3 841.353,1366.28 843.421,1366.27 
  845.488,1366.26 847.556,1366.24 849.624,1366.23 851.691,1366.22 853.759,1366.2 855.827,1366.19 857.894,1366.17 859.962,1366.16 862.03,1366.14 864.097,1366.13 
  866.165,1366.11 868.233,1366.09 870.3,1366.08 872.368,1366.06 874.436,1366.04 876.503,1366.02 878.571,1366 880.639,1365.98 882.706,1365.96 884.774,1365.94 
  886.842,1365.92 888.909,1365.9 890.977,1365.88 893.045,1365.86 895.112,1365.83 897.18,1365.81 899.248,1365.79 901.315,1365.76 903.383,1365.74 905.451,1365.71 
  907.518,1365.69 909.586,1365.66 911.654,1365.63 913.721,1365.6 915.789,1365.57 917.857,1365.54 919.924,1365.51 921.992,1365.48 924.06,1365.45 926.127,1365.42 
  928.195,1365.39 930.263,1365.35 932.33,1365.32 934.398,1365.29 936.466,1365.25 938.533,1365.21 940.601,1365.18 942.669,1365.14 944.736,1365.1 946.804,1365.06 
  948.872,1365.02 950.939,1364.98 953.007,1364.94 955.075,1364.89 957.142,1364.85 959.21,1364.8 961.278,1364.76 963.345,1364.71 965.413,1364.66 967.481,1364.61 
  969.548,1364.56 971.616,1364.51 973.684,1364.46 975.751,1364.41 977.819,1364.35 979.887,1364.3 981.954,1364.24 984.022,1364.19 986.09,1364.13 988.157,1364.07 
  990.225,1364.01 992.293,1363.94 994.36,1363.88 996.428,1363.82 998.496,1363.75 1000.56,1363.68 1002.63,1363.61 1004.7,1363.54 1006.77,1363.47 1008.83,1363.4 
  1010.9,1363.33 1012.97,1363.25 1015.04,1363.17 1017.1,1363.1 1019.17,1363.02 1021.24,1362.93 1023.31,1362.85 1025.38,1362.77 1027.44,1362.68 1029.51,1362.59 
  1031.58,1362.5 1033.65,1362.41 1035.71,1362.32 1037.78,1362.22 1039.85,1362.13 1041.92,1362.03 1043.98,1361.93 1046.05,1361.83 1048.12,1361.73 1050.19,1361.62 
  1052.26,1361.51 1054.32,1361.4 1056.39,1361.29 1058.46,1361.18 1060.53,1361.06 1062.59,1360.95 1064.66,1360.83 1066.73,1360.7 1068.8,1360.58 1070.86,1360.45 
  1072.93,1360.33 1075,1360.2 1077.07,1360.06 1079.13,1359.93 1081.2,1359.79 1083.27,1359.65 1085.34,1359.51 1087.41,1359.36 1089.47,1359.22 1091.54,1359.07 
  1093.61,1358.91 1095.68,1358.76 1097.74,1358.6 1099.81,1358.44 1101.88,1358.28 1103.95,1358.11 1106.01,1357.94 1108.08,1357.77 1110.15,1357.6 1112.22,1357.42 
  1114.29,1357.24 1116.35,1357.06 1118.42,1356.87 1120.49,1356.68 1122.56,1356.49 1124.62,1356.29 1126.69,1356.1 1128.76,1355.89 1130.83,1355.69 1132.89,1355.48 
  1134.96,1355.27 1137.03,1355.05 1139.1,1354.83 1141.16,1354.61 1143.23,1354.39 1145.3,1354.16 1147.37,1353.92 1149.44,1353.69 1151.5,1353.44 1153.57,1353.2 
  1155.64,1352.95 1157.71,1352.7 1159.77,1352.44 1161.84,1352.18 1163.91,1351.92 1165.98,1351.65 1168.04,1351.38 1170.11,1351.1 1172.18,1350.82 1174.25,1350.54 
  1176.32,1350.25 1178.38,1349.95 1180.45,1349.65 1182.52,1349.35 1184.59,1349.04 1186.65,1348.73 1188.72,1348.42 1190.79,1348.09 1192.86,1347.77 1194.92,1347.44 
  1196.99,1347.1 1199.06,1346.76 1201.13,1346.41 1203.19,1346.06 1205.26,1345.71 1207.33,1345.34 1209.4,1344.98 1211.47,1344.61 1213.53,1344.23 1215.6,1343.84 
  1217.67,1343.46 1219.74,1343.06 1221.8,1342.66 1223.87,1342.26 1225.94,1341.85 1228.01,1341.43 1230.07,1341.01 1232.14,1340.58 1234.21,1340.14 1236.28,1339.7 
  1238.35,1339.25 1240.41,1338.8 1242.48,1338.34 1244.55,1337.87 1246.62,1337.4 1248.68,1336.92 1250.75,1336.43 1252.82,1335.94 1254.89,1335.44 1256.95,1334.94 
  1259.02,1334.42 1261.09,1333.9 1263.16,1333.38 1265.22,1332.84 1267.29,1332.3 1269.36,1331.75 1271.43,1331.19 1273.5,1330.63 1275.56,1330.06 1277.63,1329.48 
  1279.7,1328.89 1281.77,1328.3 1283.83,1327.7 1285.9,1327.09 1287.97,1326.47 1290.04,1325.85 1292.1,1325.21 1294.17,1324.57 1296.24,1323.92 1298.31,1323.26 
  1300.38,1322.59 1302.44,1321.92 1304.51,1321.23 1306.58,1320.54 1308.65,1319.84 1310.71,1319.12 1312.78,1318.4 1314.85,1317.67 1316.92,1316.94 1318.98,1316.19 
  1321.05,1315.43 1323.12,1314.67 1325.19,1313.89 1327.25,1313.1 1329.32,1312.31 1331.39,1311.5 1333.46,1310.69 1335.53,1309.86 1337.59,1309.03 1339.66,1308.18 
  1341.73,1307.33 1343.8,1306.46 1345.86,1305.59 1347.93,1304.7 1350,1303.8 1352.07,1302.89 1354.13,1301.97 1356.2,1301.04 1358.27,1300.1 1360.34,1299.15 
  1362.41,1298.19 1364.47,1297.21 1366.54,1296.23 1368.61,1295.23 1370.68,1294.22 1372.74,1293.2 1374.81,1292.17 1376.88,1291.12 1378.95,1290.06 1381.01,1288.99 
  1383.08,1287.91 1385.15,1286.82 1387.22,1285.71 1389.28,1284.6 1391.35,1283.46 1393.42,1282.32 1395.49,1281.16 1397.56,1279.99 1399.62,1278.81 1401.69,1277.62 
  1403.76,1276.41 1405.83,1275.18 1407.89,1273.95 1409.96,1272.7 1412.03,1271.43 1414.1,1270.16 1416.16,1268.87 1418.23,1267.56 1420.3,1266.24 1422.37,1264.91 
  1424.44,1263.56 1426.5,1262.2 1428.57,1260.82 1430.64,1259.43 1432.71,1258.02 1434.77,1256.6 1436.84,1255.17 1438.91,1253.71 1440.98,1252.25 1443.04,1250.77 
  1445.11,1249.27 1447.18,1247.76 1449.25,1246.23 1451.31,1244.68 1453.38,1243.12 1455.45,1241.55 1457.52,1239.95 1459.59,1238.35 1461.65,1236.72 1463.72,1235.08 
  1465.79,1233.42 1467.86,1231.75 1469.92,1230.06 1471.99,1228.35 1474.06,1226.62 1476.13,1224.88 1478.19,1223.12 1480.26,1221.34 1482.33,1219.55 1484.4,1217.74 
  1486.47,1215.91 1488.53,1214.06 1490.6,1212.2 1492.67,1210.31 1494.74,1208.41 1496.8,1206.49 1498.87,1204.56 1500.94,1202.6 1503.01,1200.62 1505.07,1198.63 
  1507.14,1196.62 1509.21,1194.59 1511.28,1192.54 1513.34,1190.47 1515.41,1188.38 1517.48,1186.27 1519.55,1184.15 1521.62,1182 1523.68,1179.83 1525.75,1177.65 
  1527.82,1175.44 1529.89,1173.22 1531.95,1170.97 1534.02,1168.71 1536.09,1166.42 1538.16,1164.11 1540.22,1161.79 1542.29,1159.44 1544.36,1157.07 1546.43,1154.68 
  1548.5,1152.28 1550.56,1149.84 1552.63,1147.39 1554.7,1144.92 1556.77,1142.43 1558.83,1139.91 1560.9,1137.38 1562.97,1134.82 1565.04,1132.24 1567.1,1129.64 
  1569.17,1127.01 1571.24,1124.37 1573.31,1121.7 1575.37,1119.01 1577.44,1116.3 1579.51,1113.57 1581.58,1110.81 1583.65,1108.03 1585.71,1105.23 1587.78,1102.41 
  1589.85,1099.56 1591.92,1096.7 1593.98,1093.8 1596.05,1090.89 1598.12,1087.95 1600.19,1084.99 1602.25,1082.01 1604.32,1079 1606.39,1075.97 1608.46,1072.92 
  1610.53,1069.84 1612.59,1066.74 1614.66,1063.62 1616.73,1060.47 1618.8,1057.3 1620.86,1054.11 1622.93,1050.89 1625,1047.65 1627.07,1044.38 1629.13,1041.09 
  1631.2,1037.78 1633.27,1034.44 1635.34,1031.08 1637.41,1027.69 1639.47,1024.28 1641.54,1020.85 1643.61,1017.39 1645.68,1013.91 1647.74,1010.4 1649.81,1006.87 
  1651.88,1003.31 1653.95,999.735 1656.01,996.131 1658.08,992.502 1660.15,988.849 1662.22,985.171 1664.28,981.469 1666.35,977.742 1668.42,973.991 1670.49,970.216 
  1672.56,966.416 1674.62,962.591 1676.69,958.742 1678.76,954.868 1680.83,950.97 1682.89,947.048 1684.96,943.1 1687.03,939.129 1689.1,935.133 1691.16,931.113 
  1693.23,927.068 1695.3,922.999 1697.37,918.905 1699.44,914.788 1701.5,910.646 1703.57,906.479 1705.64,902.289 1707.71,898.074 1709.77,893.836 1711.84,889.573 
  1713.91,885.287 1715.98,880.976 1718.04,876.642 1720.11,872.284 1722.18,867.903 1724.25,863.498 1726.31,859.069 1728.38,854.617 1730.45,850.141 1732.52,845.643 
  1734.59,841.121 1736.65,836.576 1738.72,832.009 1740.79,827.418 1742.86,822.805 1744.92,818.169 1746.99,813.511 1749.06,808.831 1751.13,804.128 1753.19,799.404 
  1755.26,794.658 1757.33,789.89 1759.4,785.1 1761.47,780.289 1763.53,775.457 1765.6,770.604 1767.67,765.73 1769.74,760.835 1771.8,755.92 1773.87,750.984 
  1775.94,746.029 1778.01,741.054 1780.07,736.059 1782.14,731.044 1784.21,726.01 1786.28,720.958 1788.34,715.886 1790.41,710.797 1792.48,705.689 1794.55,700.563 
  1796.62,695.419 1798.68,690.258 1800.75,685.079 1802.82,679.884 1804.89,674.673 1806.95,669.445 1809.02,664.201 1811.09,658.941 1813.16,653.666 1815.22,648.376 
  1817.29,643.071 1819.36,637.752 1821.43,632.419 1823.5,627.073 1825.56,621.713 1827.63,616.34 1829.7,610.955 1831.77,605.558 1833.83,600.149 1835.9,594.728 
  1837.97,589.297 1840.04,583.856 1842.1,578.404 1844.17,572.943 1846.24,567.472 1848.31,561.993 1850.37,556.506 1852.44,551.011 1854.51,545.509 1856.58,540 
  1858.65,534.485 1860.71,528.964 1862.78,523.438 1864.85,517.907 1866.92,512.372 1868.98,506.834 1871.05,501.293 1873.12,495.749 1875.19,490.203 1877.25,484.657 
  1879.32,479.109 1881.39,473.562 1883.46,468.015 1885.53,462.469 1887.59,456.926 1889.66,451.385 1891.73,445.847 1893.8,440.313 1895.86,434.784 1897.93,429.26 
  1900,423.743 1902.07,418.232 1904.13,412.728 1906.2,407.233 1908.27,401.747 1910.34,396.271 1912.4,390.806 1914.47,385.352 1916.54,379.91 1918.61,374.481 
  1920.68,369.067 1922.74,363.667 1924.81,358.283 1926.88,352.916 1928.95,347.566 1931.01,342.234 1933.08,336.922 1935.15,331.63 1937.22,326.36 1939.28,321.111 
  1941.35,315.886 1943.42,310.685 1945.49,305.51 1947.56,300.36 1949.62,295.238 1951.69,290.145 1953.76,285.081 1955.83,280.047 1957.89,275.045 1959.96,270.076 
  1962.03,265.141 1964.1,260.241 1966.16,255.377 1968.23,250.551 1970.3,245.764 1972.37,241.016 1974.43,236.31 1976.5,231.646 1978.57,227.026 1980.64,222.451 
  1982.71,217.922 1984.77,213.441 1986.84,209.009 1988.91,204.628 1990.98,200.298 1993.04,196.022 1995.11,191.8 1997.18,187.634 1999.25,183.526 2001.31,179.477 
  2003.38,175.489 2005.45,171.563 2007.52,167.7 2009.59,163.903 2011.65,160.172 2013.72,156.51 2015.79,152.918 2017.86,149.398 2019.92,145.952 2021.99,142.58 
  2024.06,139.285 2026.13,136.069 2028.19,132.933 2030.26,129.879 2032.33,126.91 2034.4,124.026 2036.46,121.229 2038.53,118.523 2040.6,115.907 2042.67,113.385 
  2044.74,110.959 2046.8,108.629 2048.87,106.399 2050.94,104.271 2053.01,102.245 2055.07,100.325 2057.14,98.5132 2059.21,96.8105 2061.28,95.2197 2063.34,93.743 
  2065.41,92.3825 2067.48,91.1404 2069.55,90.0191 2071.62,89.0208 2073.68,88.1478 2075.75,87.4025 2077.82,86.7873 2079.89,86.3045 2081.95,85.9566 2084.02,85.746 
  2086.09,85.6752 2088.16,85.7468 2090.22,85.9633 2092.29,86.3272 2094.36,86.8412 2096.43,87.5079 2098.49,88.33 2100.56,89.3102 2102.63,90.4511 2104.7,91.7556 
  2106.77,93.2264 2108.83,94.8664 2110.9,96.6784 2112.97,98.6653 2115.04,100.83 2117.1,103.176 2119.17,105.705 2121.24,108.421 2123.31,111.327 2125.37,114.426 
  2127.44,117.721 2129.51,121.215 2131.58,124.911 2133.65,128.814 2135.71,132.925 2137.78,137.248 2139.85,141.787 2141.92,146.544 2143.98,151.525 2146.05,156.73 
  2148.12,162.166 2150.19,167.833 2152.25,173.738 2154.32,179.882 2156.39,186.27 2158.46,192.905 2160.52,199.791 2162.59,206.931 2164.66,214.331 2166.73,221.992 
  2168.8,229.92 2170.86,238.118 2172.93,246.591 2175,255.341 2177.07,264.374 2179.13,273.693 2181.2,283.302 2183.27,293.206 2185.34,303.408 2187.4,313.914 
  2189.47,324.727 2191.54,335.852 2193.61,347.293 2195.68,359.055 2197.74,371.141 2199.81,383.558 2201.88,396.308 2203.95,409.397 2206.01,422.83 2208.08,436.611 
  2210.15,450.745 2212.22,465.237 2214.28,480.091 2216.35,495.313 2218.42,510.907 2220.49,526.88 2222.55,543.234 2224.62,559.977 2226.69,577.112 2228.76,594.646 
  2230.83,612.583 2232.89,630.929 2234.96,649.689 2237.03,668.869 2239.1,688.473 2241.16,708.509 2243.23,728.98 2245.3,749.893 2247.37,771.254 2249.43,793.069 
  2251.5,815.342 2253.57,838.08 2255.64,861.29 2257.71,884.976 2259.77,909.146 2261.84,933.804 2263.91,958.958 2265.98,984.613 2268.04,1010.78 2270.11,1037.45 
  2272.18,1064.65 2274.25,1092.38 2276.31,1120.63 2278.38,1149.43 2280.45,1178.78 2282.52,1208.68 2284.58,1239.14 2286.65,1270.16 2288.72,1301.76 2290.79,1333.94 
  
  "/>
<polyline clip-path="url(#clip302)" style="stroke:#000000; stroke-width:8; stroke-opacity:1; fill:none" points="
  1052.26,1020.83 1465.79,1277.04 
  "/>
<polyline clip-path="url(#clip302)" style="stroke:#000000; stroke-width:8; stroke-opacity:1; fill:none" points="
  1444.67,1242.78 1465.79,1277.04 1425.71,1273.38 
  "/>
<polyline clip-path="url(#clip302)" style="stroke:#000000; stroke-width:8; stroke-opacity:1; fill:none" points="
  1465.79,1277.04 1052.26,1020.83 
  "/>
<path clip-path="url(#clip300)" d="M 0 0 M485.846 868.172 Q485.846 870.69 484.324 872.037 Q482.802 873.325 480.811 873.325 Q478.878 873.325 477.356 872.037 Q475.892 870.69 475.892 868.289 Q475.892 866.649 476.946 865.185 Q478 863.663 480.342 863.37 Q477.414 860.852 472.788 860.852 Q470.505 860.852 468.924 861.731 Q467.401 862.55 465.879 865.068 Q464.356 867.586 463.302 872.739 Q462.307 877.892 461.663 885.914 L459.379 915.778 Q458.676 925.908 456.158 945.817 Q453.699 965.668 452.528 970.235 Q451.474 974.568 449.893 978.14 Q448.312 981.712 445.97 984.816 Q443.627 987.978 440.231 989.734 Q436.835 991.491 432.736 991.491 Q427.29 991.491 423.426 988.622 Q419.561 985.811 419.561 981.536 Q419.561 979.019 421.083 977.672 Q422.606 976.384 424.597 976.384 Q426.529 976.384 427.993 977.672 Q429.515 979.019 429.515 981.419 Q429.515 983.059 428.461 984.523 Q427.407 986.045 425.065 986.338 Q427.993 988.856 432.736 988.856 Q436.367 988.856 438.767 986.748 Q441.168 984.64 442.925 979.019 Q444.681 973.397 445.443 963.794 L447.726 933.93 Q448.488 923.39 450.947 903.774 Q453.465 884.158 454.577 879.005 Q459.262 858.217 472.671 858.217 Q478.117 858.217 481.982 861.087 Q485.846 863.897 485.846 868.172 Z" fill="#000000" fill-rule="evenodd" fill-opacity="1" /><path clip-path="url(#clip300)" d="M 0 0 M428.239 1047.58 Q428.239 1035.24 431.354 1028.52 Q435.699 1018.52 445.947 1018.52 Q448.119 1018.52 450.373 1019.13 Q452.669 1019.71 455.538 1021.96 Q458.448 1024.21 460.211 1027.9 Q463.572 1035.04 463.572 1047.58 Q463.572 1059.83 460.457 1066.52 Q455.907 1076.27 445.865 1076.27 Q442.094 1076.27 438.241 1074.34 Q434.429 1072.42 432.01 1067.79 Q428.239 1060.86 428.239 1047.58 M435.207 1046.55 Q435.207 1059.22 436.109 1064.26 Q437.134 1069.71 439.921 1072.09 Q442.749 1074.43 445.865 1074.43 Q449.226 1074.43 452.013 1071.93 Q454.841 1069.38 455.702 1063.93 Q456.645 1058.56 456.604 1046.55 Q456.604 1034.87 455.784 1030.2 Q454.677 1024.75 451.726 1022.57 Q448.816 1020.36 445.865 1020.36 Q444.758 1020.36 443.569 1020.69 Q442.421 1021.02 440.741 1021.96 Q439.06 1022.9 437.749 1025.24 Q436.478 1027.58 435.863 1031.1 Q435.207 1035.65 435.207 1046.55 Z" fill="#000000" fill-rule="evenodd" fill-opacity="1" /><path clip-path="url(#clip300)" d="M 0 0 M392.618 789.894 Q392.618 777.557 395.733 770.834 Q400.078 760.833 410.326 760.833 Q412.498 760.833 414.753 761.448 Q417.048 762.022 419.917 764.276 Q422.827 766.53 424.59 770.22 Q427.951 777.352 427.951 789.894 Q427.951 802.15 424.836 808.831 Q420.286 818.587 410.244 818.587 Q406.473 818.587 402.62 816.66 Q398.808 814.734 396.389 810.102 Q392.618 803.175 392.618 789.894 M399.586 788.87 Q399.586 801.535 400.488 806.577 Q401.513 812.029 404.3 814.406 Q407.129 816.742 410.244 816.742 Q413.605 816.742 416.392 814.242 Q419.22 811.701 420.081 806.249 Q421.024 800.879 420.983 788.87 Q420.983 777.188 420.163 772.515 Q419.056 767.063 416.105 764.891 Q413.195 762.677 410.244 762.677 Q409.137 762.677 407.948 763.005 Q406.801 763.333 405.12 764.276 Q403.439 765.219 402.128 767.555 Q400.857 769.892 400.242 773.417 Q399.586 777.966 399.586 788.87 Z" fill="#000000" fill-rule="evenodd" fill-opacity="1" /><path clip-path="url(#clip300)" d="M 0 0 M435.451 815.39 Q434.181 814.037 434.181 812.275 Q434.181 810.512 435.451 809.241 Q436.722 807.93 438.649 807.93 Q440.493 807.93 441.723 809.159 Q442.994 810.348 442.994 812.316 Q442.994 814.242 441.641 815.513 Q440.329 816.742 438.649 816.742 Q436.722 816.742 435.451 815.39 Z" fill="#000000" fill-rule="evenodd" fill-opacity="1" /><path clip-path="url(#clip300)" d="M 0 0 M457.276 777.27 L460.022 760.013 L462.112 760.013 Q462.358 761.038 462.768 761.489 Q463.219 761.94 465.596 762.309 Q468.015 762.677 472.893 762.677 L493.264 762.677 Q493.264 764.604 492.526 765.629 L481.172 781.574 Q477.565 786.615 475.967 795.92 Q475.024 802.15 475.065 809.692 L475.065 813.955 Q475.065 818.587 471.171 818.587 Q467.318 818.587 467.318 813.955 Q467.318 797.928 477.647 782.393 Q478.754 780.795 482.812 775.097 Q486.911 769.4 487.075 769.154 L469.695 769.154 Q462.071 769.154 461.457 769.646 Q460.637 770.383 459.366 777.27 L457.276 777.27 Z" fill="#000000" fill-rule="evenodd" fill-opacity="1" /><path clip-path="url(#clip300)" d="M 0 0 M574.293 920.931 Q574.293 929.48 569.96 937.737 Q565.685 945.993 558.951 951.087 Q552.217 956.123 545.366 956.123 Q541.267 956.123 538.515 953.898 Q535.822 951.614 534.358 948.394 Q533.245 952.376 530.845 961.92 Q528.444 971.465 528.444 972.402 Q528.444 972.929 528.561 973.163 Q528.678 973.397 529.205 973.69 Q529.732 974.041 531.02 974.158 Q532.308 974.334 534.475 974.334 Q535.588 974.334 535.997 974.334 Q536.466 974.393 536.876 974.685 Q537.344 974.978 537.344 975.622 Q537.344 978.023 535.178 978.023 Q533.245 978.023 529.263 977.847 Q525.282 977.672 523.291 977.672 Q521.593 977.672 518.196 977.847 Q514.8 978.023 513.219 978.023 Q511.638 978.023 511.638 976.618 Q511.638 975.798 511.872 975.271 Q512.048 974.803 512.516 974.568 Q512.985 974.393 513.395 974.334 Q513.746 974.334 514.449 974.334 Q517.142 974.334 518.313 973.866 Q519.485 973.456 519.895 972.577 Q520.363 971.758 520.89 969.415 L534.358 916.012 Q535.178 912.44 535.178 909.922 Q535.178 906.76 534.182 905.589 Q533.187 904.418 531.43 904.418 Q528.385 904.418 526.394 908.049 Q524.403 911.679 522.705 918.706 Q522.178 920.638 521.827 921.048 Q521.534 921.458 520.656 921.458 Q519.192 921.399 519.192 920.228 Q519.192 919.935 519.66 918.062 Q520.129 916.129 521.007 913.319 Q521.944 910.449 522.939 908.634 Q523.525 907.404 524.052 906.585 Q524.579 905.765 525.633 904.477 Q526.746 903.188 528.327 902.486 Q529.908 901.783 531.84 901.783 Q535.588 901.783 538.691 904.008 Q541.794 906.233 542.614 910.742 Q545.952 906.819 550.051 904.301 Q554.15 901.783 558.307 901.783 Q565.217 901.783 569.726 907.17 Q574.293 912.499 574.293 920.931 M565.627 915.661 Q565.627 910.332 563.577 907.404 Q561.586 904.418 557.956 904.418 Q553.447 904.418 548.236 908.985 Q543.083 913.319 542.029 917.359 L536.115 940.84 L535.763 942.772 Q535.763 943.124 535.939 944.178 Q536.173 945.173 536.817 946.813 Q537.52 948.452 538.457 949.916 Q539.452 951.322 541.209 952.376 Q543.024 953.43 545.249 953.43 Q548.821 953.43 552.686 950.268 Q556.609 947.105 559.537 941.133 Q561.352 937.268 563.46 928.953 Q565.627 920.58 565.627 915.661 Z" fill="#000000" fill-rule="evenodd" fill-opacity="1" /><path clip-path="url(#clip300)" d="M 0 0 M603.044 924.796 Q603.044 904.535 610.597 888.198 Q613.818 881.347 618.327 875.608 Q622.836 869.87 625.822 867.352 Q628.808 864.834 629.628 864.834 Q630.799 864.834 630.858 866.005 Q630.858 866.591 629.277 868.055 Q609.953 887.73 610.012 924.796 Q610.012 961.979 628.808 980.892 Q630.858 982.942 630.858 983.586 Q630.858 984.757 629.628 984.757 Q628.808 984.757 625.939 982.356 Q623.07 979.955 618.62 974.451 Q614.169 968.947 610.949 962.213 Q603.044 945.876 603.044 924.796 Z" fill="#000000" fill-rule="evenodd" fill-opacity="1" /><path clip-path="url(#clip300)" d="M 0 0 M708.81 909.688 Q708.81 912.967 706.76 914.841 Q704.711 916.656 702.369 916.656 Q700.143 916.656 698.972 915.368 Q697.801 914.08 697.801 912.44 Q697.801 910.215 699.441 908.283 Q701.08 906.35 703.54 905.941 Q701.139 904.418 697.567 904.418 Q695.225 904.418 693.175 905.648 Q691.184 906.877 689.955 908.458 Q688.784 910.039 687.73 912.323 Q686.734 914.548 686.324 915.895 Q685.973 917.183 685.68 918.589 L681.581 934.984 Q679.59 942.772 679.59 945.524 Q679.59 948.921 681.23 951.204 Q682.869 953.43 686.149 953.43 Q687.437 953.43 688.901 953.078 Q690.365 952.668 692.238 951.614 Q694.171 950.502 695.869 948.862 Q697.626 947.164 699.324 944.295 Q701.022 941.426 702.134 937.737 Q702.486 936.448 703.657 936.448 Q705.121 936.448 705.121 937.619 Q705.121 938.615 704.301 940.723 Q703.54 942.772 701.842 945.466 Q700.202 948.101 698.035 950.502 Q695.869 952.844 692.648 954.484 Q689.428 956.123 685.914 956.123 Q680.879 956.123 677.541 953.43 Q674.203 950.736 672.973 946.988 Q672.681 947.515 672.271 948.218 Q671.861 948.921 670.631 950.502 Q669.46 952.024 668.113 953.195 Q666.767 954.308 664.658 955.186 Q662.609 956.123 660.384 956.123 Q657.573 956.123 655.055 955.303 Q652.596 954.484 650.839 952.61 Q649.083 950.736 649.083 948.159 Q649.083 945.29 651.015 943.299 Q653.006 941.25 655.699 941.25 Q657.398 941.25 658.744 942.245 Q660.15 943.241 660.15 945.407 Q660.15 947.808 658.51 949.623 Q656.871 951.439 654.528 951.907 Q656.929 953.43 660.501 953.43 Q664.366 953.43 667.411 950.033 Q670.456 946.637 671.919 940.957 Q675.55 927.314 676.955 921.224 Q678.361 915.075 678.361 912.44 Q678.361 909.981 677.717 908.283 Q677.072 906.585 675.96 905.823 Q674.906 905.004 673.91 904.711 Q672.973 904.418 671.919 904.418 Q670.163 904.418 668.172 905.121 Q666.24 905.823 663.897 907.463 Q661.614 909.044 659.447 912.323 Q657.28 915.602 655.817 920.111 Q655.524 921.458 654.236 921.458 Q652.83 921.399 652.83 920.228 Q652.83 919.233 653.591 917.183 Q654.411 915.075 656.051 912.44 Q657.749 909.805 659.915 907.463 Q662.141 905.062 665.361 903.423 Q668.64 901.783 672.154 901.783 Q673.735 901.783 675.257 902.134 Q676.838 902.427 678.712 903.306 Q680.644 904.184 682.342 906.116 Q684.041 908.049 685.095 910.859 Q685.797 909.512 686.734 908.224 Q687.73 906.936 689.252 905.355 Q690.833 903.715 693 902.779 Q695.225 901.783 697.684 901.783 Q700.085 901.783 702.427 902.427 Q704.769 903.013 706.76 904.945 Q708.81 906.819 708.81 909.688 Z" fill="#000000" fill-rule="evenodd" fill-opacity="1" /><path clip-path="url(#clip300)" d="M 0 0 M721.023 941.489 L721.023 938.865 Q731.107 938.865 736.312 933.496 Q737.747 933.496 737.993 933.824 Q738.239 934.152 738.239 935.668 L738.239 982.765 Q738.239 985.265 739.468 986.044 Q740.698 986.823 746.068 986.823 L748.732 986.823 L748.732 989.405 Q745.781 989.159 735.124 989.159 Q724.466 989.159 721.556 989.405 L721.556 986.823 L724.22 986.823 Q729.508 986.823 730.779 986.085 Q732.049 985.306 732.049 982.765 L732.049 939.275 Q727.663 941.489 721.023 941.489 Z" fill="#000000" fill-rule="evenodd" fill-opacity="1" /><path clip-path="url(#clip300)" d="M 0 0 M762.953 952.844 Q761.254 950.912 761.254 948.394 Q761.254 945.876 762.894 944.002 Q764.592 942.07 767.637 942.07 Q771.209 942.07 773.258 945.524 Q775.308 948.921 775.308 954.659 Q775.308 960.866 772.79 966.605 Q770.272 972.402 767.813 975.154 Q765.353 977.906 764.358 977.906 Q763.187 977.906 763.187 976.618 Q763.187 976.149 764.007 975.271 Q772.614 966.019 772.673 954.659 Q772.673 952.844 772.439 952.844 L772.146 953.078 Q770.096 954.776 767.637 954.776 Q764.651 954.776 762.953 952.844 Z" fill="#000000" fill-rule="evenodd" fill-opacity="1" /><path clip-path="url(#clip300)" d="M 0 0 M814.956 952.844 Q813.141 950.912 813.141 948.394 Q813.141 945.876 814.956 944.061 Q816.771 942.187 819.523 942.187 Q822.159 942.187 823.915 943.943 Q825.73 945.642 825.73 948.452 Q825.73 951.204 823.798 953.02 Q821.924 954.776 819.523 954.776 Q816.771 954.776 814.956 952.844 M848.275 952.844 Q846.459 950.912 846.459 948.394 Q846.459 945.876 848.275 944.061 Q850.09 942.187 852.842 942.187 Q855.477 942.187 857.234 943.943 Q859.049 945.642 859.049 948.452 Q859.049 951.204 857.117 953.02 Q855.243 954.776 852.842 954.776 Q850.09 954.776 848.275 952.844 M881.652 952.844 Q879.836 950.912 879.836 948.394 Q879.836 945.876 881.652 944.061 Q883.467 942.187 886.219 942.187 Q888.854 942.187 890.611 943.943 Q892.426 945.642 892.426 948.452 Q892.426 951.204 890.493 953.02 Q888.62 954.776 886.219 954.776 Q883.467 954.776 881.652 952.844 Z" fill="#000000" fill-rule="evenodd" fill-opacity="1" /><path clip-path="url(#clip300)" d="M 0 0 M913.875 952.844 Q912.177 950.912 912.177 948.394 Q912.177 945.876 913.816 944.002 Q915.514 942.07 918.559 942.07 Q922.131 942.07 924.181 945.524 Q926.23 948.921 926.23 954.659 Q926.23 960.866 923.712 966.605 Q921.194 972.402 918.735 975.154 Q916.275 977.906 915.28 977.906 Q914.109 977.906 914.109 976.618 Q914.109 976.149 914.929 975.271 Q923.536 966.019 923.595 954.659 Q923.595 952.844 923.361 952.844 L923.068 953.078 Q921.018 954.776 918.559 954.776 Q915.573 954.776 913.875 952.844 Z" fill="#000000" fill-rule="evenodd" fill-opacity="1" /><path clip-path="url(#clip300)" d="M 0 0 M1023.79 909.688 Q1023.79 912.967 1021.74 914.841 Q1019.69 916.656 1017.35 916.656 Q1015.12 916.656 1013.95 915.368 Q1012.78 914.08 1012.78 912.44 Q1012.78 910.215 1014.42 908.283 Q1016.06 906.35 1018.52 905.941 Q1016.12 904.418 1012.55 904.418 Q1010.21 904.418 1008.16 905.648 Q1006.16 906.877 1004.94 908.458 Q1003.76 910.039 1002.71 912.323 Q1001.71 914.548 1001.3 915.895 Q1000.95 917.183 1000.66 918.589 L996.562 934.984 Q994.571 942.772 994.571 945.524 Q994.571 948.921 996.21 951.204 Q997.85 953.43 1001.13 953.43 Q1002.42 953.43 1003.88 953.078 Q1005.34 952.668 1007.22 951.614 Q1009.15 950.502 1010.85 948.862 Q1012.61 947.164 1014.3 944.295 Q1016 941.426 1017.11 937.737 Q1017.47 936.448 1018.64 936.448 Q1020.1 936.448 1020.1 937.619 Q1020.1 938.615 1019.28 940.723 Q1018.52 942.772 1016.82 945.466 Q1015.18 948.101 1013.02 950.502 Q1010.85 952.844 1007.63 954.484 Q1004.41 956.123 1000.89 956.123 Q995.859 956.123 992.521 953.43 Q989.184 950.736 987.954 946.988 Q987.661 947.515 987.251 948.218 Q986.841 948.921 985.612 950.502 Q984.44 952.024 983.094 953.195 Q981.747 954.308 979.639 955.186 Q977.589 956.123 975.364 956.123 Q972.554 956.123 970.036 955.303 Q967.576 954.484 965.82 952.61 Q964.063 950.736 964.063 948.159 Q964.063 945.29 965.995 943.299 Q967.986 941.25 970.68 941.25 Q972.378 941.25 973.725 942.245 Q975.13 943.241 975.13 945.407 Q975.13 947.808 973.49 949.623 Q971.851 951.439 969.509 951.907 Q971.909 953.43 975.481 953.43 Q979.346 953.43 982.391 950.033 Q985.436 946.637 986.9 940.957 Q990.53 927.314 991.936 921.224 Q993.341 915.075 993.341 912.44 Q993.341 909.981 992.697 908.283 Q992.053 906.585 990.94 905.823 Q989.886 905.004 988.891 904.711 Q987.954 904.418 986.9 904.418 Q985.143 904.418 983.152 905.121 Q981.22 905.823 978.878 907.463 Q976.594 909.044 974.427 912.323 Q972.261 915.602 970.797 920.111 Q970.504 921.458 969.216 921.458 Q967.811 921.399 967.811 920.228 Q967.811 919.233 968.572 917.183 Q969.392 915.075 971.031 912.44 Q972.729 909.805 974.896 907.463 Q977.121 905.062 980.342 903.423 Q983.621 901.783 987.134 901.783 Q988.715 901.783 990.238 902.134 Q991.819 902.427 993.692 903.306 Q995.625 904.184 997.323 906.116 Q999.021 908.049 1000.07 910.859 Q1000.78 909.512 1001.71 908.224 Q1002.71 906.936 1004.23 905.355 Q1005.81 903.715 1007.98 902.779 Q1010.21 901.783 1012.66 901.783 Q1015.07 901.783 1017.41 902.427 Q1019.75 903.013 1021.74 904.945 Q1023.79 906.819 1023.79 909.688 Z" fill="#000000" fill-rule="evenodd" fill-opacity="1" /><path clip-path="url(#clip300)" d="M 0 0 M1081.5 966.193 Q1081.5 966.521 1081.13 967.792 Q1080.76 969.062 1079.86 971.03 Q1079 972.997 1077.81 974.801 Q1076.62 976.563 1074.66 977.875 Q1072.73 979.146 1070.52 979.146 Q1067.57 979.146 1065.6 977.178 Q1063.63 975.211 1063.63 972.259 Q1063.63 970.62 1064.49 968.365 Q1069.94 953.814 1069.94 948.814 Q1069.94 942.952 1065.39 942.952 Q1063.14 942.952 1061.01 943.813 Q1058.92 944.633 1057.48 945.78 Q1056.05 946.928 1054.74 948.527 Q1053.46 950.084 1052.81 951.15 Q1052.19 952.175 1051.7 953.199 L1050.64 957.38 Q1050.39 958.528 1049.2 962.996 L1047.36 970.579 Q1046.05 976.235 1045.76 976.768 Q1045.35 977.916 1044.45 978.531 Q1043.55 979.146 1042.64 979.146 Q1041.62 979.146 1040.92 978.531 Q1040.23 977.916 1040.23 976.85 Q1040.23 976.686 1040.35 976.071 Q1040.47 975.457 1040.68 974.596 Q1040.88 973.735 1040.96 973.243 L1045.84 953.855 Q1046.74 950.33 1046.95 949.223 Q1047.19 948.076 1047.19 946.805 Q1047.19 942.952 1044.57 942.952 Q1042.44 942.952 1041.05 945.493 Q1039.65 948.035 1038.46 952.954 Q1038.09 954.306 1037.85 954.593 Q1037.64 954.88 1037.03 954.88 Q1036 954.839 1036 954.019 Q1036 953.814 1036.33 952.462 Q1036.66 951.109 1037.27 949.182 Q1037.93 947.215 1038.54 945.903 Q1039.08 944.92 1039.36 944.469 Q1039.69 943.977 1040.47 943.034 Q1041.29 942.05 1042.36 941.599 Q1043.46 941.108 1044.82 941.108 Q1047.85 941.108 1050.06 943.075 Q1052.28 945.002 1052.56 948.404 Q1058.01 941.108 1065.64 941.108 Q1070.15 941.108 1072.73 943.485 Q1075.31 945.862 1075.31 950.084 Q1075.31 951.068 1075.11 952.339 Q1074.94 953.568 1074.53 955.126 Q1074.16 956.684 1073.84 957.872 Q1073.51 959.061 1072.85 960.987 Q1072.2 962.873 1071.91 963.693 Q1071.62 964.512 1070.93 966.439 Q1070.27 968.324 1070.19 968.529 Q1068.67 972.341 1068.67 974.514 Q1068.67 975.948 1069.12 976.604 Q1069.61 977.26 1070.68 977.26 Q1073.55 977.26 1075.68 974.432 Q1077.85 971.563 1079.25 966.89 Q1079.58 965.865 1079.74 965.619 Q1079.94 965.373 1080.52 965.373 Q1081.5 965.373 1081.5 966.193 Z" fill="#000000" fill-rule="evenodd" fill-opacity="1" /><path clip-path="url(#clip300)" d="M 0 0 M1093.86 981.068 L1093.86 869.402 Q1093.86 864.951 1096.26 864.951 Q1098.66 864.951 1098.66 868.523 L1098.66 980.19 Q1098.66 984.64 1096.26 984.64 Q1093.86 984.64 1093.86 981.068 Z" fill="#000000" fill-rule="evenodd" fill-opacity="1" /><path clip-path="url(#clip300)" d="M 0 0 M1192.88 894.815 Q1192.88 904.652 1189.72 915.719 Q1186.62 926.728 1181.7 935.628 Q1176.78 944.47 1170.34 950.326 Q1163.9 956.123 1157.75 956.123 Q1153.83 956.123 1150.9 953.957 Q1148.03 951.731 1146.45 948.042 Q1144.87 944.295 1144.11 940.196 Q1143.34 936.038 1143.34 931.53 Q1143.34 924.796 1144.81 917.476 Q1146.27 910.098 1148.73 903.423 Q1151.19 896.689 1154.65 890.599 Q1158.1 884.45 1161.91 880 Q1165.77 875.491 1170.1 872.856 Q1174.44 870.221 1178.48 870.221 Q1181.41 870.221 1183.75 871.51 Q1186.15 872.739 1187.67 874.906 Q1189.19 877.014 1190.25 879.532 Q1191.36 882.05 1191.89 884.977 Q1192.41 887.847 1192.65 890.247 Q1192.88 892.59 1192.88 894.815 M1184.98 887.378 Q1184.98 884.392 1184.74 882.167 Q1184.51 879.883 1183.86 877.599 Q1183.22 875.316 1181.82 874.086 Q1180.47 872.856 1178.36 872.856 Q1172.21 872.856 1165.3 885.446 Q1163.08 889.369 1161.09 894.698 Q1159.1 900.026 1158.39 902.544 Q1157.69 905.062 1156.05 911.269 L1181.11 911.269 Q1184.98 895.283 1184.98 887.378 M1180.06 915.075 L1155.11 915.075 Q1151.25 929.714 1151.25 938.849 Q1151.25 946.813 1152.89 950.15 Q1154.59 953.43 1157.75 953.43 Q1161.38 953.43 1164.78 949.799 Q1168.17 946.11 1171.63 939.435 Q1176.19 930.768 1180.06 915.075 Z" fill="#000000" fill-rule="evenodd" fill-opacity="1" /><path clip-path="url(#clip300)" d="M 0 0 M1199.01 983.586 Q1199.01 983 1200.53 981.536 Q1219.85 961.862 1219.85 924.796 Q1219.85 887.612 1201.29 868.816 Q1199.01 866.649 1199.01 866.005 Q1199.01 864.834 1200.18 864.834 Q1201 864.834 1203.87 867.235 Q1206.8 869.636 1211.19 875.14 Q1215.64 880.644 1218.92 887.378 Q1226.82 903.715 1226.82 924.796 Q1226.82 945.056 1219.27 961.393 Q1216.05 968.244 1211.54 973.983 Q1207.03 979.721 1204.04 982.239 Q1201.06 984.757 1200.18 984.757 Q1199.01 984.757 1199.01 983.586 Z" fill="#000000" fill-rule="evenodd" fill-opacity="1" /><path clip-path="url(#clip300)" d="M 0 0 M1302.14 872.856 L1284.86 942.187 Q1284.16 945.29 1284.16 947.925 Q1284.16 953.43 1287.73 953.43 Q1289.49 953.43 1290.9 952.317 Q1292.3 951.204 1293.41 948.862 Q1294.53 946.52 1295.23 944.353 Q1295.93 942.128 1296.87 938.615 Q1297.16 937.21 1297.4 936.858 Q1297.69 936.448 1298.51 936.448 Q1299.97 936.448 1299.97 937.619 Q1298.39 945.173 1296.34 949.506 Q1293.06 956.123 1287.5 956.123 Q1283.28 956.123 1280.3 953.547 Q1277.31 950.97 1276.61 947.105 Q1268.94 956.123 1260.97 956.123 Q1253.95 956.123 1249.5 950.795 Q1245.05 945.407 1245.05 936.917 Q1245.05 928.368 1249.26 920.17 Q1253.54 911.972 1260.27 906.877 Q1267.01 901.783 1273.92 901.783 Q1281.23 901.783 1284.98 909.454 L1292.18 880.996 L1292.54 878.653 Q1292.54 877.951 1292.24 877.599 Q1292.01 877.189 1290.6 876.897 Q1289.26 876.604 1286.56 876.604 Q1285.45 876.604 1284.92 876.545 Q1284.46 876.487 1284.05 876.194 Q1283.64 875.843 1283.64 875.14 Q1283.64 873.091 1285.33 872.856 Q1296.58 871.568 1300.56 871.568 Q1301.26 871.568 1301.67 871.919 Q1302.08 872.212 1302.08 872.564 L1302.14 872.856 M1283.52 914.958 Q1283.52 914.431 1283.11 912.967 Q1282.7 911.503 1281.76 909.454 Q1280.82 907.404 1278.78 905.941 Q1276.78 904.418 1274.09 904.418 Q1270.46 904.418 1266.65 907.522 Q1262.91 910.625 1260.15 915.895 Q1258.05 920.111 1255.76 928.953 Q1253.54 937.795 1253.54 942.187 Q1253.54 944.88 1254.12 947.281 Q1254.77 949.623 1256.58 951.556 Q1258.4 953.43 1261.21 953.43 Q1268.06 953.43 1274.79 944.939 Q1276.08 943.475 1276.37 942.889 Q1276.73 942.245 1277.19 940.489 L1283.17 917.008 Q1283.52 915.251 1283.52 914.958 Z" fill="#000000" fill-rule="evenodd" fill-opacity="1" /><path clip-path="url(#clip300)" d="M 0 0 M1356.28 894.815 Q1356.28 904.652 1353.12 915.719 Q1350.01 926.728 1345.1 935.628 Q1340.18 944.47 1333.74 950.326 Q1327.29 956.123 1321.15 956.123 Q1317.22 956.123 1314.29 953.957 Q1311.43 951.731 1309.84 948.042 Q1308.26 944.295 1307.5 940.196 Q1306.74 936.038 1306.74 931.53 Q1306.74 924.796 1308.21 917.476 Q1309.67 910.098 1312.13 903.423 Q1314.59 896.689 1318.04 890.599 Q1321.5 884.45 1325.3 880 Q1329.17 875.491 1333.5 872.856 Q1337.83 870.221 1341.87 870.221 Q1344.8 870.221 1347.14 871.51 Q1349.55 872.739 1351.07 874.906 Q1352.59 877.014 1353.64 879.532 Q1354.76 882.05 1355.28 884.977 Q1355.81 887.847 1356.05 890.247 Q1356.28 892.59 1356.28 894.815 M1348.37 887.378 Q1348.37 884.392 1348.14 882.167 Q1347.91 879.883 1347.26 877.599 Q1346.62 875.316 1345.21 874.086 Q1343.87 872.856 1341.76 872.856 Q1335.61 872.856 1328.7 885.446 Q1326.47 889.369 1324.48 894.698 Q1322.49 900.026 1321.79 902.544 Q1321.09 905.062 1319.45 911.269 L1344.51 911.269 Q1348.37 895.283 1348.37 887.378 M1343.46 915.075 L1318.51 915.075 Q1314.65 929.714 1314.65 938.849 Q1314.65 946.813 1316.29 950.15 Q1317.98 953.43 1321.15 953.43 Q1324.78 953.43 1328.17 949.799 Q1331.57 946.11 1335.02 939.435 Q1339.59 930.768 1343.46 915.075 Z" fill="#000000" fill-rule="evenodd" fill-opacity="1" /></svg>
