<?xml version="1.0" encoding="utf-8"?>
<svg xmlns="http://www.w3.org/2000/svg" xmlns:xlink="http://www.w3.org/1999/xlink" width="600" height="400" viewBox="0 0 2400 1600">
<defs>
  <clipPath id="clip960">
    <rect x="0" y="0" width="2400" height="1600"/>
  </clipPath>
</defs>
<path clip-path="url(#clip960)" d="
M0 1600 L2400 1600 L2400 0 L0 0  Z
  " fill="#ffffff" fill-rule="evenodd" fill-opacity="1"/>
<defs>
  <clipPath id="clip961">
    <rect x="480" y="0" width="1681" height="1600"/>
  </clipPath>
</defs>
<defs>
  <clipPath id="clip962">
    <rect x="362" y="47" width="1991" height="1312"/>
  </clipPath>
</defs>
<path clip-path="url(#clip960)" d="
M362.883 1358.38 L2352.76 1358.38 L2352.76 47.2441 L362.883 47.2441  Z
  " fill="#ffffff" fill-rule="evenodd" fill-opacity="1"/>
<polyline clip-path="url(#clip960)" style="stroke:#000000; stroke-linecap:butt; stroke-linejoin:round; stroke-width:4; stroke-opacity:1; fill:none" points="
  362.883,1358.38 2352.76,1358.38 
  "/>
<polyline clip-path="url(#clip960)" style="stroke:#000000; stroke-linecap:butt; stroke-linejoin:round; stroke-width:4; stroke-opacity:1; fill:none" points="
  419.201,1358.38 419.201,1339.48 
  "/>
<polyline clip-path="url(#clip960)" style="stroke:#000000; stroke-linecap:butt; stroke-linejoin:round; stroke-width:4; stroke-opacity:1; fill:none" points="
  794.648,1358.38 794.648,1339.48 
  "/>
<polyline clip-path="url(#clip960)" style="stroke:#000000; stroke-linecap:butt; stroke-linejoin:round; stroke-width:4; stroke-opacity:1; fill:none" points="
  1170.1,1358.38 1170.1,1339.48 
  "/>
<polyline clip-path="url(#clip960)" style="stroke:#000000; stroke-linecap:butt; stroke-linejoin:round; stroke-width:4; stroke-opacity:1; fill:none" points="
  1545.54,1358.38 1545.54,1339.48 
  "/>
<polyline clip-path="url(#clip960)" style="stroke:#000000; stroke-linecap:butt; stroke-linejoin:round; stroke-width:4; stroke-opacity:1; fill:none" points="
  1920.99,1358.38 1920.99,1339.48 
  "/>
<polyline clip-path="url(#clip960)" style="stroke:#000000; stroke-linecap:butt; stroke-linejoin:round; stroke-width:4; stroke-opacity:1; fill:none" points="
  2296.44,1358.38 2296.44,1339.48 
  "/>
<path clip-path="url(#clip960)" d="M419.201 1398.09 Q412.881 1398.09 409.681 1404.33 Q406.521 1410.52 406.521 1423 Q406.521 1435.44 409.681 1441.68 Q412.881 1447.87 419.201 1447.87 Q425.561 1447.87 428.72 1441.68 Q431.92 1435.44 431.92 1423 Q431.92 1410.52 428.72 1404.33 Q425.561 1398.09 419.201 1398.09 M419.201 1391.61 Q429.368 1391.61 434.716 1399.67 Q440.103 1407.69 440.103 1423 Q440.103 1438.27 434.716 1446.33 Q429.368 1454.35 419.201 1454.35 Q409.033 1454.35 403.645 1446.33 Q398.298 1438.27 398.298 1423 Q398.298 1407.69 403.645 1399.67 Q409.033 1391.61 419.201 1391.61 Z" fill="#000000" fill-rule="evenodd" fill-opacity="1" /><path clip-path="url(#clip960)" d="M785.291 1446.29 L813.85 1446.29 L813.85 1453.18 L775.447 1453.18 L775.447 1446.29 Q780.105 1441.47 788.126 1433.37 Q796.188 1425.23 798.254 1422.88 Q802.183 1418.46 803.722 1415.43 Q805.302 1412.35 805.302 1409.39 Q805.302 1404.57 801.899 1401.53 Q798.537 1398.49 793.109 1398.49 Q789.261 1398.49 784.967 1399.83 Q780.713 1401.17 775.852 1403.88 L775.852 1395.62 Q780.794 1393.63 785.088 1392.62 Q789.382 1391.61 792.947 1391.61 Q802.345 1391.61 807.935 1396.31 Q813.525 1401 813.525 1408.86 Q813.525 1412.59 812.108 1415.95 Q810.73 1419.27 807.044 1423.81 Q806.031 1424.99 800.603 1430.62 Q795.175 1436.21 785.291 1446.29 Z" fill="#000000" fill-rule="evenodd" fill-opacity="1" /><path clip-path="url(#clip960)" d="M1175.36 1399.83 L1154.7 1432.12 L1175.36 1432.12 L1175.36 1399.83 M1173.22 1392.7 L1183.5 1392.7 L1183.5 1432.12 L1192.13 1432.12 L1192.13 1438.92 L1183.5 1438.92 L1183.5 1453.18 L1175.36 1453.18 L1175.36 1438.92 L1148.06 1438.92 L1148.06 1431.02 L1173.22 1392.7 Z" fill="#000000" fill-rule="evenodd" fill-opacity="1" /><path clip-path="url(#clip960)" d="M1546.25 1419.68 Q1540.74 1419.68 1537.5 1423.45 Q1534.3 1427.21 1534.3 1433.78 Q1534.3 1440.3 1537.5 1444.11 Q1540.74 1447.87 1546.25 1447.87 Q1551.76 1447.87 1554.96 1444.11 Q1558.2 1440.3 1558.2 1433.78 Q1558.2 1427.21 1554.96 1423.45 Q1551.76 1419.68 1546.25 1419.68 M1562.5 1394.04 L1562.5 1401.49 Q1559.42 1400.03 1556.26 1399.26 Q1553.14 1398.49 1550.06 1398.49 Q1541.96 1398.49 1537.66 1403.96 Q1533.41 1409.43 1532.8 1420.49 Q1535.19 1416.96 1538.8 1415.1 Q1542.4 1413.2 1546.74 1413.2 Q1555.85 1413.2 1561.12 1418.75 Q1566.43 1424.26 1566.43 1433.78 Q1566.43 1443.09 1560.92 1448.72 Q1555.41 1454.35 1546.25 1454.35 Q1535.76 1454.35 1530.21 1446.33 Q1524.66 1438.27 1524.66 1423 Q1524.66 1408.66 1531.47 1400.15 Q1538.27 1391.61 1549.74 1391.61 Q1552.81 1391.61 1555.93 1392.21 Q1559.09 1392.82 1562.5 1394.04 Z" fill="#000000" fill-rule="evenodd" fill-opacity="1" /><path clip-path="url(#clip960)" d="M1920.99 1424.46 Q1915.16 1424.46 1911.8 1427.58 Q1908.47 1430.7 1908.47 1436.17 Q1908.47 1441.63 1911.8 1444.75 Q1915.16 1447.87 1920.99 1447.87 Q1926.82 1447.87 1930.19 1444.75 Q1933.55 1441.59 1933.55 1436.17 Q1933.55 1430.7 1930.19 1427.58 Q1926.86 1424.46 1920.99 1424.46 M1912.81 1420.98 Q1907.54 1419.68 1904.58 1416.07 Q1901.67 1412.47 1901.67 1407.28 Q1901.67 1400.03 1906.81 1395.82 Q1912 1391.61 1920.99 1391.61 Q1930.02 1391.61 1935.17 1395.82 Q1940.31 1400.03 1940.31 1407.28 Q1940.31 1412.47 1937.36 1416.07 Q1934.44 1419.68 1929.21 1420.98 Q1935.13 1422.35 1938.41 1426.36 Q1941.73 1430.37 1941.73 1436.17 Q1941.73 1444.96 1936.34 1449.66 Q1931 1454.35 1920.99 1454.35 Q1910.99 1454.35 1905.6 1449.66 Q1900.25 1444.96 1900.25 1436.17 Q1900.25 1430.37 1903.57 1426.36 Q1906.89 1422.35 1912.81 1420.98 M1909.81 1408.05 Q1909.81 1412.75 1912.73 1415.38 Q1915.68 1418.02 1920.99 1418.02 Q1926.26 1418.02 1929.21 1415.38 Q1932.21 1412.75 1932.21 1408.05 Q1932.21 1403.35 1929.21 1400.72 Q1926.26 1398.09 1920.99 1398.09 Q1915.68 1398.09 1912.73 1400.72 Q1909.81 1403.35 1909.81 1408.05 Z" fill="#000000" fill-rule="evenodd" fill-opacity="1" /><path clip-path="url(#clip960)" d="M2252.14 1446.29 L2265.51 1446.29 L2265.51 1400.15 L2250.97 1403.07 L2250.97 1395.62 L2265.43 1392.7 L2273.61 1392.7 L2273.61 1446.29 L2286.98 1446.29 L2286.98 1453.18 L2252.14 1453.18 L2252.14 1446.29 Z" fill="#000000" fill-rule="evenodd" fill-opacity="1" /><path clip-path="url(#clip960)" d="M2321.01 1398.09 Q2314.69 1398.09 2311.49 1404.33 Q2308.33 1410.52 2308.33 1423 Q2308.33 1435.44 2311.49 1441.68 Q2314.69 1447.87 2321.01 1447.87 Q2327.37 1447.87 2330.53 1441.68 Q2333.73 1435.44 2333.73 1423 Q2333.73 1410.52 2330.53 1404.33 Q2327.37 1398.09 2321.01 1398.09 M2321.01 1391.61 Q2331.18 1391.61 2336.52 1399.67 Q2341.91 1407.69 2341.91 1423 Q2341.91 1438.27 2336.52 1446.33 Q2331.18 1454.35 2321.01 1454.35 Q2310.84 1454.35 2305.45 1446.33 Q2300.1 1438.27 2300.1 1423 Q2300.1 1407.69 2305.45 1399.67 Q2310.84 1391.61 2321.01 1391.61 Z" fill="#000000" fill-rule="evenodd" fill-opacity="1" /><path clip-path="url(#clip960)" d="M1383.59 1547.67 Q1383.59 1550.95 1381.54 1552.82 Q1379.49 1554.64 1377.15 1554.64 Q1374.92 1554.64 1373.75 1553.35 Q1372.58 1552.06 1372.58 1550.42 Q1372.58 1548.2 1374.22 1546.26 Q1375.86 1544.33 1378.32 1543.92 Q1375.92 1542.4 1372.35 1542.4 Q1370 1542.4 1367.95 1543.63 Q1365.96 1544.86 1364.73 1546.44 Q1363.56 1548.02 1362.51 1550.3 Q1361.51 1552.53 1361.1 1553.88 Q1360.75 1555.16 1360.46 1556.57 L1356.36 1572.97 Q1354.37 1580.75 1354.37 1583.51 Q1354.37 1586.9 1356.01 1589.19 Q1357.65 1591.41 1360.93 1591.41 Q1362.22 1591.41 1363.68 1591.06 Q1365.14 1590.65 1367.02 1589.6 Q1368.95 1588.48 1370.65 1586.84 Q1372.4 1585.15 1374.1 1582.28 Q1375.8 1579.41 1376.91 1575.72 Q1377.26 1574.43 1378.44 1574.43 Q1379.9 1574.43 1379.9 1575.6 Q1379.9 1576.6 1379.08 1578.7 Q1378.32 1580.75 1376.62 1583.45 Q1374.98 1586.08 1372.81 1588.48 Q1370.65 1590.83 1367.43 1592.47 Q1364.21 1594.1 1360.69 1594.1 Q1355.66 1594.1 1352.32 1591.41 Q1348.98 1588.72 1347.75 1584.97 Q1347.46 1585.5 1347.05 1586.2 Q1346.64 1586.9 1345.41 1588.48 Q1344.24 1590.01 1342.89 1591.18 Q1341.55 1592.29 1339.44 1593.17 Q1337.39 1594.1 1335.16 1594.1 Q1332.35 1594.1 1329.83 1593.28 Q1327.37 1592.47 1325.62 1590.59 Q1323.86 1588.72 1323.86 1586.14 Q1323.86 1583.27 1325.79 1581.28 Q1327.78 1579.23 1330.48 1579.23 Q1332.18 1579.23 1333.52 1580.23 Q1334.93 1581.22 1334.93 1583.39 Q1334.93 1585.79 1333.29 1587.61 Q1331.65 1589.42 1329.31 1589.89 Q1331.71 1591.41 1335.28 1591.41 Q1339.14 1591.41 1342.19 1588.01 Q1345.23 1584.62 1346.7 1578.94 Q1350.33 1565.3 1351.73 1559.21 Q1353.14 1553.06 1353.14 1550.42 Q1353.14 1547.96 1352.5 1546.26 Q1351.85 1544.57 1350.74 1543.81 Q1349.68 1542.99 1348.69 1542.69 Q1347.75 1542.4 1346.7 1542.4 Q1344.94 1542.4 1342.95 1543.1 Q1341.02 1543.81 1338.68 1545.44 Q1336.39 1547.03 1334.23 1550.3 Q1332.06 1553.58 1330.6 1558.09 Q1330.3 1559.44 1329.01 1559.44 Q1327.61 1559.38 1327.61 1558.21 Q1327.61 1557.21 1328.37 1555.16 Q1329.19 1553.06 1330.83 1550.42 Q1332.53 1547.79 1334.69 1545.44 Q1336.92 1543.04 1340.14 1541.4 Q1343.42 1539.76 1346.93 1539.76 Q1348.51 1539.76 1350.04 1540.12 Q1351.62 1540.41 1353.49 1541.29 Q1355.42 1542.17 1357.12 1544.1 Q1358.82 1546.03 1359.87 1548.84 Q1360.58 1547.49 1361.51 1546.21 Q1362.51 1544.92 1364.03 1543.34 Q1365.61 1541.7 1367.78 1540.76 Q1370 1539.76 1372.46 1539.76 Q1374.86 1539.76 1377.21 1540.41 Q1379.55 1540.99 1381.54 1542.93 Q1383.59 1544.8 1383.59 1547.67 Z" fill="#000000" fill-rule="evenodd" fill-opacity="1" /><polyline clip-path="url(#clip960)" style="stroke:#000000; stroke-linecap:butt; stroke-linejoin:round; stroke-width:4; stroke-opacity:1; fill:none" points="
  362.883,1358.38 362.883,47.2441 
  "/>
<polyline clip-path="url(#clip960)" style="stroke:#000000; stroke-linecap:butt; stroke-linejoin:round; stroke-width:4; stroke-opacity:1; fill:none" points="
  362.883,1321.27 381.781,1321.27 
  "/>
<polyline clip-path="url(#clip960)" style="stroke:#000000; stroke-linecap:butt; stroke-linejoin:round; stroke-width:4; stroke-opacity:1; fill:none" points="
  362.883,1092.78 381.781,1092.78 
  "/>
<polyline clip-path="url(#clip960)" style="stroke:#000000; stroke-linecap:butt; stroke-linejoin:round; stroke-width:4; stroke-opacity:1; fill:none" points="
  362.883,864.288 381.781,864.288 
  "/>
<polyline clip-path="url(#clip960)" style="stroke:#000000; stroke-linecap:butt; stroke-linejoin:round; stroke-width:4; stroke-opacity:1; fill:none" points="
  362.883,635.797 381.781,635.797 
  "/>
<polyline clip-path="url(#clip960)" style="stroke:#000000; stroke-linecap:butt; stroke-linejoin:round; stroke-width:4; stroke-opacity:1; fill:none" points="
  362.883,407.305 381.781,407.305 
  "/>
<polyline clip-path="url(#clip960)" style="stroke:#000000; stroke-linecap:butt; stroke-linejoin:round; stroke-width:4; stroke-opacity:1; fill:none" points="
  362.883,178.813 381.781,178.813 
  "/>
<path clip-path="url(#clip960)" d="M174.043 1296.42 Q167.723 1296.42 164.523 1302.66 Q161.363 1308.86 161.363 1321.33 Q161.363 1333.77 164.523 1340.01 Q167.723 1346.21 174.043 1346.21 Q180.403 1346.21 183.562 1340.01 Q186.763 1333.77 186.763 1321.33 Q186.763 1308.86 183.562 1302.66 Q180.403 1296.42 174.043 1296.42 M174.043 1289.94 Q184.211 1289.94 189.558 1298 Q194.945 1306.02 194.945 1321.33 Q194.945 1336.6 189.558 1344.67 Q184.211 1352.69 174.043 1352.69 Q163.875 1352.69 158.487 1344.67 Q153.14 1336.6 153.14 1321.33 Q153.14 1306.02 158.487 1298 Q163.875 1289.94 174.043 1289.94 Z" fill="#000000" fill-rule="evenodd" fill-opacity="1" /><path clip-path="url(#clip960)" d="M209.326 1341.22 L217.874 1341.22 L217.874 1351.51 L209.326 1351.51 L209.326 1341.22 Z" fill="#000000" fill-rule="evenodd" fill-opacity="1" /><path clip-path="url(#clip960)" d="M253.197 1296.42 Q246.878 1296.42 243.678 1302.66 Q240.518 1308.86 240.518 1321.33 Q240.518 1333.77 243.678 1340.01 Q246.878 1346.21 253.197 1346.21 Q259.557 1346.21 262.717 1340.01 Q265.917 1333.77 265.917 1321.33 Q265.917 1308.86 262.717 1302.66 Q259.557 1296.42 253.197 1296.42 M253.197 1289.94 Q263.365 1289.94 268.712 1298 Q274.1 1306.02 274.1 1321.33 Q274.1 1336.6 268.712 1344.67 Q263.365 1352.69 253.197 1352.69 Q243.03 1352.69 237.642 1344.67 Q232.295 1336.6 232.295 1321.33 Q232.295 1306.02 237.642 1298 Q243.03 1289.94 253.197 1289.94 Z" fill="#000000" fill-rule="evenodd" fill-opacity="1" /><path clip-path="url(#clip960)" d="M305.981 1296.42 Q299.661 1296.42 296.461 1302.66 Q293.301 1308.86 293.301 1321.33 Q293.301 1333.77 296.461 1340.01 Q299.661 1346.21 305.981 1346.21 Q312.341 1346.21 315.5 1340.01 Q318.701 1333.77 318.701 1321.33 Q318.701 1308.86 315.5 1302.66 Q312.341 1296.42 305.981 1296.42 M305.981 1289.94 Q316.149 1289.94 321.496 1298 Q326.883 1306.02 326.883 1321.33 Q326.883 1336.6 321.496 1344.67 Q316.149 1352.69 305.981 1352.69 Q295.813 1352.69 290.425 1344.67 Q285.078 1336.6 285.078 1321.33 Q285.078 1306.02 290.425 1298 Q295.813 1289.94 305.981 1289.94 Z" fill="#000000" fill-rule="evenodd" fill-opacity="1" /><path clip-path="url(#clip960)" d="M175.785 1067.93 Q169.465 1067.93 166.265 1074.17 Q163.105 1080.36 163.105 1092.84 Q163.105 1105.28 166.265 1111.52 Q169.465 1117.71 175.785 1117.71 Q182.145 1117.71 185.304 1111.52 Q188.505 1105.28 188.505 1092.84 Q188.505 1080.36 185.304 1074.17 Q182.145 1067.93 175.785 1067.93 M175.785 1061.45 Q185.952 1061.45 191.3 1069.51 Q196.687 1077.53 196.687 1092.84 Q196.687 1108.11 191.3 1116.17 Q185.952 1124.2 175.785 1124.2 Q165.617 1124.2 160.229 1116.17 Q154.882 1108.11 154.882 1092.84 Q154.882 1077.53 160.229 1069.51 Q165.617 1061.45 175.785 1061.45 Z" fill="#000000" fill-rule="evenodd" fill-opacity="1" /><path clip-path="url(#clip960)" d="M211.068 1112.73 L219.615 1112.73 L219.615 1123.02 L211.068 1123.02 L211.068 1112.73 Z" fill="#000000" fill-rule="evenodd" fill-opacity="1" /><path clip-path="url(#clip960)" d="M254.939 1067.93 Q248.62 1067.93 245.42 1074.17 Q242.26 1080.36 242.26 1092.84 Q242.26 1105.28 245.42 1111.52 Q248.62 1117.71 254.939 1117.71 Q261.299 1117.71 264.459 1111.52 Q267.659 1105.28 267.659 1092.84 Q267.659 1080.36 264.459 1074.17 Q261.299 1067.93 254.939 1067.93 M254.939 1061.45 Q265.107 1061.45 270.454 1069.51 Q275.842 1077.53 275.842 1092.84 Q275.842 1108.11 270.454 1116.17 Q265.107 1124.2 254.939 1124.2 Q244.772 1124.2 239.384 1116.17 Q234.037 1108.11 234.037 1092.84 Q234.037 1077.53 239.384 1069.51 Q244.772 1061.45 254.939 1061.45 Z" fill="#000000" fill-rule="evenodd" fill-opacity="1" /><path clip-path="url(#clip960)" d="M290.304 1062.54 L322.427 1062.54 L322.427 1069.43 L297.798 1069.43 L297.798 1084.25 Q299.58 1083.65 301.363 1083.36 Q303.145 1083.04 304.928 1083.04 Q315.055 1083.04 320.969 1088.59 Q326.883 1094.14 326.883 1103.62 Q326.883 1113.38 320.807 1118.81 Q314.731 1124.2 303.672 1124.2 Q299.864 1124.2 295.894 1123.55 Q291.965 1122.9 287.752 1121.6 L287.752 1113.38 Q291.398 1115.36 295.286 1116.34 Q299.175 1117.31 303.51 1117.31 Q310.518 1117.31 314.609 1113.62 Q318.701 1109.94 318.701 1103.62 Q318.701 1097.3 314.609 1093.61 Q310.518 1089.92 303.51 1089.92 Q300.228 1089.92 296.947 1090.65 Q293.707 1091.38 290.304 1092.92 L290.304 1062.54 Z" fill="#000000" fill-rule="evenodd" fill-opacity="1" /><path clip-path="url(#clip960)" d="M174.043 839.436 Q167.723 839.436 164.523 845.675 Q161.363 851.872 161.363 864.349 Q161.363 876.786 164.523 883.024 Q167.723 889.222 174.043 889.222 Q180.403 889.222 183.562 883.024 Q186.763 876.786 186.763 864.349 Q186.763 851.872 183.562 845.675 Q180.403 839.436 174.043 839.436 M174.043 832.955 Q184.211 832.955 189.558 841.016 Q194.945 849.037 194.945 864.349 Q194.945 879.621 189.558 887.682 Q184.211 895.703 174.043 895.703 Q163.875 895.703 158.487 887.682 Q153.14 879.621 153.14 864.349 Q153.14 849.037 158.487 841.016 Q163.875 832.955 174.043 832.955 Z" fill="#000000" fill-rule="evenodd" fill-opacity="1" /><path clip-path="url(#clip960)" d="M209.326 884.239 L217.874 884.239 L217.874 894.528 L209.326 894.528 L209.326 884.239 Z" fill="#000000" fill-rule="evenodd" fill-opacity="1" /><path clip-path="url(#clip960)" d="M237.115 887.642 L250.483 887.642 L250.483 841.502 L235.941 844.419 L235.941 836.965 L250.402 834.048 L258.585 834.048 L258.585 887.642 L271.953 887.642 L271.953 894.528 L237.115 894.528 L237.115 887.642 Z" fill="#000000" fill-rule="evenodd" fill-opacity="1" /><path clip-path="url(#clip960)" d="M305.981 839.436 Q299.661 839.436 296.461 845.675 Q293.301 851.872 293.301 864.349 Q293.301 876.786 296.461 883.024 Q299.661 889.222 305.981 889.222 Q312.341 889.222 315.5 883.024 Q318.701 876.786 318.701 864.349 Q318.701 851.872 315.5 845.675 Q312.341 839.436 305.981 839.436 M305.981 832.955 Q316.149 832.955 321.496 841.016 Q326.883 849.037 326.883 864.349 Q326.883 879.621 321.496 887.682 Q316.149 895.703 305.981 895.703 Q295.813 895.703 290.425 887.682 Q285.078 879.621 285.078 864.349 Q285.078 849.037 290.425 841.016 Q295.813 832.955 305.981 832.955 Z" fill="#000000" fill-rule="evenodd" fill-opacity="1" /><path clip-path="url(#clip960)" d="M175.785 610.944 Q169.465 610.944 166.265 617.183 Q163.105 623.381 163.105 635.857 Q163.105 648.294 166.265 654.532 Q169.465 660.73 175.785 660.73 Q182.145 660.73 185.304 654.532 Q188.505 648.294 188.505 635.857 Q188.505 623.381 185.304 617.183 Q182.145 610.944 175.785 610.944 M175.785 604.463 Q185.952 604.463 191.3 612.524 Q196.687 620.545 196.687 635.857 Q196.687 651.129 191.3 659.191 Q185.952 667.211 175.785 667.211 Q165.617 667.211 160.229 659.191 Q154.882 651.129 154.882 635.857 Q154.882 620.545 160.229 612.524 Q165.617 604.463 175.785 604.463 Z" fill="#000000" fill-rule="evenodd" fill-opacity="1" /><path clip-path="url(#clip960)" d="M211.068 655.747 L219.615 655.747 L219.615 666.037 L211.068 666.037 L211.068 655.747 Z" fill="#000000" fill-rule="evenodd" fill-opacity="1" /><path clip-path="url(#clip960)" d="M238.857 659.15 L252.225 659.15 L252.225 613.01 L237.683 615.927 L237.683 608.473 L252.144 605.557 L260.327 605.557 L260.327 659.15 L273.695 659.15 L273.695 666.037 L238.857 666.037 L238.857 659.15 Z" fill="#000000" fill-rule="evenodd" fill-opacity="1" /><path clip-path="url(#clip960)" d="M290.304 605.557 L322.427 605.557 L322.427 612.443 L297.798 612.443 L297.798 627.269 Q299.58 626.662 301.363 626.378 Q303.145 626.054 304.928 626.054 Q315.055 626.054 320.969 631.604 Q326.883 637.154 326.883 646.633 Q326.883 656.395 320.807 661.824 Q314.731 667.211 303.672 667.211 Q299.864 667.211 295.894 666.563 Q291.965 665.915 287.752 664.619 L287.752 656.395 Q291.398 658.38 295.286 659.353 Q299.175 660.325 303.51 660.325 Q310.518 660.325 314.609 656.638 Q318.701 652.952 318.701 646.633 Q318.701 640.313 314.609 636.627 Q310.518 632.941 303.51 632.941 Q300.228 632.941 296.947 633.67 Q293.707 634.399 290.304 635.938 L290.304 605.557 Z" fill="#000000" fill-rule="evenodd" fill-opacity="1" /><path clip-path="url(#clip960)" d="M174.043 382.452 Q167.723 382.452 164.523 388.691 Q161.363 394.889 161.363 407.365 Q161.363 419.802 164.523 426.04 Q167.723 432.238 174.043 432.238 Q180.403 432.238 183.562 426.04 Q186.763 419.802 186.763 407.365 Q186.763 394.889 183.562 388.691 Q180.403 382.452 174.043 382.452 M174.043 375.971 Q184.211 375.971 189.558 384.032 Q194.945 392.053 194.945 407.365 Q194.945 422.637 189.558 430.699 Q184.211 438.719 174.043 438.719 Q163.875 438.719 158.487 430.699 Q153.14 422.637 153.14 407.365 Q153.14 392.053 158.487 384.032 Q163.875 375.971 174.043 375.971 Z" fill="#000000" fill-rule="evenodd" fill-opacity="1" /><path clip-path="url(#clip960)" d="M209.326 427.255 L217.874 427.255 L217.874 437.545 L209.326 437.545 L209.326 427.255 Z" fill="#000000" fill-rule="evenodd" fill-opacity="1" /><path clip-path="url(#clip960)" d="M242.746 430.658 L271.305 430.658 L271.305 437.545 L232.902 437.545 L232.902 430.658 Q237.561 425.838 245.582 417.736 Q253.643 409.593 255.709 407.244 Q259.638 402.828 261.178 399.79 Q262.758 396.712 262.758 393.754 Q262.758 388.934 259.355 385.896 Q255.993 382.858 250.564 382.858 Q246.716 382.858 242.422 384.194 Q238.169 385.531 233.308 388.245 L233.308 379.981 Q238.25 377.996 242.544 376.984 Q246.838 375.971 250.402 375.971 Q259.8 375.971 265.391 380.67 Q270.981 385.369 270.981 393.228 Q270.981 396.955 269.563 400.317 Q268.186 403.639 264.5 408.176 Q263.487 409.35 258.059 414.981 Q252.63 420.571 242.746 430.658 Z" fill="#000000" fill-rule="evenodd" fill-opacity="1" /><path clip-path="url(#clip960)" d="M305.981 382.452 Q299.661 382.452 296.461 388.691 Q293.301 394.889 293.301 407.365 Q293.301 419.802 296.461 426.04 Q299.661 432.238 305.981 432.238 Q312.341 432.238 315.5 426.04 Q318.701 419.802 318.701 407.365 Q318.701 394.889 315.5 388.691 Q312.341 382.452 305.981 382.452 M305.981 375.971 Q316.149 375.971 321.496 384.032 Q326.883 392.053 326.883 407.365 Q326.883 422.637 321.496 430.699 Q316.149 438.719 305.981 438.719 Q295.813 438.719 290.425 430.699 Q285.078 422.637 285.078 407.365 Q285.078 392.053 290.425 384.032 Q295.813 375.971 305.981 375.971 Z" fill="#000000" fill-rule="evenodd" fill-opacity="1" /><path clip-path="url(#clip960)" d="M175.785 153.961 Q169.465 153.961 166.265 160.199 Q163.105 166.397 163.105 178.874 Q163.105 191.31 166.265 197.548 Q169.465 203.746 175.785 203.746 Q182.145 203.746 185.304 197.548 Q188.505 191.31 188.505 178.874 Q188.505 166.397 185.304 160.199 Q182.145 153.961 175.785 153.961 M175.785 147.479 Q185.952 147.479 191.3 155.54 Q196.687 163.561 196.687 178.874 Q196.687 194.146 191.3 202.207 Q185.952 210.228 175.785 210.228 Q165.617 210.228 160.229 202.207 Q154.882 194.146 154.882 178.874 Q154.882 163.561 160.229 155.54 Q165.617 147.479 175.785 147.479 Z" fill="#000000" fill-rule="evenodd" fill-opacity="1" /><path clip-path="url(#clip960)" d="M211.068 198.764 L219.615 198.764 L219.615 209.053 L211.068 209.053 L211.068 198.764 Z" fill="#000000" fill-rule="evenodd" fill-opacity="1" /><path clip-path="url(#clip960)" d="M244.488 202.166 L273.047 202.166 L273.047 209.053 L234.644 209.053 L234.644 202.166 Q239.303 197.346 247.324 189.244 Q255.385 181.102 257.451 178.752 Q261.38 174.337 262.92 171.298 Q264.5 168.22 264.5 165.263 Q264.5 160.442 261.097 157.404 Q257.735 154.366 252.306 154.366 Q248.458 154.366 244.164 155.702 Q239.911 157.039 235.049 159.753 L235.049 151.489 Q239.992 149.505 244.286 148.492 Q248.579 147.479 252.144 147.479 Q261.542 147.479 267.133 152.178 Q272.723 156.877 272.723 164.736 Q272.723 168.463 271.305 171.825 Q269.928 175.147 266.241 179.684 Q265.229 180.859 259.8 186.489 Q254.372 192.08 244.488 202.166 Z" fill="#000000" fill-rule="evenodd" fill-opacity="1" /><path clip-path="url(#clip960)" d="M290.304 148.573 L322.427 148.573 L322.427 155.459 L297.798 155.459 L297.798 170.286 Q299.58 169.678 301.363 169.394 Q303.145 169.07 304.928 169.07 Q315.055 169.07 320.969 174.62 Q326.883 180.17 326.883 189.649 Q326.883 199.412 320.807 204.84 Q314.731 210.228 303.672 210.228 Q299.864 210.228 295.894 209.579 Q291.965 208.931 287.752 207.635 L287.752 199.412 Q291.398 201.397 295.286 202.369 Q299.175 203.341 303.51 203.341 Q310.518 203.341 314.609 199.655 Q318.701 195.968 318.701 189.649 Q318.701 183.33 314.609 179.643 Q310.518 175.957 303.51 175.957 Q300.228 175.957 296.947 176.686 Q293.707 177.415 290.304 178.955 L290.304 148.573 Z" fill="#000000" fill-rule="evenodd" fill-opacity="1" /><path clip-path="url(#clip960)" d="M65.47 755.315 Q74.0192 755.315 82.2756 759.649 Q90.5321 763.923 95.6264 770.657 Q100.662 777.391 100.662 784.242 Q100.662 788.341 98.4371 791.093 Q96.1534 793.787 92.9329 795.251 Q96.9147 796.363 106.459 798.764 Q116.004 801.165 116.941 801.165 Q117.468 801.165 117.702 801.048 Q117.936 800.931 118.229 800.404 Q118.58 799.877 118.698 798.588 Q118.873 797.3 118.873 795.134 Q118.873 794.021 118.873 793.611 Q118.932 793.143 119.225 792.733 Q119.517 792.264 120.161 792.264 Q122.562 792.264 122.562 794.431 Q122.562 796.363 122.387 800.345 Q122.211 804.327 122.211 806.318 Q122.211 808.016 122.387 811.412 Q122.562 814.808 122.562 816.389 Q122.562 817.97 121.157 817.97 Q120.337 817.97 119.81 817.736 Q119.342 817.561 119.107 817.092 Q118.932 816.624 118.873 816.214 Q118.873 815.862 118.873 815.16 Q118.873 812.466 118.405 811.295 Q117.995 810.124 117.117 809.714 Q116.297 809.246 113.954 808.719 L60.5513 795.251 Q56.9794 794.431 54.4615 794.431 Q51.2995 794.431 50.1283 795.426 Q48.9572 796.422 48.9572 798.178 Q48.9572 801.223 52.5877 803.214 Q56.2182 805.205 63.2449 806.903 Q65.1773 807.43 65.5871 807.782 Q65.997 808.074 65.997 808.953 Q65.9385 810.417 64.7674 810.417 Q64.4746 810.417 62.6008 809.948 Q60.6684 809.48 57.8577 808.601 Q54.9885 807.665 53.1733 806.669 Q51.9436 806.084 51.1238 805.557 Q50.304 805.03 49.0158 803.976 Q47.7275 802.863 47.0249 801.282 Q46.3222 799.701 46.3222 797.769 Q46.3222 794.021 48.5473 790.918 Q50.7725 787.814 55.2813 786.994 Q51.358 783.657 48.8401 779.558 Q46.3222 775.459 46.3222 771.301 Q46.3222 764.392 51.7094 759.883 Q57.038 755.315 65.47 755.315 M60.2 763.982 Q54.8714 763.982 51.9436 766.031 Q48.9572 768.022 48.9572 771.653 Q48.9572 776.161 53.5246 781.373 Q57.8577 786.526 61.8981 787.58 L85.3791 793.494 L87.3115 793.845 Q87.6628 793.845 88.7168 793.67 Q89.7123 793.435 91.3518 792.791 Q92.9914 792.089 94.4553 791.152 Q95.8607 790.156 96.9147 788.4 Q97.9687 786.584 97.9687 784.359 Q97.9687 780.787 94.8066 776.923 Q91.6446 772.999 85.6719 770.072 Q81.8072 768.256 73.4922 766.148 Q65.1187 763.982 60.2 763.982 Z" fill="#000000" fill-rule="evenodd" fill-opacity="1" /><path clip-path="url(#clip960)" d="M69.3347 741.912 Q49.0743 741.912 32.7372 734.358 Q25.8861 731.137 20.1476 726.629 Q14.4091 722.12 11.8912 719.133 Q9.37328 716.147 9.37328 715.327 Q9.37328 714.156 10.5444 714.098 Q11.13 714.098 12.5939 715.679 Q32.2687 735.002 69.3347 734.944 Q106.518 734.944 125.431 716.147 Q127.481 714.098 128.125 714.098 Q129.296 714.098 129.296 715.327 Q129.296 716.147 126.895 719.016 Q124.495 721.886 118.99 726.336 Q113.486 730.786 106.752 734.007 Q90.4149 741.912 69.3347 741.912 Z" fill="#000000" fill-rule="evenodd" fill-opacity="1" /><path clip-path="url(#clip960)" d="M54.2273 645.254 Q57.5064 645.254 59.3802 647.303 Q61.1954 649.353 61.1954 651.695 Q61.1954 653.92 59.9072 655.091 Q58.619 656.262 56.9794 656.262 Q54.7543 656.262 52.8219 654.623 Q50.8896 652.983 50.4797 650.524 Q48.9572 652.924 48.9572 656.496 Q48.9572 658.839 50.1869 660.888 Q51.4166 662.879 52.9976 664.109 Q54.5786 665.28 56.8623 666.334 Q59.0874 667.329 60.4342 667.739 Q61.7224 668.091 63.1278 668.383 L79.5235 672.482 Q87.3115 674.473 90.0636 674.473 Q93.4599 674.473 95.7435 672.834 Q97.9687 671.194 97.9687 667.915 Q97.9687 666.627 97.6173 665.163 Q97.2074 663.699 96.1534 661.825 Q95.0409 659.893 93.4013 658.195 Q91.7032 656.438 88.8339 654.74 Q85.9647 653.042 82.2756 651.929 Q80.9874 651.578 80.9874 650.407 Q80.9874 648.943 82.1585 648.943 Q83.154 648.943 85.262 649.762 Q87.3115 650.524 90.005 652.222 Q92.6401 653.861 95.0409 656.028 Q97.3831 658.195 99.0227 661.415 Q100.662 664.636 100.662 668.149 Q100.662 673.185 97.9687 676.523 Q95.2751 679.86 91.5275 681.09 Q92.0545 681.383 92.7572 681.793 Q93.4599 682.203 95.0409 683.432 Q96.5633 684.603 97.7345 685.95 Q98.847 687.297 99.7254 689.405 Q100.662 691.454 100.662 693.68 Q100.662 696.49 99.8425 699.008 Q99.0227 701.468 97.1489 703.224 Q95.2751 704.981 92.6986 704.981 Q89.8294 704.981 87.8385 703.049 Q85.789 701.058 85.789 698.364 Q85.789 696.666 86.7845 695.319 Q87.7799 693.914 89.9465 693.914 Q92.3473 693.914 94.1625 695.553 Q95.9778 697.193 96.4462 699.535 Q97.9687 697.134 97.9687 693.562 Q97.9687 689.698 94.5724 686.653 Q91.1762 683.608 85.4962 682.144 Q71.8527 678.514 65.7628 677.108 Q59.6144 675.703 56.9794 675.703 Q54.52 675.703 52.8219 676.347 Q51.1238 676.991 50.3626 678.104 Q49.5428 679.158 49.25 680.153 Q48.9572 681.09 48.9572 682.144 Q48.9572 683.901 49.6599 685.892 Q50.3626 687.824 52.0021 690.166 Q53.5831 692.45 56.8623 694.616 Q60.1414 696.783 64.6503 698.247 Q65.997 698.54 65.997 699.828 Q65.9385 701.233 64.7674 701.233 Q63.7719 701.233 61.7224 700.472 Q59.6144 699.652 56.9794 698.013 Q54.3444 696.315 52.0021 694.148 Q49.6013 691.923 47.9618 688.702 Q46.3222 685.423 46.3222 681.91 Q46.3222 680.329 46.6735 678.806 Q46.9663 677.225 47.8446 675.351 Q48.723 673.419 50.6553 671.721 Q52.5877 670.023 55.3984 668.969 Q54.0516 668.266 52.7634 667.329 Q51.4751 666.334 49.8941 664.811 Q48.2545 663.23 47.3176 661.064 Q46.3222 658.839 46.3222 656.379 Q46.3222 653.979 46.9663 651.636 Q47.5519 649.294 49.4842 647.303 Q51.358 645.254 54.2273 645.254 Z" fill="#000000" fill-rule="evenodd" fill-opacity="1" /><path clip-path="url(#clip960)" d="M128.125 633.704 Q127.54 633.704 126.076 632.182 Q106.401 612.858 69.3347 612.858 Q32.1516 612.858 13.3551 631.421 Q11.1885 633.704 10.5444 633.704 Q9.37328 633.704 9.37328 632.533 Q9.37328 631.714 11.7741 628.844 Q14.1749 625.916 19.6792 621.525 Q25.1834 617.075 31.9174 613.795 Q48.2545 605.89 69.3347 605.89 Q89.5952 605.89 105.932 613.444 Q112.783 616.665 118.522 621.173 Q124.26 625.682 126.778 628.669 Q129.296 631.655 129.296 632.533 Q129.296 633.704 128.125 633.704 Z" fill="#000000" fill-rule="evenodd" fill-opacity="1" /><path clip-path="url(#clip962)" d="
M1170.1 651.676 L1171.97 655.02 L1173.85 658.355 L1175.73 661.682 L1177.6 665 L1179.48 668.31 L1181.36 671.611 L1183.24 674.902 L1185.11 678.185 L1186.99 681.459 
  L1188.87 684.724 L1190.75 687.98 L1192.62 691.227 L1194.5 694.464 L1196.38 697.692 L1198.25 700.911 L1200.13 704.12 L1202.01 707.32 L1203.89 710.51 L1205.76 713.69 
  L1207.64 716.861 L1209.52 720.022 L1211.4 723.173 L1213.27 726.315 L1215.15 729.446 L1217.03 732.568 L1218.9 735.68 L1220.78 738.781 L1222.66 741.873 L1224.54 744.954 
  L1226.41 748.026 L1228.29 751.087 L1230.17 754.138 L1232.04 757.178 L1233.92 760.209 L1235.8 763.228 L1237.68 766.238 L1239.55 769.237 L1241.43 772.226 L1243.31 775.204 
  L1245.19 778.171 L1247.06 781.129 L1248.94 784.075 L1250.82 787.011 L1252.69 789.936 L1254.57 792.851 L1256.45 795.755 L1258.33 798.648 L1260.2 801.531 L1262.08 804.402 
  L1263.96 807.263 L1265.84 810.114 L1267.71 812.953 L1269.59 815.782 L1271.47 818.599 L1273.34 821.406 L1275.22 824.202 L1277.1 826.987 L1278.98 829.762 L1280.85 832.525 
  L1282.73 835.277 L1284.61 838.019 L1286.48 840.749 L1288.36 843.469 L1290.24 846.177 L1292.12 848.875 L1293.99 851.562 L1295.87 854.237 L1297.75 856.902 L1299.63 859.556 
  L1301.5 862.199 L1303.38 864.83 L1305.26 867.451 L1307.13 870.061 L1309.01 872.659 L1310.89 875.247 L1312.77 877.824 L1314.64 880.39 L1316.52 882.945 L1318.4 885.488 
  L1320.27 888.021 L1322.15 890.543 L1324.03 893.054 L1325.91 895.554 L1327.78 898.042 L1329.66 900.52 L1331.54 902.987 L1333.42 905.443 L1335.29 907.889 L1337.17 910.323 
  L1339.05 912.746 L1340.92 915.158 L1342.8 917.56 L1344.68 919.95 L1346.56 922.33 L1348.43 924.699 L1350.31 927.057 L1352.19 929.404 L1354.07 931.74 L1355.94 934.066 
  L1357.82 936.381 L1359.7 938.685 L1361.57 940.978 L1363.45 943.26 L1365.33 945.532 L1367.21 947.793 L1369.08 950.043 L1370.96 952.283 L1372.84 954.512 L1374.71 956.73 
  L1376.59 958.938 L1378.47 961.135 L1380.35 963.322 L1382.22 965.498 L1384.1 967.663 L1385.98 969.818 L1387.86 971.963 L1389.73 974.096 L1391.61 976.22 L1393.49 978.333 
  L1395.36 980.436 L1397.24 982.528 L1399.12 984.61 L1401 986.681 L1402.87 988.743 L1404.75 990.794 L1406.63 992.834 L1408.51 994.865 L1410.38 996.885 L1412.26 998.895 
  L1414.14 1000.89 L1416.01 1002.88 L1417.89 1004.86 L1419.77 1006.83 L1421.65 1008.79 L1423.52 1010.74 L1425.4 1012.68 L1427.28 1014.61 L1429.15 1016.53 L1431.03 1018.44 
  L1432.91 1020.34 L1434.79 1022.23 L1436.66 1024.11 L1438.54 1025.98 L1440.42 1027.84 L1442.3 1029.69 L1444.17 1031.53 L1446.05 1033.36 L1447.93 1035.19 L1449.8 1037 
  L1451.68 1038.8 L1453.56 1040.59 L1455.44 1042.38 L1457.31 1044.15 L1459.19 1045.91 L1461.07 1047.67 L1462.95 1049.41 L1464.82 1051.15 L1466.7 1052.88 L1468.58 1054.59 
  L1470.45 1056.3 L1472.33 1058 L1474.21 1059.69 L1476.09 1061.37 L1477.96 1063.04 L1479.84 1064.7 L1481.72 1066.36 L1483.59 1068 L1485.47 1069.64 L1487.35 1071.26 
  L1489.23 1072.88 L1491.1 1074.49 L1492.98 1076.08 L1494.86 1077.67 L1496.74 1079.26 L1498.61 1080.83 L1500.49 1082.39 L1502.37 1083.95 L1504.24 1085.49 L1506.12 1087.03 
  L1508 1088.56 L1509.88 1090.08 L1511.75 1091.59 L1513.63 1093.1 L1515.51 1094.59 L1517.38 1096.08 L1519.26 1097.55 L1521.14 1099.02 L1523.02 1100.49 L1524.89 1101.94 
  L1526.77 1103.38 L1528.65 1104.82 L1530.53 1106.25 L1532.4 1107.67 L1534.28 1109.08 L1536.16 1110.48 L1538.03 1111.88 L1539.91 1113.26 L1541.79 1114.64 L1543.67 1116.01 
  L1545.54 1117.38 L1545.54 1321.27 L1543.67 1321.27 L1541.79 1321.27 L1539.91 1321.27 L1538.03 1321.27 L1536.16 1321.27 L1534.28 1321.27 L1532.4 1321.27 L1530.53 1321.27 
  L1528.65 1321.27 L1526.77 1321.27 L1524.89 1321.27 L1523.02 1321.27 L1521.14 1321.27 L1519.26 1321.27 L1517.38 1321.27 L1515.51 1321.27 L1513.63 1321.27 L1511.75 1321.27 
  L1509.88 1321.27 L1508 1321.27 L1506.12 1321.27 L1504.24 1321.27 L1502.37 1321.27 L1500.49 1321.27 L1498.61 1321.27 L1496.74 1321.27 L1494.86 1321.27 L1492.98 1321.27 
  L1491.1 1321.27 L1489.23 1321.27 L1487.35 1321.27 L1485.47 1321.27 L1483.59 1321.27 L1481.72 1321.27 L1479.84 1321.27 L1477.96 1321.27 L1476.09 1321.27 L1474.21 1321.27 
  L1472.33 1321.27 L1470.45 1321.27 L1468.58 1321.27 L1466.7 1321.27 L1464.82 1321.27 L1462.95 1321.27 L1461.07 1321.27 L1459.19 1321.27 L1457.31 1321.27 L1455.44 1321.27 
  L1453.56 1321.27 L1451.68 1321.27 L1449.8 1321.27 L1447.93 1321.27 L1446.05 1321.27 L1444.17 1321.27 L1442.3 1321.27 L1440.42 1321.27 L1438.54 1321.27 L1436.66 1321.27 
  L1434.79 1321.27 L1432.91 1321.27 L1431.03 1321.27 L1429.15 1321.27 L1427.28 1321.27 L1425.4 1321.27 L1423.52 1321.27 L1421.65 1321.27 L1419.77 1321.27 L1417.89 1321.27 
  L1416.01 1321.27 L1414.14 1321.27 L1412.26 1321.27 L1410.38 1321.27 L1408.51 1321.27 L1406.63 1321.27 L1404.75 1321.27 L1402.87 1321.27 L1401 1321.27 L1399.12 1321.27 
  L1397.24 1321.27 L1395.36 1321.27 L1393.49 1321.27 L1391.61 1321.27 L1389.73 1321.27 L1387.86 1321.27 L1385.98 1321.27 L1384.1 1321.27 L1382.22 1321.27 L1380.35 1321.27 
  L1378.47 1321.27 L1376.59 1321.27 L1374.71 1321.27 L1372.84 1321.27 L1370.96 1321.27 L1369.08 1321.27 L1367.21 1321.27 L1365.33 1321.27 L1363.45 1321.27 L1361.57 1321.27 
  L1359.7 1321.27 L1357.82 1321.27 L1355.94 1321.27 L1354.07 1321.27 L1352.19 1321.27 L1350.31 1321.27 L1348.43 1321.27 L1346.56 1321.27 L1344.68 1321.27 L1342.8 1321.27 
  L1340.92 1321.27 L1339.05 1321.27 L1337.17 1321.27 L1335.29 1321.27 L1333.42 1321.27 L1331.54 1321.27 L1329.66 1321.27 L1327.78 1321.27 L1325.91 1321.27 L1324.03 1321.27 
  L1322.15 1321.27 L1320.27 1321.27 L1318.4 1321.27 L1316.52 1321.27 L1314.64 1321.27 L1312.77 1321.27 L1310.89 1321.27 L1309.01 1321.27 L1307.13 1321.27 L1305.26 1321.27 
  L1303.38 1321.27 L1301.5 1321.27 L1299.63 1321.27 L1297.75 1321.27 L1295.87 1321.27 L1293.99 1321.27 L1292.12 1321.27 L1290.24 1321.27 L1288.36 1321.27 L1286.48 1321.27 
  L1284.61 1321.27 L1282.73 1321.27 L1280.85 1321.27 L1278.98 1321.27 L1277.1 1321.27 L1275.22 1321.27 L1273.34 1321.27 L1271.47 1321.27 L1269.59 1321.27 L1267.71 1321.27 
  L1265.84 1321.27 L1263.96 1321.27 L1262.08 1321.27 L1260.2 1321.27 L1258.33 1321.27 L1256.45 1321.27 L1254.57 1321.27 L1252.69 1321.27 L1250.82 1321.27 L1248.94 1321.27 
  L1247.06 1321.27 L1245.19 1321.27 L1243.31 1321.27 L1241.43 1321.27 L1239.55 1321.27 L1237.68 1321.27 L1235.8 1321.27 L1233.92 1321.27 L1232.04 1321.27 L1230.17 1321.27 
  L1228.29 1321.27 L1226.41 1321.27 L1224.54 1321.27 L1222.66 1321.27 L1220.78 1321.27 L1218.9 1321.27 L1217.03 1321.27 L1215.15 1321.27 L1213.27 1321.27 L1211.4 1321.27 
  L1209.52 1321.27 L1207.64 1321.27 L1205.76 1321.27 L1203.89 1321.27 L1202.01 1321.27 L1200.13 1321.27 L1198.25 1321.27 L1196.38 1321.27 L1194.5 1321.27 L1192.62 1321.27 
  L1190.75 1321.27 L1188.87 1321.27 L1186.99 1321.27 L1185.11 1321.27 L1183.24 1321.27 L1181.36 1321.27 L1179.48 1321.27 L1177.6 1321.27 L1175.73 1321.27 L1173.85 1321.27 
  L1171.97 1321.27 L1170.1 1321.27  Z
  " fill="#6a3c9a" fill-rule="evenodd" fill-opacity="0.5"/>
<polyline clip-path="url(#clip962)" style="stroke:#6a3c9a; stroke-linecap:butt; stroke-linejoin:round; stroke-width:16; stroke-opacity:1; fill:none" points="
  1170.1,651.676 1171.97,655.02 1173.85,658.355 1175.73,661.682 1177.6,665 1179.48,668.31 1181.36,671.611 1183.24,674.902 1185.11,678.185 1186.99,681.459 
  1188.87,684.724 1190.75,687.98 1192.62,691.227 1194.5,694.464 1196.38,697.692 1198.25,700.911 1200.13,704.12 1202.01,707.32 1203.89,710.51 1205.76,713.69 
  1207.64,716.861 1209.52,720.022 1211.4,723.173 1213.27,726.315 1215.15,729.446 1217.03,732.568 1218.9,735.68 1220.78,738.781 1222.66,741.873 1224.54,744.954 
  1226.41,748.026 1228.29,751.087 1230.17,754.138 1232.04,757.178 1233.92,760.209 1235.8,763.228 1237.68,766.238 1239.55,769.237 1241.43,772.226 1243.31,775.204 
  1245.19,778.171 1247.06,781.129 1248.94,784.075 1250.82,787.011 1252.69,789.936 1254.57,792.851 1256.45,795.755 1258.33,798.648 1260.2,801.531 1262.08,804.402 
  1263.96,807.263 1265.84,810.114 1267.71,812.953 1269.59,815.782 1271.47,818.599 1273.34,821.406 1275.22,824.202 1277.1,826.987 1278.98,829.762 1280.85,832.525 
  1282.73,835.277 1284.61,838.019 1286.48,840.749 1288.36,843.469 1290.24,846.177 1292.12,848.875 1293.99,851.562 1295.87,854.237 1297.75,856.902 1299.63,859.556 
  1301.5,862.199 1303.38,864.83 1305.26,867.451 1307.13,870.061 1309.01,872.659 1310.89,875.247 1312.77,877.824 1314.64,880.39 1316.52,882.945 1318.4,885.488 
  1320.27,888.021 1322.15,890.543 1324.03,893.054 1325.91,895.554 1327.78,898.042 1329.66,900.52 1331.54,902.987 1333.42,905.443 1335.29,907.889 1337.17,910.323 
  1339.05,912.746 1340.92,915.158 1342.8,917.56 1344.68,919.95 1346.56,922.33 1348.43,924.699 1350.31,927.057 1352.19,929.404 1354.07,931.74 1355.94,934.066 
  1357.82,936.381 1359.7,938.685 1361.57,940.978 1363.45,943.26 1365.33,945.532 1367.21,947.793 1369.08,950.043 1370.96,952.283 1372.84,954.512 1374.71,956.73 
  1376.59,958.938 1378.47,961.135 1380.35,963.322 1382.22,965.498 1384.1,967.663 1385.98,969.818 1387.86,971.963 1389.73,974.096 1391.61,976.22 1393.49,978.333 
  1395.36,980.436 1397.24,982.528 1399.12,984.61 1401,986.681 1402.87,988.743 1404.75,990.794 1406.63,992.834 1408.51,994.865 1410.38,996.885 1412.26,998.895 
  1414.14,1000.89 1416.01,1002.88 1417.89,1004.86 1419.77,1006.83 1421.65,1008.79 1423.52,1010.74 1425.4,1012.68 1427.28,1014.61 1429.15,1016.53 1431.03,1018.44 
  1432.91,1020.34 1434.79,1022.23 1436.66,1024.11 1438.54,1025.98 1440.42,1027.84 1442.3,1029.69 1444.17,1031.53 1446.05,1033.36 1447.93,1035.19 1449.8,1037 
  1451.68,1038.8 1453.56,1040.59 1455.44,1042.38 1457.31,1044.15 1459.19,1045.91 1461.07,1047.67 1462.95,1049.41 1464.82,1051.15 1466.7,1052.88 1468.58,1054.59 
  1470.45,1056.3 1472.33,1058 1474.21,1059.69 1476.09,1061.37 1477.96,1063.04 1479.84,1064.7 1481.72,1066.36 1483.59,1068 1485.47,1069.64 1487.35,1071.26 
  1489.23,1072.88 1491.1,1074.49 1492.98,1076.08 1494.86,1077.67 1496.74,1079.26 1498.61,1080.83 1500.49,1082.39 1502.37,1083.95 1504.24,1085.49 1506.12,1087.03 
  1508,1088.56 1509.88,1090.08 1511.75,1091.59 1513.63,1093.1 1515.51,1094.59 1517.38,1096.08 1519.26,1097.55 1521.14,1099.02 1523.02,1100.49 1524.89,1101.94 
  1526.77,1103.38 1528.65,1104.82 1530.53,1106.25 1532.4,1107.67 1534.28,1109.08 1536.16,1110.48 1538.03,1111.88 1539.91,1113.26 1541.79,1114.64 1543.67,1116.01 
  1545.54,1117.38 
  "/>
<polyline clip-path="url(#clip962)" style="stroke:#1f78b4; stroke-linecap:butt; stroke-linejoin:round; stroke-width:16; stroke-opacity:1; fill:none" points="
  419.201,1321.27 421.078,1321.05 422.955,1320.38 424.832,1319.28 426.71,1317.76 428.587,1315.84 430.464,1313.53 432.341,1310.83 434.218,1307.77 436.096,1304.36 
  437.973,1300.6 439.85,1296.5 441.727,1292.09 443.605,1287.36 445.482,1282.34 447.359,1277.02 449.236,1271.43 451.114,1265.56 452.991,1259.44 454.868,1253.06 
  456.745,1246.44 458.623,1239.59 460.5,1232.52 462.377,1225.24 464.254,1217.74 466.132,1210.05 468.009,1202.18 469.886,1194.12 471.763,1185.88 473.64,1177.48 
  475.518,1168.93 477.395,1160.22 479.272,1151.37 481.149,1142.38 483.027,1133.27 484.904,1124.03 486.781,1114.67 488.658,1105.21 490.536,1095.64 492.413,1085.97 
  494.29,1076.21 496.167,1066.37 498.045,1056.44 499.922,1046.44 501.799,1036.38 503.676,1026.24 505.554,1016.05 507.431,1005.81 509.308,995.517 511.185,985.18 
  513.062,974.804 514.94,964.393 516.817,953.952 518.694,943.486 520.571,932.997 522.449,922.491 524.326,911.972 526.203,901.443 528.08,890.908 529.958,880.371 
  531.835,869.836 533.712,859.305 535.589,848.783 537.467,838.273 539.344,827.778 541.221,817.301 543.098,806.845 544.976,796.413 546.853,786.008 548.73,775.633 
  550.607,765.29 552.484,754.983 554.362,744.713 556.239,734.484 558.116,724.297 559.993,714.155 561.871,704.061 563.748,694.015 565.625,684.022 567.502,674.081 
  569.38,664.197 571.257,654.37 573.134,644.602 575.011,634.896 576.889,625.252 578.766,615.673 580.643,606.16 582.52,596.714 584.398,587.338 586.275,578.033 
  588.152,568.8 590.029,559.64 591.906,550.554 593.784,541.545 595.661,532.613 597.538,523.758 599.415,514.984 601.293,506.289 603.17,497.676 605.047,489.145 
  606.924,480.698 608.802,472.334 610.679,464.055 612.556,455.862 614.433,447.756 616.311,439.736 618.188,431.804 620.065,423.961 621.942,416.206 623.82,408.541 
  625.697,400.966 627.574,393.482 629.451,386.088 631.328,378.786 633.206,371.576 635.083,364.458 636.96,357.432 638.837,350.499 640.715,343.658 642.592,336.912 
  644.469,330.258 646.346,323.698 648.224,317.232 650.101,310.86 651.978,304.581 653.855,298.397 655.733,292.307 657.61,286.311 659.487,280.409 661.364,274.601 
  663.242,268.887 665.119,263.268 666.996,257.742 668.873,252.31 670.751,246.972 672.628,241.727 674.505,236.576 676.382,231.518 678.259,226.553 680.137,221.682 
  682.014,216.902 683.891,212.215 685.768,207.621 687.646,203.118 689.523,198.707 691.4,194.387 693.277,190.158 695.155,186.02 697.032,181.972 698.909,178.014 
  700.786,174.145 702.664,170.366 704.541,166.675 706.418,163.074 708.295,159.56 710.173,156.133 712.05,152.794 713.927,149.542 715.804,146.376 717.681,143.295 
  719.559,140.3 721.436,137.39 723.313,134.565 725.19,131.823 727.068,129.164 728.945,126.589 730.822,124.096 732.699,121.685 734.577,119.355 736.454,117.106 
  738.331,114.937 740.208,112.848 742.086,110.838 743.963,108.907 745.84,107.054 747.717,105.278 749.595,103.579 751.472,101.957 753.349,100.41 755.226,98.9388 
  757.103,97.5419 758.981,96.2192 760.858,94.9698 762.735,93.7933 764.612,92.689 766.49,91.6564 768.367,90.6949 770.244,89.8038 772.121,88.9825 773.999,88.2304 
  775.876,87.547 777.753,86.9316 779.63,86.3835 781.508,85.9023 783.385,85.4872 785.262,85.1377 787.139,84.8531 789.017,84.6328 790.894,84.4762 792.771,84.3827 
  794.648,84.3517 796.525,84.3825 798.403,84.4746 800.28,84.6272 802.157,84.8399 804.034,85.1119 805.912,85.4427 807.789,85.8316 809.666,86.278 811.543,86.7814 
  813.421,87.341 815.298,87.9564 817.175,88.6268 819.052,89.3516 820.93,90.1303 822.807,90.9622 824.684,91.8468 826.561,92.7834 828.439,93.7714 830.316,94.8103 
  832.193,95.8993 834.07,97.038 835.947,98.2257 837.825,99.4619 839.702,100.746 841.579,102.077 843.456,103.455 845.334,104.879 847.211,106.348 849.088,107.863 
  850.965,109.421 852.843,111.024 854.72,112.67 856.597,114.358 858.474,116.088 860.352,117.86 862.229,119.673 864.106,121.526 865.983,123.418 867.861,125.351 
  869.738,127.321 871.615,129.33 873.492,131.377 875.369,133.46 877.247,135.58 879.124,137.736 881.001,139.928 882.878,142.154 884.756,144.415 886.633,146.71 
  888.51,149.038 890.387,151.398 892.265,153.791 894.142,156.216 896.019,158.673 897.896,161.159 899.774,163.677 901.651,166.224 903.528,168.8 905.405,171.405 
  907.283,174.039 909.16,176.7 911.037,179.389 912.914,182.104 914.791,184.846 916.669,187.614 918.546,190.407 920.423,193.226 922.3,196.069 924.178,198.936 
  926.055,201.826 927.932,204.74 929.809,207.676 931.687,210.635 933.564,213.616 935.441,216.618 937.318,219.641 939.196,222.685 941.073,225.749 942.95,228.832 
  944.827,231.935 946.705,235.057 948.582,238.197 950.459,241.356 952.336,244.532 954.213,247.725 956.091,250.935 957.968,254.162 959.845,257.405 961.722,260.663 
  963.6,263.937 965.477,267.226 967.354,270.529 969.231,273.847 971.109,277.178 972.986,280.523 974.863,283.881 976.74,287.252 978.618,290.635 980.495,294.031 
  982.372,297.438 984.249,300.856 986.127,304.285 988.004,307.726 989.881,311.176 991.758,314.637 993.635,318.107 995.513,321.587 997.39,325.075 999.267,328.573 
  1001.14,332.079 1003.02,335.593 1004.9,339.115 1006.78,342.644 1008.65,346.181 1010.53,349.724 1012.41,353.274 1014.29,356.831 1016.16,360.394 1018.04,363.962 
  1019.92,367.536 1021.79,371.115 1023.67,374.699 1025.55,378.288 1027.43,381.881 1029.3,385.478 1031.18,389.079 1033.06,392.684 1034.93,396.292 1036.81,399.903 
  1038.69,403.517 1040.57,407.134 1042.44,410.753 1044.32,414.374 1046.2,417.997 1048.08,421.622 1049.95,425.248 1051.83,428.875 1053.71,432.503 1055.58,436.132 
  1057.46,439.762 1059.34,443.392 1061.22,447.022 1063.09,450.652 1064.97,454.281 1066.85,457.91 1068.72,461.538 1070.6,465.166 1072.48,468.792 1074.36,472.417 
  1076.23,476.04 1078.11,479.661 1079.99,483.281 1081.87,486.898 1083.74,490.514 1085.62,494.126 1087.5,497.737 1089.37,501.344 1091.25,504.948 1093.13,508.549 
  1095.01,512.147 1096.88,515.742 1098.76,519.332 1100.64,522.919 1102.52,526.502 1104.39,530.081 1106.27,533.655 1108.15,537.225 1110.02,540.791 1111.9,544.351 
  1113.78,547.907 1115.66,551.458 1117.53,555.003 1119.41,558.544 1121.29,562.079 1123.16,565.608 1125.04,569.131 1126.92,572.649 1128.8,576.161 1130.67,579.666 
  1132.55,583.166 1134.43,586.659 1136.31,590.146 1138.18,593.626 1140.06,597.099 1141.94,600.566 1143.81,604.025 1145.69,607.478 1147.57,610.923 1149.45,614.362 
  1151.32,617.793 1153.2,621.216 1155.08,624.632 1156.96,628.04 1158.83,631.441 1160.71,634.834 1162.59,638.218 1164.46,641.595 1166.34,644.964 1168.22,648.324 
  1170.1,651.676 1171.97,655.02 1173.85,658.355 1175.73,661.682 1177.6,665 1179.48,668.31 1181.36,671.611 1183.24,674.902 1185.11,678.185 1186.99,681.459 
  1188.87,684.724 1190.75,687.98 1192.62,691.227 1194.5,694.464 1196.38,697.692 1198.25,700.911 1200.13,704.12 1202.01,707.32 1203.89,710.51 1205.76,713.69 
  1207.64,716.861 1209.52,720.022 1211.4,723.173 1213.27,726.315 1215.15,729.446 1217.03,732.568 1218.9,735.68 1220.78,738.781 1222.66,741.873 1224.54,744.954 
  1226.41,748.026 1228.29,751.087 1230.17,754.138 1232.04,757.178 1233.92,760.209 1235.8,763.228 1237.68,766.238 1239.55,769.237 1241.43,772.226 1243.31,775.204 
  1245.19,778.171 1247.06,781.129 1248.94,784.075 1250.82,787.011 1252.69,789.936 1254.57,792.851 1256.45,795.755 1258.33,798.648 1260.2,801.531 1262.08,804.402 
  1263.96,807.263 1265.84,810.114 1267.71,812.953 1269.59,815.782 1271.47,818.599 1273.34,821.406 1275.22,824.202 1277.1,826.987 1278.98,829.762 1280.85,832.525 
  1282.73,835.277 1284.61,838.019 1286.48,840.749 1288.36,843.469 1290.24,846.177 1292.12,848.875 1293.99,851.562 1295.87,854.237 1297.75,856.902 1299.63,859.556 
  1301.5,862.199 1303.38,864.83 1305.26,867.451 1307.13,870.061 1309.01,872.659 1310.89,875.247 1312.77,877.824 1314.64,880.39 1316.52,882.945 1318.4,885.488 
  1320.27,888.021 1322.15,890.543 1324.03,893.054 1325.91,895.554 1327.78,898.042 1329.66,900.52 1331.54,902.987 1333.42,905.443 1335.29,907.889 1337.17,910.323 
  1339.05,912.746 1340.92,915.158 1342.8,917.56 1344.68,919.95 1346.56,922.33 1348.43,924.699 1350.31,927.057 1352.19,929.404 1354.07,931.74 1355.94,934.066 
  1357.82,936.381 1359.7,938.685 1361.57,940.978 1363.45,943.26 1365.33,945.532 1367.21,947.793 1369.08,950.043 1370.96,952.283 1372.84,954.512 1374.71,956.73 
  1376.59,958.938 1378.47,961.135 1380.35,963.322 1382.22,965.498 1384.1,967.663 1385.98,969.818 1387.86,971.963 1389.73,974.096 1391.61,976.22 1393.49,978.333 
  1395.36,980.436 1397.24,982.528 1399.12,984.61 1401,986.681 1402.87,988.743 1404.75,990.794 1406.63,992.834 1408.51,994.865 1410.38,996.885 1412.26,998.895 
  1414.14,1000.89 1416.01,1002.88 1417.89,1004.86 1419.77,1006.83 1421.65,1008.79 1423.52,1010.74 1425.4,1012.68 1427.28,1014.61 1429.15,1016.53 1431.03,1018.44 
  1432.91,1020.34 1434.79,1022.23 1436.66,1024.11 1438.54,1025.98 1440.42,1027.84 1442.3,1029.69 1444.17,1031.53 1446.05,1033.36 1447.93,1035.19 1449.8,1037 
  1451.68,1038.8 1453.56,1040.59 1455.44,1042.38 1457.31,1044.15 1459.19,1045.91 1461.07,1047.67 1462.95,1049.41 1464.82,1051.15 1466.7,1052.88 1468.58,1054.59 
  1470.45,1056.3 1472.33,1058 1474.21,1059.69 1476.09,1061.37 1477.96,1063.04 1479.84,1064.7 1481.72,1066.36 1483.59,1068 1485.47,1069.64 1487.35,1071.26 
  1489.23,1072.88 1491.1,1074.49 1492.98,1076.08 1494.86,1077.67 1496.74,1079.26 1498.61,1080.83 1500.49,1082.39 1502.37,1083.95 1504.24,1085.49 1506.12,1087.03 
  1508,1088.56 1509.88,1090.08 1511.75,1091.59 1513.63,1093.1 1515.51,1094.59 1517.38,1096.08 1519.26,1097.55 1521.14,1099.02 1523.02,1100.49 1524.89,1101.94 
  1526.77,1103.38 1528.65,1104.82 1530.53,1106.25 1532.4,1107.67 1534.28,1109.08 1536.16,1110.48 1538.03,1111.88 1539.91,1113.26 1541.79,1114.64 1543.67,1116.01 
  1545.54,1117.38 1547.42,1118.73 1549.3,1120.08 1551.18,1121.42 1553.05,1122.75 1554.93,1124.08 1556.81,1125.39 1558.68,1126.7 1560.56,1128 1562.44,1129.29 
  1564.32,1130.58 1566.19,1131.86 1568.07,1133.13 1569.95,1134.39 1571.82,1135.65 1573.7,1136.89 1575.58,1138.13 1577.46,1139.37 1579.33,1140.59 1581.21,1141.81 
  1583.09,1143.02 1584.97,1144.23 1586.84,1145.42 1588.72,1146.61 1590.6,1147.8 1592.47,1148.97 1594.35,1150.14 1596.23,1151.3 1598.11,1152.45 1599.98,1153.6 
  1601.86,1154.74 1603.74,1155.87 1605.62,1157 1607.49,1158.12 1609.37,1159.23 1611.25,1160.34 1613.12,1161.44 1615,1162.53 1616.88,1163.62 1618.76,1164.69 
  1620.63,1165.77 1622.51,1166.83 1624.39,1167.89 1626.26,1168.94 1628.14,1169.99 1630.02,1171.03 1631.9,1172.06 1633.77,1173.09 1635.65,1174.11 1637.53,1175.13 
  1639.41,1176.13 1641.28,1177.14 1643.16,1178.13 1645.04,1179.12 1646.91,1180.1 1648.79,1181.08 1650.67,1182.05 1652.55,1183.02 1654.42,1183.97 1656.3,1184.93 
  1658.18,1185.87 1660.06,1186.81 1661.93,1187.75 1663.81,1188.68 1665.69,1189.6 1667.56,1190.52 1669.44,1191.43 1671.32,1192.34 1673.2,1193.23 1675.07,1194.13 
  1676.95,1195.02 1678.83,1195.9 1680.7,1196.78 1682.58,1197.65 1684.46,1198.52 1686.34,1199.38 1688.21,1200.23 1690.09,1201.08 1691.97,1201.92 1693.85,1202.76 
  1695.72,1203.6 1697.6,1204.42 1699.48,1205.25 1701.35,1206.06 1703.23,1206.88 1705.11,1207.68 1706.99,1208.49 1708.86,1209.28 1710.74,1210.07 1712.62,1210.86 
  1714.49,1211.64 1716.37,1212.42 1718.25,1213.19 1720.13,1213.95 1722,1214.71 1723.88,1215.47 1725.76,1216.22 1727.64,1216.97 1729.51,1217.71 1731.39,1218.45 
  1733.27,1219.18 1735.14,1219.9 1737.02,1220.63 1738.9,1221.34 1740.78,1222.06 1742.65,1222.76 1744.53,1223.47 1746.41,1224.17 1748.29,1224.86 1750.16,1225.55 
  1752.04,1226.23 1753.92,1226.91 1755.79,1227.59 1757.67,1228.26 1759.55,1228.93 1761.43,1229.59 1763.3,1230.25 1765.18,1230.9 1767.06,1231.55 1768.93,1232.2 
  1770.81,1232.84 1772.69,1233.48 1774.57,1234.11 1776.44,1234.74 1778.32,1235.36 1780.2,1235.98 1782.08,1236.6 1783.95,1237.21 1785.83,1237.81 1787.71,1238.42 
  1789.58,1239.02 1791.46,1239.61 1793.34,1240.2 1795.22,1240.79 1797.09,1241.37 1798.97,1241.95 1800.85,1242.53 1802.73,1243.1 1804.6,1243.67 1806.48,1244.23 
  1808.36,1244.79 1810.23,1245.35 1812.11,1245.9 1813.99,1246.45 1815.87,1246.99 1817.74,1247.53 1819.62,1248.07 1821.5,1248.61 1823.37,1249.14 1825.25,1249.66 
  1827.13,1250.19 1829.01,1250.71 1830.88,1251.22 1832.76,1251.73 1834.64,1252.24 1836.52,1252.75 1838.39,1253.25 1840.27,1253.75 1842.15,1254.24 1844.02,1254.74 
  1845.9,1255.22 1847.78,1255.71 1849.66,1256.19 1851.53,1256.67 1853.41,1257.14 1855.29,1257.62 1857.17,1258.08 1859.04,1258.55 1860.92,1259.01 1862.8,1259.47 
  1864.67,1259.93 1866.55,1260.38 1868.43,1260.83 1870.31,1261.27 1872.18,1261.72 1874.06,1262.16 1875.94,1262.6 1877.81,1263.03 1879.69,1263.46 1881.57,1263.89 
  1883.45,1264.31 1885.32,1264.74 1887.2,1265.15 1889.08,1265.57 1890.96,1265.98 1892.83,1266.39 1894.71,1266.8 1896.59,1267.21 1898.46,1267.61 1900.34,1268.01 
  1902.22,1268.4 1904.1,1268.8 1905.97,1269.19 1907.85,1269.58 1909.73,1269.96 1911.6,1270.34 1913.48,1270.72 1915.36,1271.1 1917.24,1271.47 1919.11,1271.85 
  1920.99,1272.22 1922.87,1272.58 1924.75,1272.95 1926.62,1273.31 1928.5,1273.67 1930.38,1274.02 1932.25,1274.38 1934.13,1274.73 1936.01,1275.08 1937.89,1275.42 
  1939.76,1275.77 1941.64,1276.11 1943.52,1276.45 1945.4,1276.78 1947.27,1277.12 1949.15,1277.45 1951.03,1277.78 1952.9,1278.11 1954.78,1278.43 1956.66,1278.75 
  1958.54,1279.08 1960.41,1279.39 1962.29,1279.71 1964.17,1280.02 1966.04,1280.33 1967.92,1280.64 1969.8,1280.95 1971.68,1281.25 1973.55,1281.56 1975.43,1281.86 
  1977.31,1282.15 1979.19,1282.45 1981.06,1282.74 1982.94,1283.03 1984.82,1283.32 1986.69,1283.61 1988.57,1283.9 1990.45,1284.18 1992.33,1284.46 1994.2,1284.74 
  1996.08,1285.02 1997.96,1285.29 1999.84,1285.57 2001.71,1285.84 2003.59,1286.11 2005.47,1286.37 2007.34,1286.64 2009.22,1286.9 2011.1,1287.17 2012.98,1287.42 
  2014.85,1287.68 2016.73,1287.94 2018.61,1288.19 2020.48,1288.44 2022.36,1288.7 2024.24,1288.94 2026.12,1289.19 2027.99,1289.44 2029.87,1289.68 2031.75,1289.92 
  2033.63,1290.16 2035.5,1290.4 2037.38,1290.63 2039.26,1290.87 2041.13,1291.1 2043.01,1291.33 2044.89,1291.56 2046.77,1291.79 2048.64,1292.01 2050.52,1292.24 
  2052.4,1292.46 2054.28,1292.68 2056.15,1292.9 2058.03,1293.12 2059.91,1293.34 2061.78,1293.55 2063.66,1293.76 2065.54,1293.98 2067.42,1294.19 2069.29,1294.39 
  2071.17,1294.6 2073.05,1294.81 2074.92,1295.01 2076.8,1295.21 2078.68,1295.41 2080.56,1295.61 2082.43,1295.81 2084.31,1296.01 2086.19,1296.2 2088.07,1296.4 
  2089.94,1296.59 2091.82,1296.78 2093.7,1296.97 2095.57,1297.16 2097.45,1297.34 2099.33,1297.53 2101.21,1297.71 2103.08,1297.89 2104.96,1298.07 2106.84,1298.25 
  2108.71,1298.43 2110.59,1298.61 2112.47,1298.78 2114.35,1298.96 2116.22,1299.13 2118.1,1299.3 2119.98,1299.47 2121.86,1299.64 2123.73,1299.81 2125.61,1299.98 
  2127.49,1300.14 2129.36,1300.31 2131.24,1300.47 2133.12,1300.63 2135,1300.79 2136.87,1300.95 2138.75,1301.11 2140.63,1301.27 2142.51,1301.42 2144.38,1301.58 
  2146.26,1301.73 2148.14,1301.88 2150.01,1302.04 2151.89,1302.19 2153.77,1302.33 2155.65,1302.48 2157.52,1302.63 2159.4,1302.77 2161.28,1302.92 2163.15,1303.06 
  2165.03,1303.2 2166.91,1303.35 2168.79,1303.49 2170.66,1303.63 2172.54,1303.76 2174.42,1303.9 2176.3,1304.04 2178.17,1304.17 2180.05,1304.31 2181.93,1304.44 
  2183.8,1304.57 2185.68,1304.7 2187.56,1304.83 2189.44,1304.96 2191.31,1305.09 2193.19,1305.22 2195.07,1305.34 2196.95,1305.47 2198.82,1305.59 2200.7,1305.71 
  2202.58,1305.84 2204.45,1305.96 2206.33,1306.08 2208.21,1306.2 2210.09,1306.32 2211.96,1306.43 2213.84,1306.55 2215.72,1306.67 2217.59,1306.78 2219.47,1306.9 
  2221.35,1307.01 2223.23,1307.12 2225.1,1307.23 2226.98,1307.34 2228.86,1307.45 2230.74,1307.56 2232.61,1307.67 2234.49,1307.78 2236.37,1307.89 2238.24,1307.99 
  2240.12,1308.1 2242,1308.2 2243.88,1308.3 2245.75,1308.41 2247.63,1308.51 2249.51,1308.61 2251.39,1308.71 2253.26,1308.81 2255.14,1308.91 2257.02,1309.01 
  2258.89,1309.1 2260.77,1309.2 2262.65,1309.3 2264.53,1309.39 2266.4,1309.49 2268.28,1309.58 2270.16,1309.67 2272.03,1309.76 2273.91,1309.86 2275.79,1309.95 
  2277.67,1310.04 2279.54,1310.13 2281.42,1310.21 2283.3,1310.3 2285.18,1310.39 2287.05,1310.48 2288.93,1310.56 2290.81,1310.65 2292.68,1310.73 2294.56,1310.82 
  2296.44,1310.9 
  "/>
<polyline clip-path="url(#clip962)" style="stroke:#000000; stroke-linecap:butt; stroke-linejoin:round; stroke-width:8; stroke-opacity:1; fill:none" points="
  1545.54,681.495 1357.82,1092.78 
  "/>
<polyline clip-path="url(#clip962)" style="stroke:#000000; stroke-linecap:butt; stroke-linejoin:round; stroke-width:8; stroke-opacity:1; fill:none" points="
  1389.14,1067.5 1357.82,1092.78 1356.39,1052.56 
  "/>
<polyline clip-path="url(#clip962)" style="stroke:#000000; stroke-linecap:butt; stroke-linejoin:round; stroke-width:8; stroke-opacity:1; fill:none" points="
  1357.82,1092.78 1545.54,681.495 
  "/>
<path clip-path="url(#clip960)" d="M1208.53 622.042 L1208.53 619.091 L1210.82 619.091 Q1216.02 619.091 1217.19 618.248 Q1218.41 617.358 1218.41 614.547 L1218.41 564.001 Q1218.41 561.237 1217.19 560.394 Q1215.97 559.504 1210.82 559.504 L1208.53 559.504 L1208.53 556.506 L1242.4 556.506 Q1252.09 556.506 1258.56 561.846 Q1265.02 567.187 1265.02 574.354 Q1265.02 581.474 1258.42 586.627 Q1251.86 591.733 1243.14 591.733 L1226.94 591.733 L1226.94 614.547 Q1226.94 617.311 1228.11 618.201 Q1229.33 619.091 1234.53 619.091 L1236.82 619.091 L1236.82 622.042 Q1233.45 621.761 1222.63 621.761 Q1211.9 621.761 1208.53 622.042 M1226.66 589.251 L1239.87 589.251 Q1244.18 589.251 1247.31 588.033 Q1250.45 586.815 1251.86 585.363 Q1253.31 583.864 1254.11 581.474 Q1254.95 579.039 1255.04 577.727 Q1255.14 576.368 1255.14 574.354 Q1255.14 572.246 1255.04 570.934 Q1254.95 569.576 1254.11 567.187 Q1253.31 564.751 1251.86 563.299 Q1250.45 561.8 1247.31 560.675 Q1244.22 559.504 1239.87 559.504 L1231.34 559.504 Q1228.06 559.504 1227.36 560.16 Q1226.66 560.816 1226.66 563.345 L1226.66 589.251 Z" fill="#000000" fill-rule="evenodd" fill-opacity="1" /><path clip-path="url(#clip960)" d="M1283.86 622.042 L1283.86 619.091 Q1288.97 619.091 1290.14 618.482 Q1291.35 617.826 1291.35 614.734 L1291.35 589.016 Q1291.35 585.456 1290.09 584.566 Q1288.87 583.676 1283.86 583.676 L1283.86 580.678 L1297.21 579.648 L1297.21 590.188 Q1298.57 586.065 1301.43 582.88 Q1304.33 579.648 1309.01 579.648 Q1312.11 579.648 1314.07 581.381 Q1316.09 583.114 1316.09 585.503 Q1316.09 587.611 1314.78 588.689 Q1313.51 589.719 1311.97 589.719 Q1310.23 589.719 1309.01 588.642 Q1307.84 587.517 1307.84 585.597 Q1307.84 584.426 1308.36 583.536 Q1308.92 582.599 1309.34 582.271 Q1309.76 581.943 1310.05 581.849 Q1309.86 581.756 1309.01 581.756 Q1303.72 581.756 1300.68 587.049 Q1297.68 592.296 1297.68 599.791 L1297.68 614.547 Q1297.68 617.311 1298.8 618.201 Q1299.97 619.091 1304.99 619.091 L1307 619.091 L1307 622.042 Q1303.16 621.761 1294.82 621.761 Q1293.65 621.761 1291.82 621.808 Q1290 621.855 1287.61 621.948 Q1285.22 622.042 1283.86 622.042 Z" fill="#000000" fill-rule="evenodd" fill-opacity="1" /><path clip-path="url(#clip960)" d="M1320.97 598.058 Q1320.97 581.849 1327.02 568.78 Q1329.59 563.299 1333.2 558.708 Q1336.81 554.117 1339.2 552.103 Q1341.59 550.088 1342.24 550.088 Q1343.18 550.088 1343.23 551.025 Q1343.23 551.494 1341.96 552.665 Q1326.5 568.405 1326.55 598.058 Q1326.55 627.804 1341.59 642.935 Q1343.23 644.575 1343.23 645.09 Q1343.23 646.027 1342.24 646.027 Q1341.59 646.027 1339.29 644.106 Q1337 642.185 1333.44 637.782 Q1329.88 633.379 1327.3 627.991 Q1320.97 614.922 1320.97 598.058 Z" fill="#000000" fill-rule="evenodd" fill-opacity="1" /><path clip-path="url(#clip960)" d="M1350.13 606.209 L1350.13 603.257 L1379.6 558.239 Q1380.35 557.068 1381.52 557.115 Q1382.6 557.115 1382.83 557.537 Q1383.06 557.958 1383.06 559.598 L1383.06 603.257 L1392.67 603.257 L1392.67 606.209 L1383.06 606.209 L1383.06 614.547 Q1383.06 617.311 1384.19 618.201 Q1385.36 619.091 1390.32 619.091 L1392.34 619.091 L1392.34 622.042 Q1388.4 621.761 1379.32 621.761 Q1370.28 621.761 1366.34 622.042 L1366.34 619.091 L1368.35 619.091 Q1373.32 619.091 1374.49 618.248 Q1375.66 617.358 1375.66 614.547 L1375.66 606.209 L1350.13 606.209 M1352.85 603.257 L1376.22 603.257 L1376.22 567.468 L1352.85 603.257 Z" fill="#000000" fill-rule="evenodd" fill-opacity="1" /><path clip-path="url(#clip960)" d="M1483.23 614.828 Q1484.31 615.343 1484.36 616.421 Q1484.4 617.498 1483.51 618.154 Q1482.62 618.81 1481.5 618.295 L1425.75 591.921 Q1424.53 591.359 1424.53 590 Q1424.53 588.642 1425.75 588.08 L1481.5 561.706 Q1482.62 561.191 1483.51 561.846 Q1484.4 562.502 1484.36 563.58 Q1484.31 564.657 1483.23 565.172 L1430.67 590 L1483.23 614.828 M1483.75 630.193 Q1484.31 630.755 1484.31 631.552 Q1484.31 632.348 1483.75 632.91 Q1483.18 633.472 1482.39 633.472 L1426.17 633.472 Q1425.38 633.472 1424.82 632.91 Q1424.25 632.348 1424.25 631.552 Q1424.25 630.755 1424.82 630.193 Q1425.38 629.631 1426.17 629.631 L1482.39 629.631 Q1483.18 629.631 1483.75 630.193 Z" fill="#000000" fill-rule="evenodd" fill-opacity="1" /><path clip-path="url(#clip960)" d="M1603.85 557.584 Q1603.85 558.427 1603.52 558.895 Q1603.24 559.317 1602.91 559.411 Q1602.58 559.457 1601.74 559.504 Q1595.04 559.832 1589.56 564.376 Q1588.2 565.547 1584.78 569.201 Q1581.41 572.855 1576.91 577.727 Q1572.46 582.599 1569.89 585.222 L1582.25 614.828 Q1582.77 615.999 1582.96 616.514 Q1583.19 616.983 1583.66 617.592 Q1584.17 618.201 1584.55 618.388 Q1584.97 618.576 1585.86 618.81 Q1586.8 618.997 1587.73 619.044 Q1588.72 619.044 1590.5 619.091 Q1591.06 619.091 1591.29 619.138 Q1591.57 619.138 1591.9 619.419 Q1592.23 619.653 1592.23 620.215 Q1592.23 621.058 1591.86 621.527 Q1591.53 621.948 1591.2 621.995 Q1590.92 622.042 1590.4 622.042 Q1589.19 622.042 1585.06 621.902 Q1580.94 621.761 1579.77 621.761 L1567.68 622.042 Q1566.23 622.042 1566.23 620.871 Q1566.23 620.262 1566.33 619.934 Q1566.47 619.559 1566.79 619.419 Q1567.12 619.231 1567.36 619.185 Q1567.59 619.138 1568.15 619.091 Q1569.89 618.904 1571.2 618.388 Q1572.56 617.826 1573.12 617.264 Q1573.73 616.702 1573.73 616.28 L1573.26 614.922 L1563.56 592.015 L1554.9 601.43 L1545.1 611.783 Q1542.53 614.547 1542.53 616.093 Q1542.53 618.669 1546.37 619.091 Q1547.54 619.185 1547.54 620.122 Q1547.54 621.012 1547.17 621.48 Q1546.84 621.902 1546.51 621.995 Q1546.23 622.042 1545.81 622.042 Q1544.07 622.042 1540.42 621.902 Q1536.81 621.761 1535.03 621.761 Q1533.53 621.761 1530.49 621.902 Q1527.44 622.042 1526.04 622.042 Q1525.48 622.042 1525.15 621.761 Q1524.82 621.48 1524.82 621.199 L1524.77 620.965 Q1524.77 620.309 1524.87 619.934 Q1525.01 619.559 1525.38 619.372 Q1525.8 619.185 1525.99 619.185 Q1526.18 619.138 1526.88 619.091 Q1530.86 618.857 1534.24 617.311 Q1537.66 615.765 1540.98 612.158 Q1541.26 611.924 1541.59 611.643 Q1541.97 611.362 1542.25 611.127 L1562.48 589.344 L1551.15 562.549 Q1550.63 561.331 1550.16 560.816 Q1549.7 560.254 1548.24 559.879 Q1546.79 559.504 1543.98 559.504 Q1543.18 559.504 1542.81 559.457 Q1542.43 559.411 1542.11 559.176 Q1541.78 558.942 1541.78 558.427 Q1541.78 557.537 1542.11 557.115 Q1542.48 556.647 1542.76 556.6 Q1543.09 556.506 1543.51 556.506 Q1544.68 556.506 1548.85 556.647 Q1553.02 556.787 1554.24 556.787 Q1556.25 556.787 1560.28 556.647 Q1564.36 556.506 1566.33 556.506 Q1567.78 556.506 1567.78 557.677 Q1567.78 558.427 1567.45 558.848 Q1567.12 559.27 1566.79 559.364 Q1566.47 559.457 1565.86 559.504 Q1564.03 559.692 1562.62 560.301 Q1561.27 560.863 1560.7 561.425 Q1560.19 561.94 1560.19 562.268 L1560.66 563.533 L1568.71 582.599 L1584.27 565.922 Q1586.09 563.861 1586.09 562.455 Q1586.09 559.926 1582.25 559.504 Q1581.08 559.317 1581.08 558.427 Q1581.08 557.537 1581.46 557.115 Q1581.83 556.647 1582.11 556.6 Q1582.44 556.506 1582.91 556.506 Q1584.64 556.506 1588.2 556.647 Q1591.81 556.787 1593.59 556.787 Q1595.09 556.787 1598.13 556.647 Q1601.18 556.506 1602.58 556.506 Q1603.15 556.506 1603.47 556.787 Q1603.8 557.021 1603.8 557.303 L1603.85 557.584 Z" fill="#000000" fill-rule="evenodd" fill-opacity="1" /><path clip-path="url(#clip960)" d="M1689 614.828 Q1690.08 615.343 1690.13 616.421 Q1690.17 617.498 1689.28 618.154 Q1688.39 618.81 1687.27 618.295 L1631.53 591.921 Q1630.31 591.359 1630.31 590 Q1630.31 588.642 1631.53 588.08 L1687.27 561.706 Q1688.39 561.191 1689.28 561.846 Q1690.17 562.502 1690.13 563.58 Q1690.08 564.657 1689 565.172 L1636.44 590 L1689 614.828 M1689.52 630.193 Q1690.08 630.755 1690.08 631.552 Q1690.08 632.348 1689.52 632.91 Q1688.96 633.472 1688.16 633.472 L1631.95 633.472 Q1631.15 633.472 1630.59 632.91 Q1630.03 632.348 1630.03 631.552 Q1630.03 630.755 1630.59 630.193 Q1631.15 629.631 1631.95 629.631 L1688.16 629.631 Q1688.96 629.631 1689.52 630.193 Z" fill="#000000" fill-rule="evenodd" fill-opacity="1" /><path clip-path="url(#clip960)" d="M1730.55 591.733 Q1730.55 576.649 1738.23 567.421 Q1745.91 558.146 1755.8 558.146 Q1761.56 558.146 1764.74 561.097 Q1767.98 564.001 1767.98 568.498 Q1767.98 570.981 1766.52 572.059 Q1765.07 573.136 1763.57 573.136 Q1761.84 573.136 1760.48 571.965 Q1759.12 570.794 1759.12 568.686 Q1759.12 564.376 1764.42 564.376 Q1761.93 560.535 1755.98 560.535 Q1754.16 560.535 1752.28 561.097 Q1750.41 561.612 1747.97 563.392 Q1745.54 565.172 1743.66 567.983 Q1741.79 570.794 1740.48 576.087 Q1739.17 581.381 1739.17 588.267 L1739.17 590.562 Q1743.1 581.053 1751.16 581.1 Q1759.22 581.1 1764.79 587.236 Q1770.36 593.373 1770.36 602.461 Q1770.36 611.783 1764.56 617.967 Q1758.75 624.15 1750.6 624.15 Q1746.94 624.15 1743.62 622.604 Q1740.34 621.105 1737.25 617.639 Q1734.2 614.172 1732.37 607.52 Q1730.55 600.868 1730.55 591.733 M1739.35 600.353 Q1739.35 609.769 1741.09 614.266 Q1741.37 615.015 1741.98 616.046 Q1742.63 617.077 1743.71 618.435 Q1744.83 619.747 1746.66 620.637 Q1748.49 621.48 1750.6 621.48 Q1757.01 621.48 1760.11 615.25 Q1761.74 611.783 1761.74 602.367 Q1761.74 592.764 1760.01 589.251 Q1757.06 583.301 1751.06 583.301 Q1747.04 583.301 1744.22 586.065 Q1741.46 588.829 1740.38 592.53 Q1739.35 596.231 1739.35 600.353 Z" fill="#000000" fill-rule="evenodd" fill-opacity="1" /><path clip-path="url(#clip960)" d="M1780.36 645.09 Q1780.36 644.621 1781.58 643.45 Q1797.03 627.71 1797.03 598.058 Q1797.03 568.311 1782.19 553.274 Q1780.36 551.541 1780.36 551.025 Q1780.36 550.088 1781.29 550.088 Q1781.95 550.088 1784.25 552.009 Q1786.59 553.93 1790.1 558.333 Q1793.66 562.737 1796.29 568.124 Q1802.61 581.193 1802.61 598.058 Q1802.61 614.266 1796.57 627.336 Q1793.99 632.816 1790.38 637.407 Q1786.78 641.998 1784.39 644.012 Q1782 646.027 1781.29 646.027 Q1780.36 646.027 1780.36 645.09 Z" fill="#000000" fill-rule="evenodd" fill-opacity="1" /><path clip-path="url(#clip960)" d="M1843.81 607.473 Q1843.9 606.302 1845.73 606.302 L1904.52 606.302 Q1907.28 606.302 1907.33 607.38 Q1907.33 608.551 1904.71 608.504 L1846.39 608.504 Q1843.81 608.551 1843.81 607.473 M1843.81 588.735 Q1843.81 587.564 1845.82 587.611 L1904.43 587.611 Q1907.28 587.611 1907.33 588.735 Q1907.33 589.813 1904.89 589.813 L1845.73 589.813 Q1843.81 589.813 1843.81 588.735 Z" fill="#000000" fill-rule="evenodd" fill-opacity="1" /><path clip-path="url(#clip960)" d="M2017 535.438 Q2017 537.956 2015.48 539.302 Q2013.96 540.591 2011.97 540.591 Q2010.03 540.591 2008.51 539.302 Q2007.05 537.956 2007.05 535.555 Q2007.05 533.915 2008.1 532.451 Q2009.16 530.929 2011.5 530.636 Q2008.57 528.118 2003.94 528.118 Q2001.66 528.118 2000.08 528.996 Q1998.56 529.816 1997.03 532.334 Q1995.51 534.852 1994.46 540.005 Q1993.46 545.158 1992.82 553.18 L1990.54 583.044 Q1989.83 593.174 1987.31 613.083 Q1984.86 632.934 1983.68 637.501 Q1982.63 641.834 1981.05 645.406 Q1979.47 648.978 1977.13 652.081 Q1974.78 655.243 1971.39 657 Q1967.99 658.757 1963.89 658.757 Q1958.45 658.757 1954.58 655.888 Q1950.72 653.077 1950.72 648.802 Q1950.72 646.284 1952.24 644.938 Q1953.76 643.649 1955.75 643.649 Q1957.69 643.649 1959.15 644.938 Q1960.67 646.284 1960.67 648.685 Q1960.67 650.325 1959.62 651.789 Q1958.56 653.311 1956.22 653.604 Q1959.15 656.122 1963.89 656.122 Q1967.52 656.122 1969.92 654.014 Q1972.32 651.906 1974.08 646.284 Q1975.84 640.663 1976.6 631.06 L1978.88 601.196 Q1979.64 590.656 1982.1 571.04 Q1984.62 551.423 1985.73 546.271 Q1990.42 525.483 2003.83 525.483 Q2009.27 525.483 2013.14 528.352 Q2017 531.163 2017 535.438 Z" fill="#000000" fill-rule="evenodd" fill-opacity="1" /><path clip-path="url(#clip960)" d="M1962.15 723.969 L1962.15 721.903 L1982.77 690.39 Q1983.3 689.571 1984.12 689.603 Q1984.87 689.603 1985.03 689.899 Q1985.2 690.194 1985.2 691.341 L1985.2 721.903 L1991.92 721.903 L1991.92 723.969 L1985.2 723.969 L1985.2 729.806 Q1985.2 731.74 1985.99 732.363 Q1986.8 732.986 1990.28 732.986 L1991.69 732.986 L1991.69 735.052 Q1988.94 734.856 1982.57 734.856 Q1976.25 734.856 1973.49 735.052 L1973.49 732.986 L1974.9 732.986 Q1978.38 732.986 1979.2 732.396 Q1980.02 731.773 1980.02 729.806 L1980.02 723.969 L1962.15 723.969 M1964.05 721.903 L1980.41 721.903 L1980.41 696.85 L1964.05 721.903 Z" fill="#000000" fill-rule="evenodd" fill-opacity="1" /><path clip-path="url(#clip960)" d="M1960.26 495.873 Q1960.26 485.314 1965.64 478.854 Q1971.02 472.362 1977.94 472.362 Q1981.97 472.362 1984.2 474.427 Q1986.46 476.46 1986.46 479.608 Q1986.46 481.346 1985.45 482.101 Q1984.43 482.855 1983.38 482.855 Q1982.17 482.855 1981.22 482.035 Q1980.26 481.215 1980.26 479.74 Q1980.26 476.723 1983.97 476.723 Q1982.23 474.034 1978.07 474.034 Q1976.79 474.034 1975.48 474.427 Q1974.17 474.788 1972.46 476.034 Q1970.76 477.28 1969.44 479.248 Q1968.13 481.215 1967.21 484.921 Q1966.3 488.626 1966.3 493.446 L1966.3 495.053 Q1969.05 488.397 1974.69 488.429 Q1980.33 488.429 1984.23 492.725 Q1988.13 497.021 1988.13 503.382 Q1988.13 509.908 1984.07 514.236 Q1980 518.565 1974.3 518.565 Q1971.74 518.565 1969.41 517.483 Q1967.12 516.433 1964.95 514.007 Q1962.82 511.58 1961.54 506.924 Q1960.26 502.267 1960.26 495.873 M1966.43 501.907 Q1966.43 508.498 1967.64 511.646 Q1967.84 512.17 1968.26 512.892 Q1968.72 513.613 1969.48 514.564 Q1970.26 515.482 1971.54 516.105 Q1972.82 516.696 1974.3 516.696 Q1978.79 516.696 1980.95 512.334 Q1982.1 509.908 1982.1 503.317 Q1982.1 496.594 1980.89 494.135 Q1978.82 489.971 1974.62 489.971 Q1971.8 489.971 1969.84 491.905 Q1967.9 493.84 1967.15 496.43 Q1966.43 499.021 1966.43 501.907 Z" fill="#000000" fill-rule="evenodd" fill-opacity="1" /><path clip-path="url(#clip960)" d="M2086.96 594.966 Q2086.96 601.805 2083.5 608.41 Q2080.08 615.015 2074.69 619.091 Q2069.3 623.12 2063.82 623.12 Q2060.54 623.12 2058.34 621.339 Q2056.18 619.513 2055.01 616.936 Q2054.12 620.122 2052.2 627.757 Q2050.28 635.393 2050.28 636.142 Q2050.28 636.564 2050.38 636.751 Q2050.47 636.939 2050.89 637.173 Q2051.31 637.454 2052.34 637.548 Q2053.37 637.688 2055.11 637.688 Q2056 637.688 2056.33 637.688 Q2056.7 637.735 2057.03 637.969 Q2057.4 638.204 2057.4 638.719 Q2057.4 640.64 2055.67 640.64 Q2054.12 640.64 2050.94 640.499 Q2047.75 640.358 2046.16 640.358 Q2044.8 640.358 2042.08 640.499 Q2039.37 640.64 2038.1 640.64 Q2036.84 640.64 2036.84 639.515 Q2036.84 638.859 2037.03 638.438 Q2037.17 638.063 2037.54 637.876 Q2037.92 637.735 2038.24 637.688 Q2038.52 637.688 2039.09 637.688 Q2041.24 637.688 2042.18 637.314 Q2043.11 636.986 2043.44 636.283 Q2043.82 635.627 2044.24 633.753 L2055.01 591.031 Q2055.67 588.173 2055.67 586.159 Q2055.67 583.629 2054.87 582.692 Q2054.08 581.756 2052.67 581.756 Q2050.24 581.756 2048.64 584.66 Q2047.05 587.564 2045.69 593.186 Q2045.27 594.732 2044.99 595.059 Q2044.75 595.387 2044.05 595.387 Q2042.88 595.341 2042.88 594.404 Q2042.88 594.169 2043.26 592.67 Q2043.63 591.125 2044.33 588.876 Q2045.08 586.581 2045.88 585.128 Q2046.35 584.145 2046.77 583.489 Q2047.19 582.833 2048.03 581.802 Q2048.92 580.772 2050.19 580.21 Q2051.45 579.648 2053 579.648 Q2056 579.648 2058.48 581.428 Q2060.96 583.208 2061.62 586.815 Q2064.29 583.676 2067.57 581.662 Q2070.85 579.648 2074.17 579.648 Q2079.7 579.648 2083.31 583.957 Q2086.96 588.22 2086.96 594.966 M2080.03 590.75 Q2080.03 586.487 2078.39 584.145 Q2076.8 581.756 2073.89 581.756 Q2070.28 581.756 2066.12 585.409 Q2061.99 588.876 2061.15 592.108 L2056.42 610.893 L2056.14 612.439 Q2056.14 612.72 2056.28 613.563 Q2056.47 614.36 2056.98 615.671 Q2057.54 616.983 2058.29 618.154 Q2059.09 619.278 2060.49 620.122 Q2061.95 620.965 2063.73 620.965 Q2066.58 620.965 2069.68 618.435 Q2072.81 615.905 2075.16 611.127 Q2076.61 608.036 2078.3 601.384 Q2080.03 594.685 2080.03 590.75 Z" fill="#000000" fill-rule="evenodd" fill-opacity="1" /><path clip-path="url(#clip960)" d="M2109.97 598.058 Q2109.97 581.849 2116.01 568.78 Q2118.59 563.299 2122.2 558.708 Q2125.8 554.117 2128.19 552.103 Q2130.58 550.088 2131.24 550.088 Q2132.17 550.088 2132.22 551.025 Q2132.22 551.494 2130.96 552.665 Q2115.5 568.405 2115.54 598.058 Q2115.54 627.804 2130.58 642.935 Q2132.22 644.575 2132.22 645.09 Q2132.22 646.027 2131.24 646.027 Q2130.58 646.027 2128.29 644.106 Q2125.99 642.185 2122.43 637.782 Q2118.87 633.379 2116.29 627.991 Q2109.97 614.922 2109.97 598.058 Z" fill="#000000" fill-rule="evenodd" fill-opacity="1" /><path clip-path="url(#clip960)" d="M2187.29 585.972 Q2187.29 588.595 2185.65 590.094 Q2184.01 591.546 2182.14 591.546 Q2180.36 591.546 2179.42 590.516 Q2178.49 589.485 2178.49 588.173 Q2178.49 586.393 2179.8 584.847 Q2181.11 583.301 2183.08 582.974 Q2181.16 581.756 2178.3 581.756 Q2176.43 581.756 2174.79 582.739 Q2173.19 583.723 2172.21 584.988 Q2171.27 586.253 2170.43 588.08 Q2169.63 589.86 2169.3 590.937 Q2169.02 591.968 2168.79 593.092 L2165.51 606.209 Q2163.92 612.439 2163.92 614.641 Q2163.92 617.358 2165.23 619.185 Q2166.54 620.965 2169.16 620.965 Q2170.19 620.965 2171.37 620.684 Q2172.54 620.356 2174.04 619.513 Q2175.58 618.622 2176.94 617.311 Q2178.35 615.952 2179.7 613.657 Q2181.06 611.362 2181.95 608.41 Q2182.23 607.38 2183.17 607.38 Q2184.34 607.38 2184.34 608.317 Q2184.34 609.113 2183.69 610.799 Q2183.08 612.439 2181.72 614.594 Q2180.41 616.702 2178.67 618.622 Q2176.94 620.496 2174.36 621.808 Q2171.79 623.12 2168.98 623.12 Q2164.95 623.12 2162.28 620.965 Q2159.61 618.81 2158.62 615.812 Q2158.39 616.233 2158.06 616.796 Q2157.73 617.358 2156.75 618.622 Q2155.81 619.84 2154.74 620.777 Q2153.66 621.667 2151.97 622.37 Q2150.33 623.12 2148.55 623.12 Q2146.3 623.12 2144.29 622.464 Q2142.32 621.808 2140.92 620.309 Q2139.51 618.81 2139.51 616.749 Q2139.51 614.453 2141.06 612.861 Q2142.65 611.221 2144.8 611.221 Q2146.16 611.221 2147.24 612.017 Q2148.36 612.814 2148.36 614.547 Q2148.36 616.468 2147.05 617.92 Q2145.74 619.372 2143.87 619.747 Q2145.79 620.965 2148.65 620.965 Q2151.74 620.965 2154.17 618.248 Q2156.61 615.531 2157.78 610.987 Q2160.69 600.072 2161.81 595.2 Q2162.93 590.281 2162.93 588.173 Q2162.93 586.206 2162.42 584.847 Q2161.9 583.489 2161.01 582.88 Q2160.17 582.224 2159.37 581.99 Q2158.62 581.756 2157.78 581.756 Q2156.38 581.756 2154.78 582.318 Q2153.24 582.88 2151.36 584.191 Q2149.54 585.456 2147.8 588.08 Q2146.07 590.703 2144.9 594.31 Q2144.66 595.387 2143.63 595.387 Q2142.51 595.341 2142.51 594.404 Q2142.51 593.607 2143.12 591.968 Q2143.77 590.281 2145.09 588.173 Q2146.44 586.065 2148.18 584.191 Q2149.96 582.271 2152.53 580.959 Q2155.16 579.648 2157.97 579.648 Q2159.23 579.648 2160.45 579.929 Q2161.72 580.163 2163.21 580.865 Q2164.76 581.568 2166.12 583.114 Q2167.48 584.66 2168.32 586.908 Q2168.88 585.831 2169.63 584.8 Q2170.43 583.77 2171.65 582.505 Q2172.91 581.193 2174.64 580.444 Q2176.43 579.648 2178.39 579.648 Q2180.31 579.648 2182.19 580.163 Q2184.06 580.631 2185.65 582.177 Q2187.29 583.676 2187.29 585.972 Z" fill="#000000" fill-rule="evenodd" fill-opacity="1" /><path clip-path="url(#clip960)" d="M2196.53 645.09 Q2196.53 644.621 2197.75 643.45 Q2213.2 627.71 2213.2 598.058 Q2213.2 568.311 2198.35 553.274 Q2196.53 551.541 2196.53 551.025 Q2196.53 550.088 2197.46 550.088 Q2198.12 550.088 2200.42 552.009 Q2202.76 553.93 2206.27 558.333 Q2209.83 562.737 2212.45 568.124 Q2218.78 581.193 2218.78 598.058 Q2218.78 614.266 2212.74 627.336 Q2210.16 632.816 2206.55 637.407 Q2202.94 641.998 2200.56 644.012 Q2198.17 646.027 2197.46 646.027 Q2196.53 646.027 2196.53 645.09 Z" fill="#000000" fill-rule="evenodd" fill-opacity="1" /><path clip-path="url(#clip960)" d="M2277.5 556.506 L2263.68 611.97 Q2263.12 614.453 2263.12 616.561 Q2263.12 620.965 2265.98 620.965 Q2267.38 620.965 2268.51 620.075 Q2269.63 619.185 2270.52 617.311 Q2271.41 615.437 2271.97 613.704 Q2272.54 611.924 2273.29 609.113 Q2273.52 607.989 2273.71 607.708 Q2273.94 607.38 2274.6 607.38 Q2275.77 607.38 2275.77 608.317 Q2274.5 614.36 2272.86 617.826 Q2270.24 623.12 2265.79 623.12 Q2262.42 623.12 2260.03 621.058 Q2257.64 618.997 2257.08 615.905 Q2250.94 623.12 2244.57 623.12 Q2238.95 623.12 2235.39 618.857 Q2231.83 614.547 2231.83 607.754 Q2231.83 600.915 2235.2 594.357 Q2238.62 587.799 2244.01 583.723 Q2249.39 579.648 2254.92 579.648 Q2260.78 579.648 2263.78 585.784 L2269.54 563.018 L2269.82 561.144 Q2269.82 560.582 2269.59 560.301 Q2269.4 559.973 2268.27 559.738 Q2267.2 559.504 2265.04 559.504 Q2264.15 559.504 2263.73 559.457 Q2263.35 559.411 2263.03 559.176 Q2262.7 558.895 2262.7 558.333 Q2262.7 556.694 2264.06 556.506 Q2273.05 555.476 2276.24 555.476 Q2276.8 555.476 2277.13 555.757 Q2277.46 555.991 2277.46 556.272 L2277.5 556.506 M2262.61 590.188 Q2262.61 589.766 2262.28 588.595 Q2261.95 587.424 2261.2 585.784 Q2260.45 584.145 2258.81 582.974 Q2257.22 581.756 2255.06 581.756 Q2252.16 581.756 2249.11 584.238 Q2246.12 586.721 2243.91 590.937 Q2242.23 594.31 2240.4 601.384 Q2238.62 608.457 2238.62 611.97 Q2238.62 614.125 2239.09 616.046 Q2239.6 617.92 2241.06 619.466 Q2242.51 620.965 2244.76 620.965 Q2250.24 620.965 2255.63 614.172 Q2256.66 613.001 2256.89 612.533 Q2257.17 612.017 2257.55 610.612 L2262.32 591.827 Q2262.61 590.422 2262.61 590.188 Z" fill="#000000" fill-rule="evenodd" fill-opacity="1" /><path clip-path="url(#clip960)" d="M2327.44 585.972 Q2327.44 588.595 2325.8 590.094 Q2324.16 591.546 2322.28 591.546 Q2320.5 591.546 2319.57 590.516 Q2318.63 589.485 2318.63 588.173 Q2318.63 586.393 2319.94 584.847 Q2321.25 583.301 2323.22 582.974 Q2321.3 581.756 2318.44 581.756 Q2316.57 581.756 2314.93 582.739 Q2313.34 583.723 2312.35 584.988 Q2311.42 586.253 2310.57 588.08 Q2309.78 589.86 2309.45 590.937 Q2309.17 591.968 2308.93 593.092 L2305.65 606.209 Q2304.06 612.439 2304.06 614.641 Q2304.06 617.358 2305.37 619.185 Q2306.69 620.965 2309.31 620.965 Q2310.34 620.965 2311.51 620.684 Q2312.68 620.356 2314.18 619.513 Q2315.73 618.622 2317.08 617.311 Q2318.49 615.952 2319.85 613.657 Q2321.21 611.362 2322.1 608.41 Q2322.38 607.38 2323.32 607.38 Q2324.49 607.38 2324.49 608.317 Q2324.49 609.113 2323.83 610.799 Q2323.22 612.439 2321.86 614.594 Q2320.55 616.702 2318.82 618.622 Q2317.08 620.496 2314.51 621.808 Q2311.93 623.12 2309.12 623.12 Q2305.09 623.12 2302.42 620.965 Q2299.75 618.81 2298.77 615.812 Q2298.53 616.233 2298.21 616.796 Q2297.88 617.358 2296.89 618.622 Q2295.96 619.84 2294.88 620.777 Q2293.8 621.667 2292.12 622.37 Q2290.48 623.12 2288.7 623.12 Q2286.45 623.12 2284.43 622.464 Q2282.47 621.808 2281.06 620.309 Q2279.66 618.81 2279.66 616.749 Q2279.66 614.453 2281.2 612.861 Q2282.79 611.221 2284.95 611.221 Q2286.31 611.221 2287.39 612.017 Q2288.51 612.814 2288.51 614.547 Q2288.51 616.468 2287.2 617.92 Q2285.89 619.372 2284.01 619.747 Q2285.93 620.965 2288.79 620.965 Q2291.88 620.965 2294.32 618.248 Q2296.75 615.531 2297.93 610.987 Q2300.83 600.072 2301.95 595.2 Q2303.08 590.281 2303.08 588.173 Q2303.08 586.206 2302.56 584.847 Q2302.05 583.489 2301.16 582.88 Q2300.31 582.224 2299.52 581.99 Q2298.77 581.756 2297.93 581.756 Q2296.52 581.756 2294.93 582.318 Q2293.38 582.88 2291.51 584.191 Q2289.68 585.456 2287.95 588.08 Q2286.21 590.703 2285.04 594.31 Q2284.81 595.387 2283.78 595.387 Q2282.65 595.341 2282.65 594.404 Q2282.65 593.607 2283.26 591.968 Q2283.92 590.281 2285.23 588.173 Q2286.59 586.065 2288.32 584.191 Q2290.1 582.271 2292.68 580.959 Q2295.3 579.648 2298.11 579.648 Q2299.38 579.648 2300.6 579.929 Q2301.86 580.163 2303.36 580.865 Q2304.91 581.568 2306.26 583.114 Q2307.62 584.66 2308.47 586.908 Q2309.03 585.831 2309.78 584.8 Q2310.57 583.77 2311.79 582.505 Q2313.06 581.193 2314.79 580.444 Q2316.57 579.648 2318.54 579.648 Q2320.46 579.648 2322.33 580.163 Q2324.21 580.631 2325.8 582.177 Q2327.44 583.676 2327.44 585.972 Z" fill="#000000" fill-rule="evenodd" fill-opacity="1" /></svg>
